<svg width="51" height="51" viewBox="0 0 51 51" fill="none" xmlns="http://www.w3.org/2000/svg">
<circle cx="25.5" cy="25.4829" r="25" fill="#018CB7"/>
<path d="M28.5 22.4829L27.1172 19.6657C26.8275 19.0142 26.8275 19.0142 25.875 19.0142C25.2534 19.0142 25.1831 19.0142 24.7969 19.3563L21.4359 22.5954C21.0469 22.9915 21 23.0384 21 23.8423C21 24.4362 21.1772 24.5271 21.8677 24.9157L24.75 26.5142V30.7329H26.25V25.3892C26.25 25.3892 24.8906 24.5923 23.9859 23.9829L26.2781 21.5688C27.1547 22.9048 27.5578 23.9829 28.0594 23.9829H31.5V22.4829H28.5Z" fill="white"/>
<path d="M31.6875 34.483C30.8346 34.483 30.0008 34.23 29.2916 33.7562C28.5824 33.2823 28.0297 32.6088 27.7033 31.8208C27.3769 31.0328 27.2915 30.1657 27.4579 29.3291C27.6243 28.4926 28.035 27.7242 28.6381 27.1211C29.2412 26.5179 30.0096 26.1072 30.8462 25.9408C31.6827 25.7744 32.5498 25.8598 33.3378 26.1862C34.1258 26.5126 34.7994 27.0654 35.2732 27.7746C35.7471 28.4837 36 29.3175 36 30.1705C35.9988 31.3138 35.544 32.41 34.7355 33.2185C33.927 34.027 32.8309 34.4817 31.6875 34.483ZM31.6875 27.358C31.1312 27.358 30.5875 27.5229 30.125 27.8319C29.6624 28.141 29.302 28.5802 29.0891 29.0942C28.8762 29.6081 28.8205 30.1736 28.929 30.7191C29.0376 31.2647 29.3054 31.7659 29.6988 32.1592C30.0921 32.5525 30.5932 32.8204 31.1388 32.9289C31.6844 33.0374 32.2499 32.9817 32.7638 32.7689C33.2777 32.556 33.717 32.1955 34.026 31.733C34.3351 31.2705 34.5 30.7267 34.5 30.1705C34.4991 29.4248 34.2025 28.7099 33.6753 28.1827C33.148 27.6554 32.4332 27.3588 31.6875 27.358ZM19.3125 34.483C18.4596 34.483 17.6258 34.23 16.9166 33.7562C16.2074 33.2823 15.6547 32.6088 15.3283 31.8208C15.0019 31.0328 14.9165 30.1657 15.0829 29.3291C15.2493 28.4926 15.66 27.7242 16.2631 27.1211C16.8662 26.5179 17.6346 26.1072 18.4712 25.9408C19.3077 25.7744 20.1748 25.8598 20.9628 26.1862C21.7508 26.5126 22.4244 27.0654 22.8982 27.7746C23.3721 28.4837 23.625 29.3175 23.625 30.1705C23.6238 31.3138 23.169 32.41 22.3605 33.2185C21.552 34.027 20.4559 34.4817 19.3125 34.483ZM19.3125 27.358C18.7562 27.358 18.2125 27.5229 17.75 27.8319C17.2874 28.141 16.927 28.5802 16.7141 29.0942C16.5012 29.6081 16.4455 30.1736 16.554 30.7191C16.6626 31.2647 16.9304 31.7659 17.3238 32.1592C17.7171 32.5525 18.2182 32.8204 18.7638 32.9289C19.3094 33.0374 19.8749 32.9817 20.3888 32.7689C20.9027 32.556 21.342 32.1955 21.651 31.733C21.9601 31.2705 22.125 30.7267 22.125 30.1705C22.1241 29.4248 21.8275 28.7099 21.3003 28.1827C20.773 27.6554 20.0582 27.3588 19.3125 27.358ZM28.5 19.483C28.6976 19.4836 28.8933 19.4452 29.0759 19.3697C29.2585 19.2943 29.4244 19.1834 29.5639 19.0435C29.7033 18.9036 29.8137 18.7374 29.8886 18.5545C29.9634 18.3717 30.0013 18.1758 30 17.9783C30.0022 17.7817 29.9652 17.5866 29.8911 17.4045C29.817 17.2224 29.7074 17.0569 29.5686 16.9177C29.4298 16.7785 29.2646 16.6683 29.0828 16.5937C28.9009 16.519 28.706 16.4814 28.5094 16.483C28.3124 16.4823 28.1172 16.5205 27.935 16.5953C27.7528 16.6702 27.5871 16.7801 27.4473 16.919C27.3076 17.0578 27.1966 17.2228 27.1207 17.4046C27.0447 17.5864 27.0053 17.7813 27.0047 17.9783C27.0041 18.1753 27.0423 18.3704 27.1171 18.5527C27.1919 18.7349 27.3019 18.9006 27.4407 19.0403C27.5796 19.18 27.7446 19.291 27.9263 19.367C28.1081 19.4429 28.303 19.4823 28.5 19.483Z" fill="white"/>
</svg>
