<svg width="96" height="208" viewBox="0 0 96 208" fill="none" xmlns="http://www.w3.org/2000/svg">
<circle cx="6" cy="6" r="6" fill="#DDE8FF"/>
<circle cx="6" cy="34" r="6" fill="#DDE8FF"/>
<circle cx="6" cy="62" r="6" fill="#DDE8FF"/>
<circle cx="6" cy="90" r="6" fill="#DDE8FF"/>
<circle cx="6" cy="118" r="6" fill="#DDE8FF"/>
<circle cx="6" cy="146" r="6" fill="#DDE8FF"/>
<circle cx="6" cy="174" r="6" fill="#DDE8FF"/>
<circle cx="6" cy="202" r="6" fill="#DDE8FF"/>
<circle cx="34" cy="6" r="6" fill="#DDE8FF"/>
<circle cx="34" cy="34" r="6" fill="#DDE8FF"/>
<circle cx="34" cy="62" r="6" fill="#DDE8FF"/>
<circle cx="34" cy="90" r="6" fill="#DDE8FF"/>
<circle cx="34" cy="118" r="6" fill="#DDE8FF"/>
<circle cx="34" cy="146" r="6" fill="#DDE8FF"/>
<circle cx="34" cy="174" r="6" fill="#DDE8FF"/>
<circle cx="34" cy="202" r="6" fill="#DDE8FF"/>
<circle cx="62" cy="6" r="6" fill="#DDE8FF"/>
<circle cx="62" cy="34" r="6" fill="#DDE8FF"/>
<circle cx="62" cy="62" r="6" fill="#DDE8FF"/>
<circle cx="62" cy="90" r="6" fill="#DDE8FF"/>
<circle cx="62" cy="118" r="6" fill="#DDE8FF"/>
<circle cx="62" cy="146" r="6" fill="#DDE8FF"/>
<circle cx="62" cy="174" r="6" fill="#DDE8FF"/>
<circle cx="62" cy="202" r="6" fill="#DDE8FF"/>
<circle cx="90" cy="6" r="6" fill="#DDE8FF"/>
<circle cx="90" cy="34" r="6" fill="#DDE8FF"/>
<circle cx="90" cy="62" r="6" fill="#DDE8FF"/>
<circle cx="90" cy="90" r="6" fill="#DDE8FF"/>
<circle cx="90" cy="118" r="6" fill="#DDE8FF"/>
<circle cx="90" cy="146" r="6" fill="#DDE8FF"/>
<circle cx="90" cy="174" r="6" fill="#DDE8FF"/>
<circle cx="90" cy="202" r="6" fill="#DDE8FF"/>
</svg>
