<svg width="24" height="18" viewBox="0 0 24 18" fill="none" xmlns="http://www.w3.org/2000/svg">
<path fill-rule="evenodd" clip-rule="evenodd" d="M23.625 9C23.625 8.37868 23.1213 7.875 22.5 7.875H1.5C0.878679 7.875 0.375 8.37868 0.375 9C0.375 9.62132 0.878679 10.125 1.5 10.125H22.5C23.1213 10.125 23.625 9.62132 23.625 9Z" fill="#018CB7"/>
<path fill-rule="evenodd" clip-rule="evenodd" d="M23.625 1.5C23.625 0.87868 23.1213 0.375 22.5 0.375H1.5C0.878679 0.375 0.375 0.87868 0.375 1.5C0.375 2.12132 0.878679 2.625 1.5 2.625H22.5C23.1213 2.625 23.625 2.12132 23.625 1.5Z" fill="#018CB7"/>
<path fill-rule="evenodd" clip-rule="evenodd" d="M23.625 16.5C23.625 15.8787 23.1213 15.375 22.5 15.375H1.5C0.878679 15.375 0.375 15.8787 0.375 16.5C0.375 17.1213 0.878679 17.625 1.5 17.625H22.5C23.1213 17.625 23.625 17.1213 23.625 16.5Z" fill="#018CB7"/>
</svg>
