<svg width="56" height="56" viewBox="0 0 56 56" fill="none" xmlns="http://www.w3.org/2000/svg">
<circle cx="28" cy="28" r="28" fill="#F8E9E9"/>
<path fill-rule="evenodd" clip-rule="evenodd" d="M29.9766 23.1865H36.3484C37.4529 23.1865 38.3484 24.082 38.3484 25.1865V37H29.9766V23.1865ZM31.6504 24.4419H33.3247V26.1162H31.6504V24.4419ZM36.6744 24.4419H35V26.1163H36.6744V24.4419ZM31.6504 29.4648H33.3247V31.1391H31.6504V29.4648ZM36.6744 29.4648H35V31.1392H36.6744V29.4648ZM31.6504 26.9541H33.3247V28.6284H31.6504V26.9541ZM36.6744 26.9541H35V28.6285H36.6744V26.9541ZM31.6504 31.977H33.3247V33.6513H31.6504V31.977ZM36.6744 31.9771H35V33.6514H36.6744V31.9771Z" fill="#018CB7"/>
<path fill-rule="evenodd" clip-rule="evenodd" d="M17 21C17 19.8954 17.8954 19 19 19H26.7205C27.8251 19 28.7205 19.8954 28.7205 21V36.9994H25.3727V35.7439H20.3496V36.9994H17V21ZM20.3482 21H18.6738V22.6744H20.3482V21ZM25.3711 21H27.0455V22.6744H25.3711V21ZM23.6978 21H22.0234V22.6744H23.6978V21ZM18.6738 24.0009H20.3482V25.6753H18.6738V24.0009ZM27.0455 24.001H25.3711V25.6753H27.0455V24.001ZM22.0234 24.001H23.6978V25.6753H22.0234V24.001ZM20.3482 30.0004H18.6738V31.6747H20.3482V30.0004ZM25.3711 30.0002H27.0455V31.6746H25.3711V30.0002ZM23.6978 30.0002H22.0234V31.6746H23.6978V30.0002ZM18.6738 26.9994H20.3482V28.6738H18.6738V26.9994ZM27.0455 26.9995H25.3711V28.6739H27.0455V26.9995ZM22.0234 26.9995H23.6978V28.6739H22.0234V26.9995ZM20.3482 33.0008H18.6738V34.6752H20.3482V33.0008ZM25.3711 33.0007H27.0455V34.6751H25.3711V33.0007ZM23.6978 33.0007H22.0234V34.6751H23.6978V33.0007Z" fill="#018CB7"/>
</svg>
