<svg width="58" height="58" viewBox="0 0 58 58" fill="none" xmlns="http://www.w3.org/2000/svg">
<circle cx="29" cy="29" r="29" fill="#DDE8FF"/>
<path d="M34.8716 37.2276C35.7412 36.6111 36.6107 35.9946 37.0546 35.0789C37.4984 34.1633 37.5165 32.9484 36.9006 32.0418C36.2847 31.1352 35.0346 30.5368 33.8208 30.4009C32.607 30.2649 31.4294 30.5912 30.5236 31.5069C29.6178 32.4226 28.9837 33.9275 28.2681 35.0155C27.5525 36.1034 26.7553 36.7743 25.7318 37.0825C24.7082 37.3908 23.4582 37.3364 22.4799 36.9828C21.5016 36.6292 20.7951 35.9765 20.469 35.0699C20.1429 34.1633 20.1972 33.0028 20.7769 32.1234C21.3567 31.244 22.4617 30.6456 23.5669 30.0473M35.6868 38.0617L34.3824 36.2938L33.3951 38.3065L35.6868 38.0617ZM22.9867 29.0803L23.7734 31.1321L25.2607 29.4554L22.9867 29.0803Z" stroke="#4DC6FF" stroke-width="1.5" stroke-linejoin="round"/>
<path d="M15.9783 19.4943H19.0298V18.1088C19.0298 18.0487 19.0785 18 19.1385 18H20.3885C20.4485 18 20.4972 18.0487 20.4972 18.1088V19.4943H24.7003V18.1088C24.7003 18.0487 24.749 18 24.809 18H26.059C26.119 18 26.1677 18.0487 26.1677 18.1088V19.4943H30.3708V18.1088C30.3708 18.0487 30.4195 18 30.4795 18H31.7295C31.7895 18 31.8382 18.0487 31.8382 18.1088V19.4943H36.0413V18.1088C36.0413 18.0487 36.0899 18 36.15 18H37.3999C37.4599 18 37.5086 18.0487 37.5086 18.1088V19.4943H42.0159C42.5562 19.4943 42.9942 19.9326 42.9942 20.4734L43 42.0596C43 42.6004 42.562 43.0388 42.0217 43.0388H16.0169C15.4766 43.0388 15.0386 42.6004 15.0386 42.0596L15 20.4734C15 19.9326 15.438 19.4943 15.9783 19.4943ZM17.6728 21.4821C17.3127 21.4821 17.0206 21.7744 17.0206 22.1349V25.2174C17.0206 25.5452 17.2622 25.8167 17.5769 25.8631H40.3411C40.4907 25.8224 40.6404 25.7817 40.7332 25.6979C40.826 25.6141 40.8618 25.4871 40.8978 25.3602V21.9333C40.8528 21.8154 40.8079 21.6976 40.7317 21.6224C40.6555 21.5472 40.5482 21.5146 40.4408 21.4821H37.5086V22.8683C37.5086 22.9283 37.4599 22.9771 37.3999 22.9771H36.15C36.09 22.9771 36.0413 22.9283 36.0413 22.8683V21.4821H31.8382V22.8683C31.8382 22.9284 31.7895 22.9771 31.7295 22.9771H30.4795C30.4195 22.9771 30.3708 22.9284 30.3708 22.8683V21.4821L26.1677 21.4821V22.8683C26.1677 22.9284 26.119 22.9771 26.059 22.9771H24.809C24.749 22.9771 24.7003 22.9284 24.7003 22.8683V21.4821H20.4972V22.8682C20.4972 22.9283 20.4485 22.977 20.3885 22.977H19.1385C19.0785 22.977 19.0298 22.9283 19.0298 22.8682V21.4821H17.6728ZM17.1517 27.8508C17.0917 27.8508 17.043 27.8995 17.043 27.9596V40.8267C17.043 40.8868 17.0917 40.9355 17.1517 40.9355H40.7654V27.8508H17.1517Z" fill="#4DC6FF" stroke="#4DC6FF" stroke-width="0.320001" stroke-linejoin="round"/>
</svg>
