<svg width="817" height="593" viewBox="0 0 817 593" fill="none" xmlns="http://www.w3.org/2000/svg">
<rect x="149" y="83" width="560" height="242" rx="27" fill="#FFF3F3"/>
<path d="M311.5 390.5H293H243H222.5V228.5H165L264 118L373.5 228.5H311.5V390.5Z" fill="#002B77"/>
<path d="M474 392H453H403H380.5V116H325L424 3L533.5 116H474V392Z" fill="#002B77"/>
<path d="M637.5 390.5H619H569H548.5V228.5H491L593 118L699.5 228.5H637.5V390.5Z" fill="#002B77"/>
<path d="M801 320.5V418.5C801 418.5 802.945 438.245 790.5 452C776.744 467.203 748.5 466 748.5 466H119C119 466 96.4047 465.997 83.5 453.5C70.1745 440.595 73.0004 418.5 73.0004 418.5V320.5" stroke="#002B77" stroke-width="8" stroke-linecap="round"/>
<path d="M307 401L218 565H0L218 401V228.5H160.5L259.5 118L369 228.5H307V401Z" fill="#E1EBFE"/>
<path d="M472 403L534 592.5H304L383 403V110.5H325.5L424.5 0L534 110.5H472V403Z" fill="#DDFFE7"/>
<path d="M553 401L628 538.5H817L642 401V228.5H699.5L600.5 118L497.5 228.5H553V401Z" fill="#E9D5FF"/>
<path d="M235 401H217" stroke="#6B9EFA" stroke-width="2"/>
<path d="M438 401H420" stroke="#84D99D" stroke-width="2"/>
<path d="M643 401H625" stroke="#AA68F3" stroke-width="2"/>
</svg>
