<svg width="353" height="301" viewBox="0 0 353 301" fill="none" xmlns="http://www.w3.org/2000/svg">
<g filter="url(#filter0_f_228_6063)">
<ellipse cx="308.5" cy="148.931" rx="38.5" ry="13" fill="#D9D9D9"/>
</g>
<g filter="url(#filter1_f_228_6063)">
<ellipse cx="169.5" cy="247.931" rx="38.5" ry="13" fill="#D9D9D9"/>
</g>
<g filter="url(#filter2_f_228_6063)">
<ellipse cx="67.5" cy="251.931" rx="38.5" ry="13" fill="#D9D9D9"/>
</g>
<path d="M236 268.931L227 259.491L236 247.931" stroke="#F99F1C" stroke-width="6" stroke-linecap="round" stroke-linejoin="round"/>
<ellipse cx="251.536" cy="37.3553" rx="38.5" ry="13" transform="rotate(-48.1627 251.536 37.3553)" fill="#FFEC9E"/>
<path d="M248.333 27.2453C248.333 27.2453 258.921 15.6563 265.991 13.2031C269.26 12.069 269.859 11.6948 272.464 13.9718C275.319 16.4667 270.976 23.5653 270.976 23.5653" stroke="#F99F1C" stroke-linecap="round"/>
<path d="M244.34 54.6902C244.34 54.6902 237.81 60.4938 234.176 61.244C232.156 61.6612 230.531 61.8412 229.052 59.8251C226.519 56.3722 237.621 40.7221 237.621 40.7221" stroke="#F99F1C" stroke-linecap="round"/>
<path d="M277.905 9.13446L282.542 13.007C282.542 13.007 282.941 16.144 281.054 22.6005C276.714 37.4443 257.863 55.9065 245.516 65.2191C238.486 70.522 231.8 70.1533 231.8 70.1533L226.261 66.7143C226.261 66.7143 235.345 69.6541 249.44 57.2283C259.96 47.9543 269.84 37.9824 277.5 20.9808C280.167 15.063 277.905 9.13446 277.905 9.13446Z" fill="#FFAC11"/>
<ellipse cx="306.081" cy="129.246" rx="38.5" ry="13" transform="rotate(-10.9077 306.081 129.246)" fill="#FFEC9E"/>
<path d="M309.655 119.26C309.655 119.26 325.097 116.445 332.21 118.772C335.499 119.849 336.202 119.913 336.897 123.303C337.659 127.017 329.905 130.038 329.905 130.038" stroke="#F99F1C" stroke-linecap="round"/>
<path d="M289.86 138.686C289.86 138.686 281.149 139.352 277.803 137.749C275.942 136.858 274.54 136.018 274.584 133.518C274.657 129.236 292.968 123.5 292.968 123.5" stroke="#F99F1C" stroke-linecap="round"/>
<path d="M344.156 122.747L345.503 128.636C345.503 128.636 343.921 131.375 338.51 135.371C326.07 144.559 299.89 147.843 284.425 147.781C275.619 147.745 270.52 143.404 270.52 143.404L268.194 137.314C268.194 137.314 273.644 145.153 292.385 143.796C306.372 142.782 320.273 140.826 336.663 131.931C342.367 128.835 344.156 122.747 344.156 122.747Z" fill="#FFAC11"/>
<ellipse cx="167.522" cy="241.2" rx="38.5" ry="13" transform="rotate(-1.71194 167.522 241.2)" fill="#FFEC9E"/>
<path d="M172.645 231.914C172.645 231.914 188.339 231.603 194.989 235.038C198.063 236.625 198.747 236.802 198.891 240.259C199.05 244.047 190.913 245.79 190.913 245.79" stroke="#F99F1C" stroke-linecap="round"/>
<path d="M150 247.927C150 247.927 141.295 247.193 138.248 245.076C136.553 243.899 135.304 242.846 135.746 240.385C136.503 236.17 155.495 233.434 155.495 233.434" stroke="#F99F1C" stroke-linecap="round"/>
<path d="M206.145 240.87L206.533 246.899C206.533 246.899 204.534 249.35 198.554 252.43C184.806 259.512 158.437 258.569 143.181 256.036C134.493 254.594 130.154 249.494 130.154 249.494L128.831 243.111C128.831 243.111 132.959 251.72 151.676 253.375C165.645 254.61 179.68 254.9 197.28 248.739C203.406 246.594 206.145 240.87 206.145 240.87Z" fill="#FFAC11"/>
<ellipse cx="47.3888" cy="238.027" rx="38.5" ry="13" transform="rotate(-1.71194 47.3888 238.027)" fill="#FFEC9E"/>
<path d="M52.5123 228.74C52.5123 228.74 68.2064 228.429 74.8558 231.863C77.9301 233.451 78.6139 233.627 78.7585 237.084C78.9171 240.872 70.78 242.615 70.78 242.615" stroke="#F99F1C" stroke-linecap="round"/>
<path d="M29.8674 244.752C29.8674 244.752 21.1618 244.018 18.1148 241.902C16.4202 240.724 15.1707 239.671 15.6129 237.21C16.3701 232.995 35.362 230.259 35.362 230.259" stroke="#F99F1C" stroke-linecap="round"/>
<path d="M86.0119 237.696L86.4001 243.725C86.4001 243.725 84.4016 246.176 78.4215 249.256C64.673 256.338 38.3043 255.396 23.0479 252.863C14.3604 251.421 10.021 246.321 10.021 246.321L8.69778 239.937C8.69778 239.937 12.8258 248.547 31.5429 250.201C45.5122 251.436 59.5467 251.726 77.1472 245.565C83.2735 243.42 86.0119 237.696 86.0119 237.696Z" fill="#FFAC11"/>
<path d="M106.672 232.752C107.048 234.396 106.429 236.226 104.901 238.149C103.374 240.068 100.966 242.046 97.8464 243.962C91.6097 247.794 82.58 251.354 72.2364 253.724C61.8928 256.095 52.214 256.823 44.9311 256.089C41.2883 255.723 38.2593 254.992 36.049 253.928C33.8358 252.863 32.4816 251.485 32.1048 249.841C31.728 248.197 32.3469 246.367 33.8754 244.444C35.402 242.525 37.8104 240.548 40.9299 238.631C47.1666 234.799 56.1963 231.239 66.5399 228.869C76.8836 226.498 86.5623 225.77 93.8453 226.504C97.4881 226.87 100.517 227.601 102.727 228.665C104.941 229.73 106.295 231.108 106.672 232.752Z" fill="#FFEC9E" stroke="#F99F1C" stroke-width="0.5"/>
<path d="M72.6123 231.192C72.6123 231.192 87.9474 227.84 95.1371 229.918C98.4611 230.878 99.1662 230.919 99.9793 234.282C100.87 237.967 93.2266 241.257 93.2266 241.257" stroke="#F99F1C" stroke-linecap="round"/>
<path d="M53.5084 251.297C53.5084 251.297 44.826 252.267 41.426 250.783C39.5351 249.957 38.1049 249.166 38.0607 246.666C37.9851 242.384 56.0843 236.013 56.0843 236.013" stroke="#F99F1C" stroke-linecap="round"/>
<path d="M107.213 233.472L108.765 239.311C108.765 239.311 107.28 242.103 102.012 246.286C89.9001 255.903 63.8503 260.098 48.3924 260.576C39.5903 260.848 34.3432 256.688 34.3432 256.688L31.8057 250.683C31.8057 250.683 37.5268 258.327 56.209 256.316C70.1522 254.815 83.9759 252.374 100.045 242.913C105.638 239.619 107.213 233.472 107.213 233.472Z" fill="#FFAC11"/>
<ellipse cx="117.082" cy="261.246" rx="38.5" ry="13" transform="rotate(-2.22802 117.082 261.246)" fill="#FFEC9E"/>
<path d="M122.122 251.913C122.122 251.913 137.812 251.461 144.492 254.835C147.581 256.396 148.266 256.566 148.442 260.021C148.635 263.808 140.514 265.624 140.514 265.624" stroke="#F99F1C" stroke-linecap="round"/>
<path d="M99.621 268.129C99.621 268.129 90.9092 267.474 87.8432 265.385C86.1381 264.223 84.8792 263.181 85.2991 260.716C86.0183 256.494 104.985 253.587 104.985 253.587" stroke="#F99F1C" stroke-linecap="round"/>
<path d="M155.7 260.567L156.143 266.592C156.143 266.592 154.167 269.061 148.214 272.195C134.53 279.4 108.154 278.695 92.8755 276.3C84.1754 274.936 79.7902 269.875 79.7902 269.875L78.4096 263.504C78.4096 263.504 82.615 272.076 101.346 273.562C115.326 274.671 129.363 274.835 146.907 268.515C153.014 266.316 155.7 260.567 155.7 260.567Z" fill="#FFAC11"/>
<ellipse cx="117.082" cy="255.039" rx="38.5" ry="13" transform="rotate(-2.22802 117.082 255.039)" fill="#FFEC9E"/>
<path d="M122.122 245.706C122.122 245.706 137.812 245.254 144.492 248.628C147.581 250.188 148.266 250.359 148.442 253.814C148.635 257.601 140.514 259.417 140.514 259.417" stroke="#F99F1C" stroke-linecap="round"/>
<path d="M99.621 261.922C99.621 261.922 90.9092 261.266 87.8432 259.178C86.1381 258.016 84.8792 256.974 85.2991 254.509C86.0183 250.287 104.985 247.38 104.985 247.38" stroke="#F99F1C" stroke-linecap="round"/>
<path d="M155.7 254.36L156.143 260.385C156.143 260.385 154.167 262.854 148.214 265.988C134.53 273.193 108.154 272.488 92.8755 270.093C84.1754 268.729 79.7902 263.668 79.7902 263.668L78.4096 257.297C78.4096 257.297 82.615 265.869 101.346 267.355C115.326 268.464 129.363 268.628 146.907 262.308C153.014 260.108 155.7 254.36 155.7 254.36Z" fill="#FFAC11"/>
<ellipse cx="302.546" cy="114.66" rx="38.5" ry="13" transform="rotate(-22.4722 302.546 114.66)" fill="#FFEC9E"/>
<path d="M304.045 104.16C304.045 104.16 318.61 98.307 326.045 99.1614C329.482 99.5564 330.184 99.4789 331.545 102.66C333.036 106.146 326.045 110.66 326.045 110.66" stroke="#F99F1C" stroke-linecap="round"/>
<path d="M288.547 127.16C288.547 127.16 280.146 129.559 276.547 128.66C274.545 128.16 273.003 127.618 272.544 125.16C271.758 120.95 288.547 111.66 288.547 111.66" stroke="#F99F1C" stroke-linecap="round"/>
<path d="M338.545 100.66L341.045 106.16C341.045 106.16 340.045 109.16 335.545 114.16C325.199 125.655 300.208 134.121 285.045 137.16C276.41 138.891 270.545 135.66 270.545 135.66L267.045 130.16C267.045 130.16 273.957 136.747 292.045 131.66C305.545 127.863 318.771 123.16 333.045 111.16C338.013 106.983 338.545 100.66 338.545 100.66Z" fill="#FFAC11"/>
<ellipse cx="166.363" cy="226.237" rx="38.5" ry="13" transform="rotate(-13.2764 166.363 226.237)" fill="#FFEC9E"/>
<path d="M169.52 216.112C169.52 216.112 184.833 212.662 192.036 214.693C195.366 215.633 196.071 215.668 196.906 219.026C197.821 222.705 190.198 226.044 190.198 226.044" stroke="#F99F1C" stroke-linecap="round"/>
<path d="M150.545 236.34C150.545 236.34 141.869 237.365 138.46 235.903C136.564 235.089 135.128 234.308 135.068 231.808C134.965 227.527 153.023 221.039 153.023 221.039" stroke="#F99F1C" stroke-linecap="round"/>
<path d="M204.136 218.17L205.725 223.999C205.725 223.999 204.258 226.801 199.017 231.017C186.967 240.712 160.945 245.074 145.49 245.652C136.69 245.98 131.416 241.854 131.416 241.854L128.84 235.865C128.84 235.865 134.611 243.472 153.279 241.341C167.213 239.75 181.02 237.221 197.028 227.657C202.6 224.327 204.136 218.17 204.136 218.17Z" fill="#FFAC11"/>
<ellipse cx="46.2299" cy="209.796" rx="38.5" ry="13" transform="rotate(-13.2764 46.2299 209.796)" fill="#FFEC9E"/>
<path d="M49.3867 199.67C49.3867 199.67 64.7 196.219 71.9029 198.251C75.233 199.19 75.9383 199.226 76.773 202.584C77.6877 206.263 70.0653 209.602 70.0653 209.602" stroke="#F99F1C" stroke-linecap="round"/>
<path d="M30.4125 219.898C30.4125 219.898 21.7365 220.924 18.3271 219.461C16.4309 218.648 14.9956 217.866 14.9354 215.366C14.8323 211.085 32.8901 204.597 32.8901 204.597" stroke="#F99F1C" stroke-linecap="round"/>
<path d="M84.003 201.728L85.5919 207.556C85.5919 207.556 84.1253 210.358 78.8841 214.575C66.8344 224.269 40.812 228.631 25.3575 229.209C16.5574 229.537 11.2836 225.411 11.2836 225.411L8.70754 219.422C8.70754 219.422 14.4777 227.029 33.1465 224.898C47.0798 223.307 60.8876 220.778 76.8957 211.214C82.4676 207.884 84.003 201.728 84.003 201.728Z" fill="#FFAC11"/>
<ellipse cx="117.082" cy="248.246" rx="38.5" ry="13" transform="rotate(-2.22802 117.082 248.246)" fill="#FFEC9E"/>
<path d="M122.122 238.913C122.122 238.913 137.812 238.461 144.492 241.835C147.581 243.396 148.266 243.566 148.442 247.021C148.635 250.808 140.514 252.624 140.514 252.624" stroke="#F99F1C" stroke-linecap="round"/>
<path d="M99.621 255.129C99.621 255.129 90.9092 254.474 87.8432 252.385C86.1381 251.223 84.8792 250.181 85.2991 247.716C86.0183 243.494 104.985 240.587 104.985 240.587" stroke="#F99F1C" stroke-linecap="round"/>
<path d="M155.7 247.567L156.143 253.592C156.143 253.592 154.167 256.061 148.214 259.195C134.53 266.4 108.154 265.695 92.8755 263.3C84.1754 261.936 79.7902 256.875 79.7902 256.875L78.4096 250.504C78.4096 250.504 82.615 259.076 101.346 260.562C115.326 261.671 129.363 261.835 146.907 255.515C153.014 253.316 155.7 247.567 155.7 247.567Z" fill="#FFAC11"/>
<ellipse cx="117.082" cy="242.039" rx="38.5" ry="13" transform="rotate(-2.22802 117.082 242.039)" fill="#FFEC9E"/>
<path d="M122.122 232.706C122.122 232.706 137.812 232.254 144.492 235.628C147.581 237.188 148.266 237.359 148.442 240.814C148.635 244.601 140.514 246.417 140.514 246.417" stroke="#F99F1C" stroke-linecap="round"/>
<path d="M99.621 248.922C99.621 248.922 90.9092 248.266 87.8432 246.178C86.1381 245.016 84.8792 243.974 85.2991 241.509C86.0183 237.287 104.985 234.38 104.985 234.38" stroke="#F99F1C" stroke-linecap="round"/>
<path d="M155.7 241.36L156.143 247.385C156.143 247.385 154.167 249.854 148.214 252.988C134.53 260.193 108.154 259.488 92.8755 257.093C84.1754 255.729 79.7902 250.668 79.7902 250.668L78.4096 244.297C78.4096 244.297 82.615 252.869 101.346 254.355C115.326 255.464 129.363 255.628 146.907 249.308C153.014 247.108 155.7 241.36 155.7 241.36Z" fill="#FFAC11"/>
<ellipse cx="117.082" cy="235.246" rx="38.5" ry="13" transform="rotate(-2.22802 117.082 235.246)" fill="#FFEC9E"/>
<path d="M122.122 225.913C122.122 225.913 137.812 225.461 144.492 228.835C147.581 230.396 148.266 230.566 148.442 234.021C148.635 237.808 140.514 239.624 140.514 239.624" stroke="#F99F1C" stroke-linecap="round"/>
<path d="M99.621 242.129C99.621 242.129 90.9092 241.474 87.8432 239.385C86.1381 238.223 84.8792 237.181 85.2991 234.716C86.0183 230.494 104.985 227.587 104.985 227.587" stroke="#F99F1C" stroke-linecap="round"/>
<path d="M155.7 234.567L156.143 240.592C156.143 240.592 154.167 243.061 148.214 246.195C134.53 253.4 108.154 252.695 92.8755 250.3C84.1754 248.936 79.7902 243.875 79.7902 243.875L78.4096 237.504C78.4096 237.504 82.615 246.076 101.346 247.562C115.326 248.671 129.363 248.835 146.907 242.515C153.014 240.316 155.7 234.567 155.7 234.567Z" fill="#FFAC11"/>
<ellipse cx="117.082" cy="229.039" rx="38.5" ry="13" transform="rotate(-2.22802 117.082 229.039)" fill="#FFEC9E"/>
<path d="M122.122 219.706C122.122 219.706 137.812 219.254 144.492 222.628C147.581 224.188 148.266 224.359 148.442 227.814C148.635 231.601 140.514 233.417 140.514 233.417" stroke="#F99F1C" stroke-linecap="round"/>
<path d="M99.621 235.922C99.621 235.922 90.9092 235.266 87.8432 233.178C86.1381 232.016 84.8792 230.974 85.2991 228.509C86.0183 224.287 104.985 221.38 104.985 221.38" stroke="#F99F1C" stroke-linecap="round"/>
<path d="M155.7 228.36L156.143 234.385C156.143 234.385 154.167 236.854 148.214 239.988C134.53 247.193 108.154 246.488 92.8755 244.093C84.1754 242.729 79.7902 237.668 79.7902 237.668L78.4096 231.297C78.4096 231.297 82.615 239.869 101.346 241.355C115.326 242.464 129.363 242.628 146.907 236.308C153.014 234.108 155.7 228.36 155.7 228.36Z" fill="#FFAC11"/>
<ellipse cx="117.082" cy="222.246" rx="38.5" ry="13" transform="rotate(-2.22802 117.082 222.246)" fill="#FFEC9E"/>
<path d="M122.122 212.913C122.122 212.913 137.812 212.461 144.492 215.835C147.581 217.396 148.266 217.566 148.442 221.021C148.635 224.808 140.514 226.624 140.514 226.624" stroke="#F99F1C" stroke-linecap="round"/>
<path d="M99.621 229.129C99.621 229.129 90.9092 228.474 87.8432 226.385C86.1381 225.223 84.8792 224.181 85.2991 221.716C86.0183 217.494 104.985 214.587 104.985 214.587" stroke="#F99F1C" stroke-linecap="round"/>
<path d="M155.7 221.567L156.143 227.592C156.143 227.592 154.167 230.061 148.214 233.195C134.53 240.4 108.154 239.695 92.8755 237.3C84.1754 235.936 79.7902 230.875 79.7902 230.875L78.4096 224.504C78.4096 224.504 82.615 233.076 101.346 234.562C115.326 235.671 129.363 235.835 146.907 229.515C153.014 227.316 155.7 221.567 155.7 221.567Z" fill="#FFAC11"/>
<ellipse cx="117.082" cy="216.039" rx="38.5" ry="13" transform="rotate(-2.22802 117.082 216.039)" fill="#FFEC9E"/>
<path d="M122.122 206.706C122.122 206.706 137.812 206.254 144.492 209.628C147.581 211.188 148.266 211.359 148.442 214.814C148.635 218.601 140.514 220.417 140.514 220.417" stroke="#F99F1C" stroke-linecap="round"/>
<path d="M99.621 222.922C99.621 222.922 90.9092 222.266 87.8432 220.178C86.1381 219.016 84.8792 217.974 85.2991 215.509C86.0183 211.287 104.985 208.38 104.985 208.38" stroke="#F99F1C" stroke-linecap="round"/>
<path d="M155.7 215.36L156.143 221.385C156.143 221.385 154.167 223.854 148.214 226.988C134.53 234.193 108.154 233.488 92.8755 231.093C84.1754 229.729 79.7902 224.668 79.7902 224.668L78.4096 218.297C78.4096 218.297 82.615 226.869 101.346 228.355C115.326 229.464 129.363 229.628 146.907 223.308C153.014 221.108 155.7 215.36 155.7 215.36Z" fill="#FFAC11"/>
<path d="M232.5 260.931C232.5 260.931 260.343 256.049 276.5 248.431C295.575 239.438 308.498 234.108 320 216.431C332.26 197.59 331 159.931 331 159.931" stroke="#F99F1C" stroke-width="6" stroke-linecap="round"/>
<defs>
<filter id="filter0_f_228_6063" x="264.3" y="130.231" width="88.4" height="37.4" filterUnits="userSpaceOnUse" color-interpolation-filters="sRGB">
<feFlood flood-opacity="0" result="BackgroundImageFix"/>
<feBlend mode="normal" in="SourceGraphic" in2="BackgroundImageFix" result="shape"/>
<feGaussianBlur stdDeviation="2.85" result="effect1_foregroundBlur_228_6063"/>
</filter>
<filter id="filter1_f_228_6063" x="125.3" y="229.231" width="88.4" height="37.4" filterUnits="userSpaceOnUse" color-interpolation-filters="sRGB">
<feFlood flood-opacity="0" result="BackgroundImageFix"/>
<feBlend mode="normal" in="SourceGraphic" in2="BackgroundImageFix" result="shape"/>
<feGaussianBlur stdDeviation="2.85" result="effect1_foregroundBlur_228_6063"/>
</filter>
<filter id="filter2_f_228_6063" x="23.3" y="233.231" width="88.4" height="37.4" filterUnits="userSpaceOnUse" color-interpolation-filters="sRGB">
<feFlood flood-opacity="0" result="BackgroundImageFix"/>
<feBlend mode="normal" in="SourceGraphic" in2="BackgroundImageFix" result="shape"/>
<feGaussianBlur stdDeviation="2.85" result="effect1_foregroundBlur_228_6063"/>
</filter>
</defs>
</svg>
