<svg width="33" height="33" viewBox="0 0 33 33" fill="none" xmlns="http://www.w3.org/2000/svg">
<mask id="path-1-inside-1_602_2510" fill="white">
<path d="M4.00728 0.474609C2.90623 0.474609 2.00413 1.37769 2.00413 2.47874V10.82C1.30132 11.0552 0.794739 11.5088 0.48416 12.0191C0.12011 12.6173 0 13.2745 0 13.8237V18.0853C0 18.9719 0.402209 20.0616 0.779546 21.1204C0.968252 21.6498 1.15442 22.163 1.29011 22.5914C1.42582 23.0198 1.50041 23.3827 1.50041 23.5079V25.4005C1.19503 25.676 1.00157 26.0738 1.00157 26.5136V31.0197C1.00157 31.8433 1.67935 32.525 2.50296 32.525H9.51594C10.3395 32.525 11.0163 31.8433 11.0163 31.0197V26.5136C11.0163 25.9198 10.6637 25.4026 10.1586 25.1599C10.2439 24.8175 10.4185 24.3471 10.6134 23.8003C10.8435 23.1545 11.0852 22.3872 11.1572 21.5087H20.4756L22.8191 26.1986C22.3535 26.4546 22.0356 26.9505 22.0356 27.5152V31.0197C22.0356 31.8433 22.7124 32.525 23.536 32.525H30.5451C31.3687 32.525 32.0504 31.8433 32.0504 31.0197V27.5152C32.0504 26.8923 31.6605 26.353 31.1143 26.1272C31.194 25.8548 31.3386 25.531 31.5066 25.1531C31.7626 24.5771 32.0504 23.8715 32.0504 23.0091C32.0504 16.1656 32.0504 9.32218 32.0504 2.47874C32.0504 1.37769 31.1473 0.474609 30.0463 0.474609L4.00728 0.474609ZM4.00728 1.47618H30.0463C30.6098 1.47618 31.0478 1.91521 31.0478 2.47874V17.0867C30.8902 17.0299 30.7209 16.9947 30.5451 16.9986C30.2835 17.0043 30.2108 17.0357 30.0463 17.0896V3.97914C30.0463 3.15552 29.3695 2.47874 28.5459 2.47874H5.50768C4.68408 2.47874 4.00728 3.15552 4.00728 3.97914V12.6774C3.97661 12.6641 3.94619 12.6498 3.91534 12.6373C3.62217 12.5182 3.30519 12.4714 3.0057 12.5297V2.47874C3.0057 1.91521 3.44373 1.47626 4.00728 1.47618ZM5.00885 13.588V3.97914C5.00885 3.69306 5.2216 3.48033 5.50768 3.48031H28.5459C28.8319 3.48031 29.0447 3.69306 29.0447 3.97914V16.5898C28.8891 16.5296 28.7341 16.4998 28.5459 16.4998C28.1335 16.4998 27.894 16.6455 27.8035 16.6925C27.6837 16.483 27.2836 16.013 26.5417 15.9971C26.2717 16.0122 26.2252 16.0285 26.039 16.0841V13.9978H27.5365C27.8134 13.9968 28.0369 13.771 28.0353 13.4941C28.0342 13.2191 27.8115 12.9963 27.5365 12.9953H26.039C26.039 12.1716 25.3622 11.491 24.5386 11.491C23.715 11.491 23.0333 12.1716 23.0333 12.9953H18.5272C18.2521 12.9963 18.0294 13.2191 18.0283 13.4941C18.0267 13.771 18.2502 13.9968 18.5272 13.9978H23.0333V18.636L22.4425 17.6129C21.9613 16.7796 20.8835 16.4881 20.0501 16.9693C19.4816 17.2975 19.1902 17.8938 19.1933 18.503H6.28527C6.05447 18.25 5.84559 18.0447 5.70819 17.8779C5.55204 17.6884 5.50768 17.5863 5.50768 17.5024V15.346C5.4863 14.6331 5.29696 14.0444 5.00885 13.588ZM24.5386 4.48189C23.715 4.48189 23.0333 5.15867 23.0333 5.98229H18.5272C18.2502 5.98339 18.0267 6.20905 18.0283 6.48601C18.0294 6.76105 18.2521 6.98377 18.5272 6.98485H23.0333C23.0333 7.80845 23.715 8.48525 24.5386 8.48525C25.3622 8.48525 26.039 7.80847 26.039 6.98485H27.5433C27.8183 6.98374 28.0411 6.76105 28.0421 6.48601C28.0438 6.20905 27.8203 5.98337 27.5433 5.98229H26.039C26.039 5.15867 25.3622 4.48189 24.5386 4.48189ZM24.5386 5.48346C24.8247 5.48346 25.0374 5.6962 25.0374 5.98229V6.98485C25.0374 7.27093 24.8247 7.48759 24.5386 7.48759C24.2525 7.48759 24.0349 7.27093 24.0349 6.98485V5.98229C24.0349 5.6962 24.2525 5.48346 24.5386 5.48346ZM11.5191 5.98229C8.48277 5.98229 6.0114 8.45462 6.0114 11.491V13.4941C6.0098 13.771 6.23329 13.9967 6.51024 13.9978H16.523C16.8019 13.9994 17.0284 13.773 17.0268 13.4941V11.491C17.0268 8.45462 14.5554 5.98229 11.5191 5.98229ZM11.0163 7.01223V7.48759C11.0174 7.76416 11.2425 7.9875 11.5191 7.98642C11.7941 7.98532 12.0169 7.76262 12.0179 7.48759V7.01223C12.8893 7.10763 13.6847 7.449 14.3331 7.96686L13.9956 8.3043C13.7988 8.50009 13.7988 8.81862 13.9956 9.0144C14.1914 9.21123 14.51 9.21123 14.7057 9.0144L15.0432 8.67696C15.561 9.32532 15.9015 10.1208 15.9968 10.9921H15.5264C15.2498 10.991 15.0247 11.2144 15.0236 11.491C15.0225 11.7691 15.2483 11.9948 15.5264 11.9937H16.0242V12.9953H13.5232C13.5232 12.4967 13.3373 12.0385 13.0322 11.6866L13.8744 10.8444C14.0686 10.6491 14.0686 10.3336 13.8744 10.1382C13.7814 10.0447 13.6551 9.99149 13.5232 9.99055C13.39 9.99057 13.2621 10.0438 13.1682 10.1382L12.192 11.1095C11.9814 11.0336 11.7547 10.9921 11.5191 10.9921C10.4187 10.9921 9.51594 11.8949 9.51594 12.9953H7.01298V11.9937H7.51181C7.78838 11.9926 8.01174 11.7675 8.01064 11.491C8.00959 11.2159 7.78686 10.9932 7.51181 10.9921H7.04037C7.13576 10.1208 7.47712 9.32532 7.99499 8.67696L8.33244 9.0144C8.52777 9.20862 8.8433 9.20862 9.03863 9.0144C9.23543 8.81862 9.23543 8.50009 9.03863 8.3043L8.70314 7.96881C9.35093 7.45075 10.1456 7.10823 11.0163 7.01223ZM20.5303 7.98642C19.7067 7.98642 19.0299 8.6632 19.0299 9.48683H18.5272C18.2502 9.48793 18.0267 9.71358 18.0283 9.99055C18.0294 10.2656 18.2521 10.4883 18.5272 10.4894H19.0299C19.0299 11.313 19.7067 11.9937 20.5303 11.9937C21.354 11.9937 22.0356 11.313 22.0356 10.4894H27.5433C27.8183 10.4883 28.0411 10.2656 28.0421 9.99055C28.0438 9.71358 27.8203 9.4879 27.5433 9.48683H22.0356C22.0356 8.6632 21.354 7.98642 20.5303 7.98642ZM20.5303 8.988C20.8164 8.988 21.034 9.20074 21.034 9.48683V10.4894C21.034 10.7755 20.8164 10.9921 20.5303 10.9921C20.2442 10.9921 20.0315 10.7755 20.0315 10.4894V9.48683C20.0315 9.20074 20.2442 8.988 20.5303 8.988ZM2.00413 11.8988V17.5043C2.00466 17.7797 2.22755 18.003 2.50296 18.0041C2.77992 18.0052 3.00517 17.7813 3.0057 17.5043V13.8492C3.0057 13.6085 3.06008 13.5741 3.12405 13.5391C3.18803 13.5041 3.33653 13.4828 3.53779 13.5645C3.94026 13.7281 4.4731 14.2769 4.50611 15.3681V17.5014C4.50611 17.9182 4.717 18.2525 4.93549 18.5176C5.15399 18.7827 5.40198 19.0141 5.63386 19.2757C6.0976 19.7987 6.5077 20.3927 6.51024 21.5087C6.51134 21.7852 6.73641 22.0086 7.01298 22.0075C7.28803 22.0064 7.51073 21.7837 7.51181 21.5087H10.1517C10.0828 22.2212 9.8826 22.8687 9.67048 23.4639C9.472 24.0208 9.33841 24.5098 9.24207 25.0132H2.50296V23.5079C2.50296 23.1323 2.39374 22.7492 2.24767 22.2882C2.10174 21.8272 1.90934 21.3123 1.72243 20.7878C1.34862 19.7389 1.00157 18.6187 1.00157 18.0853V13.8237C1.00157 13.4286 1.09717 12.9333 1.33804 12.5375C1.49438 12.2806 1.70197 12.0587 2.00413 11.8988ZM11.5191 11.9937C12.0782 11.9937 12.5207 12.4362 12.5207 12.9953H10.5175C10.5175 12.4362 10.96 11.9937 11.5191 11.9937ZM25.0374 12.9953V19.5045C25.0526 20.1576 26.0245 20.1576 26.039 19.5045V17.5014C26.039 17.2153 26.2556 16.9977 26.5417 16.9977C26.8278 16.9977 27.0406 17.2153 27.0406 17.5014V19.5045C27.0557 20.1576 28.0276 20.1576 28.0421 19.5045V18.0002C28.0421 17.7141 28.2598 17.5014 28.5459 17.5014C28.8319 17.5014 29.0447 17.7141 29.0447 18.0002V19.5045C29.0598 20.1576 30.0318 20.1576 30.0463 19.5045V18.503C30.0463 18.2169 30.259 18.0002 30.5451 18.0002C30.8312 18.0002 31.0478 18.2169 31.0478 18.503V23.0091C31.0478 23.6489 30.8349 24.1954 30.5901 24.7462C30.409 25.1537 30.1983 25.5606 30.101 26.0148H23.8461L20.2907 18.8913C20.0844 18.4781 20.1815 18.049 20.5489 17.8369C20.9168 17.6245 21.3645 17.743 21.5769 18.1107L23.1037 20.7536C23.3616 21.187 24.0261 21.0104 24.0349 20.5061C24.0349 18.0035 24.0349 15.4953 24.0349 12.9953C24.0349 12.7092 24.2525 12.4926 24.5386 12.4925C24.8247 12.4925 25.0374 12.7092 25.0374 12.9953ZM7.01689 19.5045H19.475L19.9748 20.5061H7.39737C7.30823 20.1273 7.17446 19.7953 7.01689 19.5045ZM2.50296 26.0148H9.51594C9.80201 26.0148 10.0148 26.2275 10.0148 26.5136V31.0197C10.0148 31.3058 9.80201 31.5224 9.51594 31.5224H2.50296C2.21689 31.5224 2.00413 31.3058 2.00413 31.0197V26.5136C2.00413 26.2275 2.21689 26.0148 2.50296 26.0148ZM23.536 27.0163H30.5451C30.8312 27.0163 31.0478 27.2291 31.0478 27.5152V31.0197C31.0478 31.3058 30.8312 31.5224 30.5451 31.5224H23.536C23.2499 31.5224 23.0333 31.3058 23.0333 31.0197V27.5152C23.0333 27.2291 23.2499 27.0163 23.536 27.0163Z"/>
</mask>
<path d="M4.00728 0.474609C2.90623 0.474609 2.00413 1.37769 2.00413 2.47874V10.82C1.30132 11.0552 0.794739 11.5088 0.48416 12.0191C0.12011 12.6173 0 13.2745 0 13.8237V18.0853C0 18.9719 0.402209 20.0616 0.779546 21.1204C0.968252 21.6498 1.15442 22.163 1.29011 22.5914C1.42582 23.0198 1.50041 23.3827 1.50041 23.5079V25.4005C1.19503 25.676 1.00157 26.0738 1.00157 26.5136V31.0197C1.00157 31.8433 1.67935 32.525 2.50296 32.525H9.51594C10.3395 32.525 11.0163 31.8433 11.0163 31.0197V26.5136C11.0163 25.9198 10.6637 25.4026 10.1586 25.1599C10.2439 24.8175 10.4185 24.3471 10.6134 23.8003C10.8435 23.1545 11.0852 22.3872 11.1572 21.5087H20.4756L22.8191 26.1986C22.3535 26.4546 22.0356 26.9505 22.0356 27.5152V31.0197C22.0356 31.8433 22.7124 32.525 23.536 32.525H30.5451C31.3687 32.525 32.0504 31.8433 32.0504 31.0197V27.5152C32.0504 26.8923 31.6605 26.353 31.1143 26.1272C31.194 25.8548 31.3386 25.531 31.5066 25.1531C31.7626 24.5771 32.0504 23.8715 32.0504 23.0091C32.0504 16.1656 32.0504 9.32218 32.0504 2.47874C32.0504 1.37769 31.1473 0.474609 30.0463 0.474609L4.00728 0.474609ZM4.00728 1.47618H30.0463C30.6098 1.47618 31.0478 1.91521 31.0478 2.47874V17.0867C30.8902 17.0299 30.7209 16.9947 30.5451 16.9986C30.2835 17.0043 30.2108 17.0357 30.0463 17.0896V3.97914C30.0463 3.15552 29.3695 2.47874 28.5459 2.47874H5.50768C4.68408 2.47874 4.00728 3.15552 4.00728 3.97914V12.6774C3.97661 12.6641 3.94619 12.6498 3.91534 12.6373C3.62217 12.5182 3.30519 12.4714 3.0057 12.5297V2.47874C3.0057 1.91521 3.44373 1.47626 4.00728 1.47618ZM5.00885 13.588V3.97914C5.00885 3.69306 5.2216 3.48033 5.50768 3.48031H28.5459C28.8319 3.48031 29.0447 3.69306 29.0447 3.97914V16.5898C28.8891 16.5296 28.7341 16.4998 28.5459 16.4998C28.1335 16.4998 27.894 16.6455 27.8035 16.6925C27.6837 16.483 27.2836 16.013 26.5417 15.9971C26.2717 16.0122 26.2252 16.0285 26.039 16.0841V13.9978H27.5365C27.8134 13.9968 28.0369 13.771 28.0353 13.4941C28.0342 13.2191 27.8115 12.9963 27.5365 12.9953H26.039C26.039 12.1716 25.3622 11.491 24.5386 11.491C23.715 11.491 23.0333 12.1716 23.0333 12.9953H18.5272C18.2521 12.9963 18.0294 13.2191 18.0283 13.4941C18.0267 13.771 18.2502 13.9968 18.5272 13.9978H23.0333V18.636L22.4425 17.6129C21.9613 16.7796 20.8835 16.4881 20.0501 16.9693C19.4816 17.2975 19.1902 17.8938 19.1933 18.503H6.28527C6.05447 18.25 5.84559 18.0447 5.70819 17.8779C5.55204 17.6884 5.50768 17.5863 5.50768 17.5024V15.346C5.4863 14.6331 5.29696 14.0444 5.00885 13.588ZM24.5386 4.48189C23.715 4.48189 23.0333 5.15867 23.0333 5.98229H18.5272C18.2502 5.98339 18.0267 6.20905 18.0283 6.48601C18.0294 6.76105 18.2521 6.98377 18.5272 6.98485H23.0333C23.0333 7.80845 23.715 8.48525 24.5386 8.48525C25.3622 8.48525 26.039 7.80847 26.039 6.98485H27.5433C27.8183 6.98374 28.0411 6.76105 28.0421 6.48601C28.0438 6.20905 27.8203 5.98337 27.5433 5.98229H26.039C26.039 5.15867 25.3622 4.48189 24.5386 4.48189ZM24.5386 5.48346C24.8247 5.48346 25.0374 5.6962 25.0374 5.98229V6.98485C25.0374 7.27093 24.8247 7.48759 24.5386 7.48759C24.2525 7.48759 24.0349 7.27093 24.0349 6.98485V5.98229C24.0349 5.6962 24.2525 5.48346 24.5386 5.48346ZM11.5191 5.98229C8.48277 5.98229 6.0114 8.45462 6.0114 11.491V13.4941C6.0098 13.771 6.23329 13.9967 6.51024 13.9978H16.523C16.8019 13.9994 17.0284 13.773 17.0268 13.4941V11.491C17.0268 8.45462 14.5554 5.98229 11.5191 5.98229ZM11.0163 7.01223V7.48759C11.0174 7.76416 11.2425 7.9875 11.5191 7.98642C11.7941 7.98532 12.0169 7.76262 12.0179 7.48759V7.01223C12.8893 7.10763 13.6847 7.449 14.3331 7.96686L13.9956 8.3043C13.7988 8.50009 13.7988 8.81862 13.9956 9.0144C14.1914 9.21123 14.51 9.21123 14.7057 9.0144L15.0432 8.67696C15.561 9.32532 15.9015 10.1208 15.9968 10.9921H15.5264C15.2498 10.991 15.0247 11.2144 15.0236 11.491C15.0225 11.7691 15.2483 11.9948 15.5264 11.9937H16.0242V12.9953H13.5232C13.5232 12.4967 13.3373 12.0385 13.0322 11.6866L13.8744 10.8444C14.0686 10.6491 14.0686 10.3336 13.8744 10.1382C13.7814 10.0447 13.6551 9.99149 13.5232 9.99055C13.39 9.99057 13.2621 10.0438 13.1682 10.1382L12.192 11.1095C11.9814 11.0336 11.7547 10.9921 11.5191 10.9921C10.4187 10.9921 9.51594 11.8949 9.51594 12.9953H7.01298V11.9937H7.51181C7.78838 11.9926 8.01174 11.7675 8.01064 11.491C8.00959 11.2159 7.78686 10.9932 7.51181 10.9921H7.04037C7.13576 10.1208 7.47712 9.32532 7.99499 8.67696L8.33244 9.0144C8.52777 9.20862 8.8433 9.20862 9.03863 9.0144C9.23543 8.81862 9.23543 8.50009 9.03863 8.3043L8.70314 7.96881C9.35093 7.45075 10.1456 7.10823 11.0163 7.01223ZM20.5303 7.98642C19.7067 7.98642 19.0299 8.6632 19.0299 9.48683H18.5272C18.2502 9.48793 18.0267 9.71358 18.0283 9.99055C18.0294 10.2656 18.2521 10.4883 18.5272 10.4894H19.0299C19.0299 11.313 19.7067 11.9937 20.5303 11.9937C21.354 11.9937 22.0356 11.313 22.0356 10.4894H27.5433C27.8183 10.4883 28.0411 10.2656 28.0421 9.99055C28.0438 9.71358 27.8203 9.4879 27.5433 9.48683H22.0356C22.0356 8.6632 21.354 7.98642 20.5303 7.98642ZM20.5303 8.988C20.8164 8.988 21.034 9.20074 21.034 9.48683V10.4894C21.034 10.7755 20.8164 10.9921 20.5303 10.9921C20.2442 10.9921 20.0315 10.7755 20.0315 10.4894V9.48683C20.0315 9.20074 20.2442 8.988 20.5303 8.988ZM2.00413 11.8988V17.5043C2.00466 17.7797 2.22755 18.003 2.50296 18.0041C2.77992 18.0052 3.00517 17.7813 3.0057 17.5043V13.8492C3.0057 13.6085 3.06008 13.5741 3.12405 13.5391C3.18803 13.5041 3.33653 13.4828 3.53779 13.5645C3.94026 13.7281 4.4731 14.2769 4.50611 15.3681V17.5014C4.50611 17.9182 4.717 18.2525 4.93549 18.5176C5.15399 18.7827 5.40198 19.0141 5.63386 19.2757C6.0976 19.7987 6.5077 20.3927 6.51024 21.5087C6.51134 21.7852 6.73641 22.0086 7.01298 22.0075C7.28803 22.0064 7.51073 21.7837 7.51181 21.5087H10.1517C10.0828 22.2212 9.8826 22.8687 9.67048 23.4639C9.472 24.0208 9.33841 24.5098 9.24207 25.0132H2.50296V23.5079C2.50296 23.1323 2.39374 22.7492 2.24767 22.2882C2.10174 21.8272 1.90934 21.3123 1.72243 20.7878C1.34862 19.7389 1.00157 18.6187 1.00157 18.0853V13.8237C1.00157 13.4286 1.09717 12.9333 1.33804 12.5375C1.49438 12.2806 1.70197 12.0587 2.00413 11.8988ZM11.5191 11.9937C12.0782 11.9937 12.5207 12.4362 12.5207 12.9953H10.5175C10.5175 12.4362 10.96 11.9937 11.5191 11.9937ZM25.0374 12.9953V19.5045C25.0526 20.1576 26.0245 20.1576 26.039 19.5045V17.5014C26.039 17.2153 26.2556 16.9977 26.5417 16.9977C26.8278 16.9977 27.0406 17.2153 27.0406 17.5014V19.5045C27.0557 20.1576 28.0276 20.1576 28.0421 19.5045V18.0002C28.0421 17.7141 28.2598 17.5014 28.5459 17.5014C28.8319 17.5014 29.0447 17.7141 29.0447 18.0002V19.5045C29.0598 20.1576 30.0318 20.1576 30.0463 19.5045V18.503C30.0463 18.2169 30.259 18.0002 30.5451 18.0002C30.8312 18.0002 31.0478 18.2169 31.0478 18.503V23.0091C31.0478 23.6489 30.8349 24.1954 30.5901 24.7462C30.409 25.1537 30.1983 25.5606 30.101 26.0148H23.8461L20.2907 18.8913C20.0844 18.4781 20.1815 18.049 20.5489 17.8369C20.9168 17.6245 21.3645 17.743 21.5769 18.1107L23.1037 20.7536C23.3616 21.187 24.0261 21.0104 24.0349 20.5061C24.0349 18.0035 24.0349 15.4953 24.0349 12.9953C24.0349 12.7092 24.2525 12.4926 24.5386 12.4925C24.8247 12.4925 25.0374 12.7092 25.0374 12.9953ZM7.01689 19.5045H19.475L19.9748 20.5061H7.39737C7.30823 20.1273 7.17446 19.7953 7.01689 19.5045ZM2.50296 26.0148H9.51594C9.80201 26.0148 10.0148 26.2275 10.0148 26.5136V31.0197C10.0148 31.3058 9.80201 31.5224 9.51594 31.5224H2.50296C2.21689 31.5224 2.00413 31.3058 2.00413 31.0197V26.5136C2.00413 26.2275 2.21689 26.0148 2.50296 26.0148ZM23.536 27.0163H30.5451C30.8312 27.0163 31.0478 27.2291 31.0478 27.5152V31.0197C31.0478 31.3058 30.8312 31.5224 30.5451 31.5224H23.536C23.2499 31.5224 23.0333 31.3058 23.0333 31.0197V27.5152C23.0333 27.2291 23.2499 27.0163 23.536 27.0163Z" fill="white" stroke="url(#paint0_linear_602_2510)" stroke-width="16.0252" mask="url(#path-1-inside-1_602_2510)"/>
<defs>
<linearGradient id="paint0_linear_602_2510" x1="-6.13476" y1="1.8833" x2="30.6185" y2="1.8308" gradientUnits="userSpaceOnUse">
<stop offset="0.140625" stop-color="#570DE6"/>
<stop offset="1" stop-color="#01B7AB"/>
</linearGradient>
</defs>
</svg>
