<svg width="448" height="653" viewBox="0 0 448 653" fill="none" xmlns="http://www.w3.org/2000/svg">
<path d="M418.158 82.3621L212.158 16.6403C186.354 8.4079 160 27.6626 160 54.7479V426.107C160 442.686 170.228 457.547 185.713 463.468L391.713 542.241C417.902 552.255 446 532.918 446 504.88V120.47C446 103.062 434.742 87.653 418.158 82.3621Z" fill="#EFF8B7"/>
<path fill-rule="evenodd" clip-rule="evenodd" d="M409.479 91.7561V78.1239C409.479 76.7975 416.844 80.5661 424.03 84.5584C432.808 89.4358 439.129 97.7144 441.964 107.348L445.074 117.912C446.153 121.58 446.701 125.368 446.701 129.192V152.016C447.105 154.302 447.317 156.662 447.317 159.082V505.767C447.317 523.575 435.544 539.238 418.438 544.189L51.1217 650.511C25.5392 657.916 0 638.721 0 612.089V250.519C0 232.149 12.5119 216.141 30.3376 211.703L393.435 121.317C404.016 116.671 409.479 103.99 409.479 91.7561Z" fill="#D6ED45" fill-opacity="0.44"/>
</svg>
