<svg width="1512" height="1017" viewBox="0 0 1512 1017" fill="none" xmlns="http://www.w3.org/2000/svg">
<path d="M1.5 4C1.5 4 150 61.5 290.5 28C413.74 -1.38466 498.006 33.2617 607.5 97C722.706 164.063 755.554 245.101 831 355C899.495 454.774 890.577 544.908 979.5 627C1056.82 698.377 1119.91 716.611 1220.5 747.5C1329.16 780.866 1509.5 782 1509.5 782" stroke="#BEE9FD" stroke-opacity="0.25" stroke-width="7" stroke-dasharray="14 14"/>
<path d="M1.5 89.25C1.5 89.25 147.243 146.75 285.134 113.25C406.086 83.8653 488.787 118.512 596.248 182.25C709.315 249.313 741.553 330.351 815.598 440.25C882.822 540.024 874.069 630.158 961.341 712.25C1037.22 783.627 1099.14 801.861 1197.87 832.75C1304.5 866.116 1510.5 868.5 1510.5 868.5" stroke="#BEE9FD" stroke-opacity="0.25" stroke-width="7" stroke-dasharray="14 14"/>
<path d="M1.5 174C1.5 174 141.334 231.5 273.635 198C389.684 168.615 469.032 203.262 572.137 267C680.619 334.063 711.551 415.101 782.594 525C847.092 624.774 838.695 714.908 922.428 797C995.232 868.377 1054.65 886.611 1149.36 917.5C1251.68 950.866 1509 951 1509 951" stroke="#BEE9FD" stroke-opacity="0.25" stroke-width="7" stroke-dasharray="14 14"/>
<path d="M1.5 46.75C1.5 46.75 147.046 104.25 284.751 70.75C405.539 41.3653 488.128 76.0117 595.444 139.75C708.358 206.813 740.553 287.851 814.498 397.75C881.631 497.524 872.89 587.658 960.044 669.75C1035.82 741.127 1097.66 759.361 1196.25 790.25C1302.74 823.616 1510 823.5 1510 823.5" stroke="#BEE9FD" stroke-opacity="0.25" stroke-width="7" stroke-dasharray="14 14"/>
<path d="M1.5 132.25C1.5 132.25 144.334 189.731 279.474 156.242C398.012 126.867 479.063 161.502 584.38 225.218C695.19 292.259 726.785 373.27 799.352 483.131C865.234 582.871 856.656 672.975 942.187 755.039C1016.55 826.391 1077.24 844.619 1173.99 875.498C1278.5 908.853 1511 910.5 1511 910.5" stroke="#BEE9FD" stroke-opacity="0.25" stroke-width="7" stroke-dasharray="14 14"/>
<path d="M1.5 217C1.5 217 138.524 274.481 268.166 240.992C381.883 211.617 459.636 246.252 560.669 309.968C666.972 377.009 697.282 458.02 766.897 567.881C830.099 667.621 821.87 757.725 903.921 839.789C975.262 911.141 1033.48 929.369 1126.3 960.248C1226.56 993.603 1508 992 1508 992" stroke="#BEE9FD" stroke-opacity="0.25" stroke-width="7" stroke-dasharray="14 14"/>
<path d="M2 24C2 24 148.924 81.5 287.934 48C409.866 18.6153 493.238 53.2617 601.57 117C715.554 184.063 748.053 265.101 822.699 375C890.467 474.774 881.644 564.908 969.623 647C1046.12 718.377 1108.54 736.611 1208.07 767.5C1315.57 800.866 1507.5 801.5 1507.5 801.5" stroke="#BEE9FD" stroke-opacity="0.25" stroke-width="7" stroke-dasharray="14 14"/>
<path d="M1.5 109.25C1.5 109.25 145.741 166.713 282.211 133.235C401.916 103.869 483.764 138.493 590.118 202.19C702.02 269.21 733.926 350.196 807.208 460.024C873.738 559.734 865.076 649.81 951.448 731.849C1026.55 803.18 1087.83 821.402 1185.54 852.272C1291.07 885.617 1511 889 1511 889" stroke="#BEE9FD" stroke-opacity="0.25" stroke-width="7" stroke-dasharray="14 14"/>
<path d="M1.5 194C1.5 194 139.885 251.463 270.815 217.985C385.661 188.619 464.187 223.243 566.223 286.94C673.582 353.96 704.193 434.946 774.5 544.774C838.329 644.484 830.019 734.56 912.885 816.599C984.934 887.93 1043.73 906.152 1137.47 937.022C1238.72 970.367 1510.5 970.5 1510.5 970.5" stroke="#BEE9FD" stroke-opacity="0.25" stroke-width="7" stroke-dasharray="14 14"/>
<path d="M1.5 66.75C1.5 66.75 145.545 124.287 281.831 90.7654C401.374 61.3619 483.112 96.0305 589.322 159.81C701.072 226.916 732.935 308.006 806.117 417.976C872.558 517.814 863.907 608.006 950.163 690.151C1025.16 761.573 1086.36 779.819 1183.93 810.728C1289.33 844.116 1509 847.5 1509 847.5" stroke="#BEE9FD" stroke-opacity="0.25" stroke-width="7" stroke-dasharray="14 14"/>
<path d="M1.5 152.25C1.5 152.25 142.858 209.732 276.602 176.242C393.915 146.867 474.128 181.502 578.356 245.221C688.022 312.262 719.29 393.275 791.108 503.139C856.309 602.881 847.82 692.986 932.466 775.053C1006.06 846.407 1066.12 864.635 1161.88 895.514C1265.31 928.87 1509 931.5 1509 931.5" stroke="#BEE9FD" stroke-opacity="0.25" stroke-width="7" stroke-dasharray="14 14"/>
<path d="M1.5 237C1.5 237 137.1 294.482 265.396 260.992C377.931 231.617 454.876 266.252 554.859 329.971C660.057 397.012 690.052 478.025 758.945 587.889C821.49 687.631 813.346 777.736 894.545 859.803C965.145 931.157 1022.76 949.385 1114.61 980.264C1213.83 1013.62 1506.5 1013 1506.5 1013" stroke="#BEE9FD" stroke-opacity="0.25" stroke-width="7" stroke-dasharray="14 14"/>
</svg>
