<svg width="32" height="32" viewBox="0 0 32 32" fill="none" xmlns="http://www.w3.org/2000/svg">
<path d="M31.8769 18.0952C30.8506 25.9421 24.1386 32.0005 16.0127 32.0005C7.88672 32.0005 1.17659 25.9439 0.148438 18.0989C2.08863 17.494 4.29849 16.9977 6.70687 16.6381C8.41671 16.3816 10.2258 16.1943 12.1079 16.0838C13.3814 16.0108 14.6886 15.9714 16.022 15.9714C22.0879 15.9733 27.6294 16.773 31.8769 18.0952Z" fill="#268B43"/>
<path d="M32 16.0009C32 16.7088 31.9551 17.4074 31.8652 18.0909C29.9924 17.3025 27.76 16.6564 25.2693 16.1901C22.4657 15.6676 19.3326 15.3754 16.0084 15.3754C12.6374 15.3754 9.47808 15.6751 6.65208 16.2126C4.20437 16.677 2.00573 17.3194 0.136711 18.0984C0.0468184 17.413 0 16.7126 0 16.0009C0 7.16334 7.16334 0 16.0009 0C24.8385 0 32 7.16334 32 16.0009Z" fill="#268B43"/>
<path d="M23.1819 19.3914H21.2754C20.7267 19.3914 20.2267 19.6816 19.9495 20.1405C19.1948 21.3765 17.9662 21.8747 16.3575 21.8747C14.8275 21.8747 13.4322 21.1836 12.715 19.8015C12.6476 19.6723 12.5858 19.5393 12.5296 19.4045C12.2356 18.6928 11.9977 17.8651 11.994 17.0897C11.9921 16.865 11.9827 16.6478 12.0352 16.4286C12.0595 16.3294 12.0707 16.2077 12.0988 16.1103C12.1007 16.1065 12.1026 16.099 12.1063 16.0897C10.2242 16.2002 8.4151 16.3874 6.70526 16.644C7.16409 21.9009 11.0164 25.7494 16.4718 25.7494C19.7847 25.7494 23.0021 24.2737 24.5172 21.5544C25.064 20.5731 24.3355 19.3914 23.1819 19.3914ZM16.2077 6.12842C10.1605 6.12842 6.66406 10.4751 6.66406 16.1402C6.66406 16.1646 6.66406 16.1889 6.66406 16.2133C9.49194 15.6758 12.6513 15.3762 16.0204 15.3762C19.3446 15.3762 22.4777 15.6683 25.2813 16.1908C25.3225 16.0522 25.3337 15.8968 25.3337 15.7001C25.3337 10.0406 22.1762 6.12842 16.2077 6.12842ZM18.3427 13.9828H14.0446C12.876 13.9828 12.1531 12.7767 12.7206 11.7954C13.3742 10.6718 14.5597 9.8571 16.1665 9.8571C17.9587 9.8571 19.1442 10.6811 19.7322 11.9228C20.1892 12.8872 19.4457 13.9828 18.3427 13.9828Z" fill="white"/>
<path d="M27.6543 23.3412C28.761 23.3412 29.6581 22.4441 29.6581 21.3374C29.6581 20.2307 28.761 19.3335 27.6543 19.3335C26.5475 19.3335 25.6504 20.2307 25.6504 21.3374C25.6504 22.4441 26.5475 23.3412 27.6543 23.3412Z" fill="white"/>
</svg>
