<svg width="56" height="56" viewBox="0 0 56 56" fill="none" xmlns="http://www.w3.org/2000/svg">
<circle cx="28" cy="28" r="28" fill="#F8E9E9"/>
<path d="M37.8574 38.296L32.9686 31.1505L28.6133 30.5211L26.443 33.1876C28.1072 35.4841 31.2919 40.4749 31.9742 41.2502C32.3827 41.7143 32.4658 41.6922 32.6386 41.6654C32.8114 41.6387 33.0313 41.3446 33.0313 41.3446L33.9119 38.4601L37.2893 38.9607C37.2893 38.9607 37.7143 38.9302 37.8295 38.7323C37.9155 38.5848 37.8574 38.296 37.8574 38.296Z" fill="#018CB7" stroke="#F8E9E9"/>
<path d="M17.5251 37.7369L23.0971 31.1104L27.4933 30.9151L29.389 33.7833C27.5057 35.9038 23.8427 40.5549 23.087 41.2589C22.6346 41.6803 22.5541 41.65 22.3848 41.6063C22.2155 41.5626 22.0257 41.2482 22.0257 41.2482L21.4349 38.2907L18.0246 38.4545C18.0246 38.4545 17.6047 38.3822 17.5096 38.1738C17.4387 38.0185 17.5251 37.7369 17.5251 37.7369Z" fill="#018CB7" stroke="#F8E9E9"/>
<mask id="path-4-outside-1_1_440" maskUnits="userSpaceOnUse" x="15" y="13" width="25" height="25" fill="black">
<rect fill="white" x="15" y="13" width="25" height="25"/>
<path fill-rule="evenodd" clip-rule="evenodd" d="M29.3507 15.0522C28.5821 13.6493 26.5669 13.6493 25.7983 15.0522C25.2835 15.992 24.1258 16.3681 23.157 15.9105C21.7105 15.2272 20.0801 16.4117 20.283 17.9985C20.4189 19.0614 19.7034 20.0461 18.6506 20.2453C17.0788 20.5427 16.456 22.4594 17.5528 23.6239C18.2875 24.4039 18.2875 25.6211 17.5528 26.4011C16.456 27.5656 17.0788 29.4823 18.6506 29.7797C19.7034 29.9789 20.4189 30.9637 20.283 32.0265C20.0801 33.6133 21.7105 34.7979 23.157 34.1146C24.1258 33.6569 25.2835 34.0331 25.7983 34.9728C26.5669 36.3758 28.5821 36.3758 29.3507 34.9728C29.8655 34.0331 31.0232 33.6569 31.992 34.1146C33.4385 34.7979 35.0689 33.6133 34.866 32.0265C34.7301 30.9637 35.4456 29.9789 36.4984 29.7797C38.0702 29.4823 38.693 27.5656 37.5962 26.4011C36.8615 25.6211 36.8615 24.4039 37.5962 23.6239C38.693 22.4594 38.0702 20.5427 36.4984 20.2453C35.4456 20.0461 34.7301 19.0614 34.866 17.9985C35.0689 16.4117 33.4385 15.2272 31.992 15.9105C31.0232 16.3681 29.8655 15.992 29.3507 15.0522ZM27.6623 31.5705C31.2357 31.5705 34.1325 28.6737 34.1325 25.1003C34.1325 21.527 31.2357 18.6302 27.6623 18.6302C24.0889 18.6302 21.1921 21.527 21.1921 25.1003C21.1921 28.6737 24.0889 31.5705 27.6623 31.5705Z"/>
</mask>
<path fill-rule="evenodd" clip-rule="evenodd" d="M29.3507 15.0522C28.5821 13.6493 26.5669 13.6493 25.7983 15.0522C25.2835 15.992 24.1258 16.3681 23.157 15.9105C21.7105 15.2272 20.0801 16.4117 20.283 17.9985C20.4189 19.0614 19.7034 20.0461 18.6506 20.2453C17.0788 20.5427 16.456 22.4594 17.5528 23.6239C18.2875 24.4039 18.2875 25.6211 17.5528 26.4011C16.456 27.5656 17.0788 29.4823 18.6506 29.7797C19.7034 29.9789 20.4189 30.9637 20.283 32.0265C20.0801 33.6133 21.7105 34.7979 23.157 34.1146C24.1258 33.6569 25.2835 34.0331 25.7983 34.9728C26.5669 36.3758 28.5821 36.3758 29.3507 34.9728C29.8655 34.0331 31.0232 33.6569 31.992 34.1146C33.4385 34.7979 35.0689 33.6133 34.866 32.0265C34.7301 30.9637 35.4456 29.9789 36.4984 29.7797C38.0702 29.4823 38.693 27.5656 37.5962 26.4011C36.8615 25.6211 36.8615 24.4039 37.5962 23.6239C38.693 22.4594 38.0702 20.5427 36.4984 20.2453C35.4456 20.0461 34.7301 19.0614 34.866 17.9985C35.0689 16.4117 33.4385 15.2272 31.992 15.9105C31.0232 16.3681 29.8655 15.992 29.3507 15.0522ZM27.6623 31.5705C31.2357 31.5705 34.1325 28.6737 34.1325 25.1003C34.1325 21.527 31.2357 18.6302 27.6623 18.6302C24.0889 18.6302 21.1921 21.527 21.1921 25.1003C21.1921 28.6737 24.0889 31.5705 27.6623 31.5705Z" fill="#018CB7"/>
<path d="M25.7983 15.0522L26.6753 15.5327L26.6753 15.5327L25.7983 15.0522ZM29.3507 15.0522L28.4737 15.5327V15.5327L29.3507 15.0522ZM23.157 15.9105L23.5841 15.0063L23.5841 15.0063L23.157 15.9105ZM20.283 17.9985L19.2911 18.1253V18.1253L20.283 17.9985ZM18.6506 20.2453L18.4647 19.2628H18.4647L18.6506 20.2453ZM17.5528 23.6239L16.8249 24.3095H16.8249L17.5528 23.6239ZM17.5528 26.4011L18.2808 27.0868H18.2808L17.5528 26.4011ZM18.6506 29.7797L18.4647 30.7623H18.4647L18.6506 29.7797ZM20.283 32.0265L19.2911 31.8997L20.283 32.0265ZM23.157 34.1146L22.7299 33.2104H22.7299L23.157 34.1146ZM25.7983 34.9728L26.6753 34.4923H26.6753L25.7983 34.9728ZM29.3507 34.9728L28.4737 34.4923L29.3507 34.9728ZM31.992 34.1146L32.4191 33.2104H32.4191L31.992 34.1146ZM34.866 32.0265L35.8579 31.8997V31.8997L34.866 32.0265ZM36.4984 29.7797L36.3125 28.7971L36.4984 29.7797ZM37.5962 26.4011L36.8682 27.0868L37.5962 26.4011ZM37.5962 23.6239L36.8682 22.9383L37.5962 23.6239ZM36.4984 20.2453L36.6843 19.2628L36.4984 20.2453ZM34.866 17.9985L35.8579 18.1253V18.1253L34.866 17.9985ZM31.992 15.9105L32.4191 16.8146H32.4191L31.992 15.9105ZM26.6753 15.5327C27.0644 14.8224 28.0846 14.8224 28.4737 15.5327L30.2277 14.5718C29.0797 12.4761 26.0693 12.4761 24.9213 14.5718L26.6753 15.5327ZM22.7299 16.8146C24.1771 17.4983 25.9063 16.9364 26.6753 15.5327L24.9213 14.5718C24.6606 15.0475 24.0746 15.238 23.5841 15.0063L22.7299 16.8146ZM21.2749 17.8717C21.1722 17.0684 21.9976 16.4687 22.7299 16.8146L23.5841 15.0063C21.4235 13.9856 18.988 15.755 19.2911 18.1253L21.2749 17.8717ZM18.8365 21.2279C20.4092 20.9303 21.4779 19.4593 21.2749 17.8717L19.2911 18.1253C19.3599 18.6634 18.9977 19.1619 18.4647 19.2628L18.8365 21.2279ZM18.2808 22.9383C17.7255 22.3488 18.0408 21.3785 18.8365 21.2279L18.4647 19.2628C16.1168 19.707 15.1865 22.5701 16.8249 24.3095L18.2808 22.9383ZM18.2808 27.0868C19.3782 25.9216 19.3782 24.1034 18.2808 22.9383L16.8249 24.3095C17.1968 24.7044 17.1968 25.3206 16.8249 25.7155L18.2808 27.0868ZM18.8365 28.7971C18.0408 28.6466 17.7255 27.6763 18.2808 27.0868L16.8249 25.7155C15.1865 27.455 16.1168 30.318 18.4647 30.7623L18.8365 28.7971ZM21.2749 32.1533C21.4779 30.5657 20.4092 29.0947 18.8365 28.7971L18.4647 30.7623C18.9977 30.8631 19.3599 31.3616 19.2911 31.8997L21.2749 32.1533ZM22.7299 33.2104C21.9976 33.5563 21.1722 32.9566 21.2749 32.1533L19.2911 31.8997C18.988 34.27 21.4235 36.0394 23.5841 35.0188L22.7299 33.2104ZM26.6753 34.4923C25.9063 33.0886 24.1771 32.5268 22.7299 33.2104L23.5841 35.0188C24.0746 34.7871 24.6606 34.9775 24.9213 35.4532L26.6753 34.4923ZM28.4737 34.4923C28.0846 35.2026 27.0644 35.2026 26.6753 34.4923L24.9213 35.4532C26.0693 37.549 29.0797 37.549 30.2277 35.4532L28.4737 34.4923ZM32.4191 33.2104C30.9719 32.5268 29.2427 33.0886 28.4737 34.4923L30.2277 35.4532C30.4884 34.9775 31.0744 34.7871 31.5649 35.0188L32.4191 33.2104ZM33.8741 32.1533C33.9768 32.9566 33.1514 33.5563 32.4191 33.2104L31.5649 35.0188C33.7255 36.0394 36.161 34.27 35.8579 31.8997L33.8741 32.1533ZM36.3125 28.7971C34.7398 29.0947 33.6711 30.5657 33.8741 32.1533L35.8579 31.8997C35.7891 31.3616 36.1513 30.8631 36.6843 30.7623L36.3125 28.7971ZM36.8682 27.0868C37.4235 27.6763 37.1082 28.6466 36.3125 28.7971L36.6843 30.7623C39.0322 30.318 39.9625 27.455 38.3241 25.7155L36.8682 27.0868ZM36.8682 22.9383C35.7708 24.1034 35.7708 25.9216 36.8682 27.0868L38.3241 25.7155C37.9522 25.3206 37.9522 24.7044 38.3241 24.3095L36.8682 22.9383ZM36.3125 21.2279C37.1082 21.3785 37.4235 22.3488 36.8682 22.9383L38.3241 24.3095C39.9625 22.5701 39.0322 19.707 36.6843 19.2628L36.3125 21.2279ZM33.8741 17.8717C33.6711 19.4593 34.7398 20.9303 36.3125 21.2279L36.6843 19.2628C36.1513 19.1619 35.7891 18.6634 35.8579 18.1253L33.8741 17.8717ZM32.4191 16.8146C33.1514 16.4687 33.9768 17.0684 33.8741 17.8717L35.8579 18.1253C36.161 15.755 33.7255 13.9856 31.5649 15.0063L32.4191 16.8146ZM28.4737 15.5327C29.2427 16.9364 30.9719 17.4983 32.4191 16.8146L31.5649 15.0063C31.0744 15.238 30.4884 15.0475 30.2277 14.5718L28.4737 15.5327ZM33.1325 25.1003C33.1325 28.1214 30.6834 30.5705 27.6623 30.5705V32.5705C31.788 32.5705 35.1325 29.226 35.1325 25.1003H33.1325ZM27.6623 19.6302C30.6834 19.6302 33.1325 22.0792 33.1325 25.1003H35.1325C35.1325 20.9747 31.788 17.6302 27.6623 17.6302V19.6302ZM22.1921 25.1003C22.1921 22.0792 24.6412 19.6302 27.6623 19.6302V17.6302C23.5367 17.6302 20.1921 20.9747 20.1921 25.1003H22.1921ZM27.6623 30.5705C24.6412 30.5705 22.1921 28.1214 22.1921 25.1003H20.1921C20.1921 29.226 23.5367 32.5705 27.6623 32.5705V30.5705Z" fill="#F8E9E9" mask="url(#path-4-outside-1_1_440)"/>
<path d="M27.2074 21.5617C27.3846 21.1696 27.9415 21.1696 28.1187 21.5617L28.9586 23.4203C29.0313 23.5813 29.1836 23.6919 29.3592 23.7114L31.3863 23.9358C31.814 23.9832 31.9861 24.5128 31.6679 24.8025L30.1599 26.1756C30.0292 26.2946 29.9711 26.4736 30.0068 26.6466L30.4198 28.6439C30.5069 29.0653 30.0564 29.3926 29.6826 29.1795L27.9106 28.1696C27.7571 28.0821 27.5689 28.0821 27.4154 28.1696L25.6435 29.1795C25.2696 29.3926 24.8191 29.0653 24.9063 28.6439L25.3192 26.6466C25.355 26.4736 25.2968 26.2946 25.1662 26.1756L23.6581 24.8025C23.3399 24.5128 23.512 23.9832 23.9397 23.9358L25.9669 23.7114C26.1425 23.6919 26.2947 23.5813 26.3675 23.4203L27.2074 21.5617Z" fill="#018CB7"/>
</svg>
