<svg width="70" height="36" viewBox="0 0 70 36" fill="none" xmlns="http://www.w3.org/2000/svg">
<path d="M1.60159 36H0V32.0001C0 31.2782 0 29.7563 0 29.7563C0 29.7563 1.53084 29.7563 2.21907 29.7563H5.55733V31.3172H2.52781C2.41204 31.3172 1.90918 31.3172 1.77749 31.3172L1.60159 31.3758C1.60159 31.3758 1.60159 31.6405 1.60159 31.7832C1.60159 31.8783 1.60159 31.9871 1.60159 32.0977H5.55733V33.6586H1.60159V36Z" fill="#018CB7"/>
<path d="M8.70888 34.4391H10.2526C10.3619 34.4391 10.4713 34.4196 10.5806 34.3805C10.6964 34.3415 10.7961 34.2862 10.8797 34.2147C10.9698 34.1432 11.0405 34.0619 11.092 33.9708C11.1499 33.8732 11.1788 33.7692 11.1788 33.6586V29.7563H12.79V33.7562C12.79 34.4781 12.5907 35.0342 12.1919 35.4244C11.7995 35.8081 11.256 36 10.5613 36H8.40014C7.70548 36 7.15875 35.8081 6.75996 35.4244C6.3676 35.0342 6.17142 34.4781 6.17142 33.7562V29.7563H7.78266V33.6586C7.78266 33.7692 7.80839 33.8732 7.85985 33.9708C7.91773 34.0619 7.98849 34.1432 8.07211 34.2147C8.16216 34.2862 8.26185 34.3415 8.3712 34.3805C8.48697 34.4196 8.59954 34.4391 8.70888 34.4391Z" fill="#018CB7"/>
<path d="M19.4084 36H15.6457C14.951 36 14.4043 35.8081 14.0055 35.4244C13.6131 35.0342 13.417 34.4781 13.417 33.7562V32.0001C13.417 31.2782 13.6131 30.7254 14.0055 30.3417C14.4043 29.9514 14.951 29.7563 15.6457 29.7563H19.4084V31.3172H15.9448C15.8354 31.3172 15.7261 31.3368 15.6167 31.3758C15.5074 31.4148 15.4077 31.4701 15.3176 31.5416C15.234 31.6132 15.1633 31.6977 15.1054 31.7953C15.0539 31.8863 15.0282 31.9871 15.0282 32.0977H19.4084V33.6586H15.0282C15.0282 33.7692 15.0539 33.8732 15.1054 33.9708C15.1633 34.0619 15.234 34.1432 15.3176 34.2147C15.4077 34.2862 15.5074 34.3415 15.6167 34.3805C15.7261 34.4196 15.8354 34.4391 15.9448 34.4391H19.4084V36Z" fill="#018CB7"/>
<path d="M20.0312 29.7563H21.6231V34.4391H25.0675V36H20.0312V29.7563Z" fill="#018CB7"/>
<path d="M30.7497 31.3172V36H29.1288V31.3172H27.3053V36H25.6844V29.7563H31.9557C32.6504 29.7563 33.1971 29.9514 33.5959 30.3417C33.9947 30.7254 34.1941 31.2782 34.1941 32.0001V36H32.5732V32.0977C32.5732 31.9871 32.5442 31.8863 32.4864 31.7953C32.4349 31.6977 32.3642 31.6132 32.2741 31.5416C32.1841 31.4701 32.0844 31.4148 31.975 31.3758C31.8657 31.3368 31.7531 31.3172 31.6373 31.3172H30.7497Z" fill="#BD2320"/>
<path d="M40.8153 36H37.0525C36.3578 36 35.8111 35.8081 35.4123 35.4244C35.02 35.0342 34.8238 34.4781 34.8238 33.7562V32.0001C34.8238 31.2782 35.02 30.7254 35.4123 30.3417C35.8111 29.9514 36.3578 29.7563 37.0525 29.7563H40.8153V31.3172H37.3516C37.2422 31.3172 37.1329 31.3368 37.0235 31.3758C36.9142 31.4148 36.8145 31.4701 36.7245 31.5416C36.6408 31.6132 36.5701 31.6977 36.5122 31.7953C36.4607 31.8863 36.435 31.9871 36.435 32.0977H40.8153V33.6586H36.435C36.435 33.7692 36.4607 33.8732 36.5122 33.9708C36.5701 34.0619 36.6408 34.1432 36.7245 34.2147C36.8145 34.2862 36.9142 34.3415 37.0235 34.3805C37.1329 34.4196 37.2422 34.4391 37.3516 34.4391H40.8153V36Z" fill="#BD2320"/>
<path d="M41.438 31.3172V29.7563H47.4585V31.3172H45.249V36H43.6475V31.3172H41.438Z" fill="#BD2320"/>
<path d="M48.09 36V29.7563H52.3641C52.6986 29.7563 52.988 29.8051 53.2324 29.9027C53.4833 29.9937 53.6891 30.127 53.8499 30.3027C54.0107 30.4783 54.1297 30.6896 54.2069 30.9368C54.2905 31.1839 54.3323 31.4571 54.3323 31.7563C54.3323 31.9123 54.3195 32.0522 54.2937 32.1758C54.2744 32.2928 54.2455 32.4001 54.2069 32.4977C54.1683 32.5887 54.1201 32.6733 54.0622 32.7513C54.0043 32.8294 53.9367 32.9107 53.8596 32.9952L53.8789 33.005C53.9496 33.0765 54.0139 33.1448 54.0718 33.2099C54.1297 33.2684 54.1779 33.3367 54.2165 33.4147C54.2551 33.4928 54.2841 33.5871 54.3034 33.6976C54.3227 33.8082 54.3323 33.948 54.3323 34.1171V36H52.7114V34.1464C52.7114 34.0814 52.6921 34.0098 52.6535 33.9318C52.6149 33.8472 52.5281 33.7887 52.393 33.7562H49.7012V36H48.09ZM52.3255 31.3172H49.7012V32.1953H52.422C52.5506 32.1758 52.6342 32.1172 52.6728 32.0197C52.7114 31.9156 52.7307 31.8343 52.7307 31.7758C52.7307 31.7432 52.7275 31.701 52.7211 31.6489C52.7146 31.5969 52.6954 31.5481 52.6632 31.5026C52.6375 31.4506 52.5957 31.4083 52.5378 31.3758C52.4863 31.3368 52.4156 31.3172 52.3255 31.3172Z" fill="#BD2320"/>
<path d="M54.9586 36V29.7563H56.5699V36H54.9586Z" fill="#BD2320"/>
<path d="M63.1831 36H59.4204C58.7257 36 58.179 35.8081 57.7802 35.4244C57.3878 35.0342 57.1916 34.4781 57.1916 33.7562V32.0001C57.1916 31.2782 57.3878 30.7254 57.7802 30.3417C58.179 29.9514 58.7257 29.7563 59.4204 29.7563H63.1831V31.3172H59.7194C59.6101 31.3172 59.5008 31.3368 59.3914 31.3758C59.2821 31.4148 59.1824 31.4701 59.0923 31.5416C59.0087 31.6132 58.938 31.6977 58.8801 31.7953C58.8286 31.8863 58.8029 31.9871 58.8029 32.0977V33.6586C58.8029 33.7692 58.8286 33.8732 58.8801 33.9708C58.938 34.0619 59.0087 34.1432 59.0923 34.2147C59.1824 34.2862 59.2821 34.3415 59.3914 34.3805C59.5008 34.4196 59.6101 34.4391 59.7194 34.4391H63.1831V36Z" fill="#BD2320"/>
<path d="M65.7838 32.0977H68.0125C68.4048 32.0977 68.7297 32.1595 68.9869 32.2831C69.2442 32.4066 69.4468 32.5627 69.5948 32.7513C69.7427 32.9399 69.8456 33.1448 69.9035 33.366C69.9678 33.5871 70 33.7985 70 34.0001C70 34.2993 69.955 34.5724 69.8649 34.8196C69.7813 35.0667 69.6559 35.2781 69.4886 35.4537C69.3214 35.6293 69.1124 35.7659 68.8615 35.8634C68.6171 35.9545 68.3341 36 68.0125 36H63.8059V34.4391H67.9835C68.0736 34.4391 68.1443 34.4261 68.1958 34.4001C68.2473 34.3675 68.2859 34.3318 68.3116 34.2927C68.3437 34.2472 68.363 34.2017 68.3695 34.1562C68.3759 34.1106 68.3791 34.0716 68.3791 34.0391C68.3791 33.9741 68.3534 33.896 68.3019 33.805C68.2569 33.7074 68.1508 33.6586 67.9835 33.6586H65.7548C65.356 33.6586 65.028 33.5968 64.7707 33.4733C64.5134 33.3497 64.3108 33.1936 64.1629 33.005C64.0149 32.8164 63.9088 32.6115 63.8445 32.3904C63.7866 32.1627 63.7576 31.9481 63.7576 31.7465C63.7576 31.4473 63.7995 31.1774 63.8831 30.9368C63.9731 30.6896 64.1018 30.4783 64.269 30.3027C64.4362 30.127 64.6421 29.9937 64.8865 29.9027C65.1373 29.8051 65.4268 29.7563 65.7548 29.7563H69.9518V31.3172H65.7838C65.6937 31.3172 65.6197 31.3335 65.5619 31.366C65.5104 31.392 65.4686 31.4246 65.4364 31.4636C65.4107 31.5026 65.3946 31.5449 65.3882 31.5904C65.3818 31.6359 65.3785 31.675 65.3785 31.7075C65.3785 31.74 65.3818 31.779 65.3882 31.8245C65.401 31.8701 65.4203 31.9123 65.4461 31.9514C65.4782 31.9904 65.52 32.0262 65.5715 32.0587C65.623 32.0847 65.6937 32.0977 65.7838 32.0977Z" fill="#BD2320"/>
<path d="M8.54584 9.72046C2.45457 16.6714 1.37004 26.3052 1.37004 26.3052H7.52073C7.52073 26.3052 9.26401 18.4428 11.9227 14.0496C18.454 3.25731 30.9778 0.208617 30.9778 0.208617C30.9778 0.208617 27.6186 -0.260771 25.5507 0.208617C19.6412 1.54997 13.5789 3.97699 8.54584 9.72046Z" fill="#BD2320"/>
<path d="M38.4551 1.24495C63.1785 1.24506 67.3392 25.7562 67.3392 25.7562H40.4892C41.0246 24.9675 41.7375 23.7229 41.771 22.6468C41.8299 20.7576 41.2821 19.9992 40.1429 18.5006C38.8483 16.7976 35.8615 15.2081 35.8615 15.2081C35.8615 15.2081 36.9951 16.372 37.0676 17.586C37.132 18.6653 36.408 19.4149 35.6754 20.1734C34.98 20.8934 34.2769 21.6214 34.2334 22.6468C34.1876 23.7268 35.0578 24.969 35.725 25.7562H9.57096C9.57096 25.7562 10.5366 20.0677 14.3015 14.1715H29.9527V11.7326H16.0253C20.3134 6.24745 27.2859 1.2449 38.4551 1.24495Z" fill="#018CB7"/>
<path d="M37.0711 23.7186C38.0358 24.3142 39.9655 23.7186 39.9655 23.7186C39.9655 23.7186 38.5162 25.182 36.5887 24.2064C35.5962 23.7041 35.7444 21.4626 35.7444 21.4626C35.7444 21.4626 36.2059 23.1845 37.0711 23.7186Z" fill="#018CB7"/>
</svg>
