<svg width="1201" height="561" viewBox="0 0 1201 561" fill="none" xmlns="http://www.w3.org/2000/svg">
<rect x="265.805" y="102.978" width="165.138" height="165.138" rx="14" stroke="#F0F2FF" stroke-width="4"/>
<rect x="293.574" y="215.316" width="122.223" height="122.223" rx="14" stroke="#F0F2FF" stroke-width="4"/>
<rect x="207.742" y="278.428" width="122.223" height="122.223" rx="14" stroke="#F0F2FF" stroke-width="4"/>
<rect x="241.822" y="436.206" width="122.223" height="122.223" rx="14" stroke="#F0F2FF" stroke-width="4"/>
<rect x="167.352" y="341.539" width="122.223" height="122.223" rx="14" stroke="#F0F2FF" stroke-width="4"/>
<rect x="2" y="361.735" width="98.2404" height="98.2404" rx="14" stroke="#F0F2FF" stroke-width="4"/>
<rect x="17.1465" y="287.263" width="122.223" height="122.223" rx="14" stroke="#F0F2FF" stroke-width="4"/>
<rect x="104.24" y="209.005" width="122.223" height="122.223" rx="14" stroke="#F0F2FF" stroke-width="4"/>
<rect x="75.209" y="436.206" width="122.223" height="122.223" rx="14" stroke="#F0F2FF" stroke-width="4"/>
<rect x="321.344" y="320.081" width="122.223" height="122.223" rx="14" stroke="#F0F2FF" stroke-width="4"/>
<rect x="195.121" y="128.223" width="122.223" height="122.223" rx="14" stroke="#F0F2FF" stroke-width="4"/>
<rect x="485.434" y="39.8668" width="122.223" height="122.223" rx="14" stroke="#F0F2FF" stroke-width="4"/>
<rect x="561.166" y="167.352" width="122.223" height="122.223" rx="14" stroke="#F0F2FF" stroke-width="4"/>
<rect x="640.688" y="254.445" width="122.223" height="122.223" rx="14" stroke="#F0F2FF" stroke-width="4"/>
<rect x="657.096" y="65.1113" width="122.223" height="122.223" rx="14" stroke="#F0F2FF" stroke-width="4"/>
<rect x="765.646" y="113.076" width="122.223" height="122.223" rx="14" stroke="#F0F2FF" stroke-width="4"/>
<rect x="625.539" y="27.2445" width="122.223" height="122.223" rx="14" stroke="#F0F2FF" stroke-width="4"/>
<rect x="927.213" y="89.0938" width="122.223" height="122.223" rx="14" stroke="#F0F2FF" stroke-width="4"/>
<rect x="990.324" y="187.547" width="122.223" height="122.223" rx="14" stroke="#F0F2FF" stroke-width="4"/>
<rect x="1088.78" y="135.796" width="122.223" height="122.223" rx="14" stroke="#F0F2FF" stroke-width="4"/>
<rect x="927.213" y="245.61" width="122.223" height="122.223" rx="14" stroke="#F0F2FF" stroke-width="4"/>
<rect x="1037.03" y="239.299" width="122.223" height="122.223" rx="14" stroke="#F0F2FF" stroke-width="4"/>
<rect x="828.758" y="27.2445" width="122.223" height="122.223" rx="14" stroke="#F0F2FF" stroke-width="4"/>
<rect x="371.832" y="2" width="122.223" height="122.223" rx="14" stroke="#F0F2FF" stroke-width="4"/>
</svg>
