<svg width="33" height="32" viewBox="0 0 33 32" fill="none" xmlns="http://www.w3.org/2000/svg">
<circle cx="16.666" cy="16" r="16" fill="#8C00A3"/>
<path d="M17.9517 8.01929L8.60806 8.01929C7.67728 8.4546 6.7465 8.8899 5.98536 9.97334C5.2242 11.0568 4.6327 12.7883 4.66747 14.4425C4.7023 16.0967 5.36339 17.6734 6.14629 18.5215C6.92918 19.3695 7.83388 19.4889 8.73857 19.6082H16.1861C16.67 19.2954 17.1536 18.9826 17.5073 18.5046C17.8606 18.0265 18.0841 17.3832 18.1102 16.6287C18.1363 15.8742 17.9651 15.0084 17.5709 14.4014C17.1764 13.7944 16.5588 13.4461 15.9412 13.0979L12.0093 13.1076C11.4844 13.3558 10.9597 13.6041 10.5884 14.0556C10.2174 14.507 9.99988 15.1616 9.7824 15.8161H12.2222L12.5364 15.2302L15.2505 15.1528C15.559 15.2804 15.8675 15.408 16.0089 15.6991C16.15 15.9903 16.1239 16.4449 15.9977 16.7641C15.8716 17.0834 15.6455 17.2672 15.4193 17.451L9.29176 17.4413C8.77688 17.1736 8.26175 16.906 7.81729 16.5691C7.37282 16.2321 6.99878 15.8258 6.8683 15.0713C6.73781 14.3168 6.85092 13.2139 7.18009 12.4445C7.50928 11.675 8.05434 11.2389 8.59964 10.8027L16.2813 10.8027C16.4556 10.2812 16.6301 9.75967 16.9084 9.29577C17.1868 8.83186 17.5693 8.42557 17.9517 8.01929Z" fill="#DBDEE5"/>
<path d="M28.1613 10.4764C27.8598 9.93471 27.558 9.39299 27.2452 8.98026C26.932 8.56752 26.6072 8.28376 26.2826 8H18.9056C18.4419 8.34825 17.9778 8.6965 17.5877 9.26079C17.1979 9.82508 16.8821 10.6054 16.8848 11.4986C16.8878 12.3918 17.2093 13.3979 17.6342 14.0202C18.0591 14.6425 18.5868 14.8811 19.1147 15.1197L25.4649 15.0714C25.7837 15.4228 26.1029 15.7743 26.1578 16.1822C26.2129 16.5901 26.0042 17.0544 25.7954 17.5188H18.9741L17.4447 19.7666H25.9419C26.4731 19.6892 27.0043 19.6118 27.473 19.2049C27.9413 18.798 28.3472 18.0617 28.5386 17.2485C28.73 16.4353 28.7065 15.5454 28.4456 14.8811C28.1846 14.2169 27.6861 13.7783 27.2394 13.4946C26.7928 13.2108 26.3987 13.0819 26.0042 12.9529L19.8119 12.9529C19.4719 12.8626 19.1318 12.7723 18.9616 12.4498C18.7918 12.1274 18.7918 11.5728 18.9443 11.1987C19.0965 10.8247 19.4015 10.6312 19.7062 10.4377L28.1613 10.4764Z" fill="#DBDEE5"/>
<path d="M8.44131 21.127H6.14426C5.81534 21.2801 5.48667 21.4333 5.32439 21.8557C5.16209 22.2781 5.16645 22.9698 5.3861 23.3721C5.60601 23.7743 6.04097 23.8872 6.47618 24H8.44703L8.44402 22.3749H7.58012V23.246H6.61562C6.46015 23.1765 6.30492 23.107 6.22719 22.9513C6.14941 22.7957 6.14941 22.5538 6.22339 22.3709C6.29732 22.1878 6.44547 22.0637 6.59333 21.9395L8.44595 21.9202L8.44131 21.127Z" fill="#DBDEE5"/>
<path d="M19.7787 20.9916V21.7606H17.6893L17.685 22.1718H18.8221L18.8223 22.1524C18.9732 22.1584 19.1238 22.1643 19.2831 22.2414C19.4427 22.3186 19.611 22.467 19.695 22.6718C19.7789 22.8766 19.7789 23.1379 19.6892 23.3575C19.5993 23.5771 19.4193 23.7551 19.2567 23.8441C19.0942 23.9331 18.9488 23.9331 18.8033 23.9331L18.8039 23.8944H16.7227V23.1253H18.812L18.8153 22.8164H17.6785V22.8126C17.5276 22.8064 17.377 22.8003 17.2177 22.7196C17.0581 22.6391 16.8898 22.4841 16.8058 22.2701C16.7218 22.0563 16.7218 21.7834 16.8115 21.5541C16.9016 21.3247 17.0815 21.1388 17.244 21.0458C17.4066 20.9529 17.552 20.9529 17.6975 20.9529L17.6972 20.9916H19.7787Z" fill="#DBDEE5"/>
<path d="M27.3451 20.9916V21.7606H25.2558L25.2514 22.1718H26.3885L26.3888 22.1524C26.5397 22.1584 26.6903 22.1643 26.8495 22.2414C27.0092 22.3186 27.1774 22.467 27.2614 22.6718C27.3454 22.8766 27.3454 23.1379 27.2557 23.3575C27.1657 23.5771 26.9857 23.7551 26.8232 23.8441C26.6606 23.9331 26.5152 23.9331 26.3698 23.9331L26.3703 23.8944H24.2891V23.1253H26.3785L26.3817 22.8164H25.2449V22.8126C25.094 22.8064 24.9434 22.8003 24.7841 22.7196C24.6246 22.6391 24.4563 22.4841 24.3723 22.2701C24.2882 22.0563 24.2882 21.7834 24.3779 21.5541C24.468 21.3247 24.6479 21.1388 24.8105 21.0458C24.973 20.9529 25.1185 20.9529 25.2639 20.9529L25.2636 20.9916H27.3451Z" fill="#DBDEE5"/>
<path d="M23.1242 20.9431H23.9599L22.6335 22.5253V23.9806H21.7979V22.561H21.7976H21.768L21.7829 22.5434L20.4414 20.9431H21.2771L22.2008 22.045L23.1242 20.9431Z" fill="#DBDEE5"/>
<path d="M13.0192 20.9431H13.822H13.8549V20.9896L15.1532 22.8248V20.9431H15.9888V23.9806H15.9709H15.1532H15.1352L13.8549 22.1708V23.9806H13.0192V20.9896L12.9863 20.9431H13.0192Z" fill="#DBDEE5"/>
<path d="M9.30859 20.9915H9.31756V20.9431H10.1532V20.9915H12.2535V21.7605H10.1532V22.2104H11.2604V22.8635H10.1532V23.2406H12.2537V23.9956H9.30887V23.2406H9.31756V22.8635H9.30887V22.2104H9.31756V21.7605H9.30859V20.9915Z" fill="#DBDEE5"/>
</svg>
