<svg width="58" height="58" viewBox="0 0 58 58" fill="none" xmlns="http://www.w3.org/2000/svg">
<circle cx="29" cy="29" r="29" fill="#C8D9FF"/>
<path fill-rule="evenodd" clip-rule="evenodd" d="M16.8426 22.8249H27.4845C26.6146 22.3947 25.7522 21.9548 25.0098 21.3614C24.2179 20.7283 23.5626 19.9204 23.0439 19.1241C22.5252 18.3278 22.1432 17.5432 22.2213 16.7896C22.2994 16.0361 22.8377 15.3136 23.7505 15.1621C24.6632 15.0106 25.9504 15.4301 26.8748 15.8846C27.7993 16.339 28.361 16.8284 28.8876 17.481C29.4142 18.1335 29.9056 18.9492 30.3971 19.7648L31.5205 17.3178C31.8013 16.875 32.0822 16.4322 32.597 15.9428C33.112 15.4534 33.8609 14.9174 34.6449 15.0106C35.4289 15.1039 36.248 15.8263 36.6108 16.4555C36.9736 17.0848 36.88 17.6208 36.4704 18.4015C36.0608 19.1822 35.3353 20.2076 34.247 21.0233C33.2938 21.7378 32.0622 22.2913 30.7961 22.8249H41.1574C41.6228 22.8249 42 23.2005 42 23.6639V29.102C42 29.5653 41.6228 29.941 41.1574 29.941H40.9572V42.1609C40.9572 42.6244 40.58 43 40.1146 43H17.7174C17.2521 43 16.8748 42.6244 16.8748 42.1609V29.941H16.8426C16.3772 29.941 16 29.5653 16 29.102V23.6639C16 23.2005 16.3772 22.8249 16.8426 22.8249ZM18.4255 24.5282C18.1153 24.5282 17.8638 24.7786 17.8638 25.0876V27.7289C17.8638 28.0099 18.0719 28.2425 18.3429 28.2823H27.6095V24.5282H18.4255ZM39.791 28.2823C40.062 28.2425 40.2701 28.0099 40.2701 27.7289V25.0876C40.2701 24.7786 40.0186 24.5282 39.7084 24.5282H29.9967V28.2823H39.791ZM18.6948 29.9855C18.6431 29.9855 18.6012 30.0273 18.6012 30.0787V41.1045C18.6012 41.156 18.6431 41.1977 18.6948 41.1977H27.6095V29.9855H18.6948ZM39.2613 41.1977C39.313 41.1977 39.3549 41.156 39.3549 41.1045V30.0787C39.3549 30.0273 39.313 29.9855 39.2613 29.9855H29.9967V41.1977H39.2613ZM31.5047 20.8371C32.134 20.5729 32.7633 20.3088 33.3198 19.7883C33.8763 19.2678 34.36 18.491 34.5629 17.9394C34.7657 17.3878 34.6877 17.0615 34.1312 17.582C33.5747 18.1025 32.5397 19.4698 31.5047 20.8371ZM28.5712 21.3653C27.9575 20.4331 27.3438 19.5009 26.6832 18.781C26.0227 18.0611 25.3153 17.5535 25.1229 17.6571C24.9305 17.7607 25.2529 18.4754 25.6378 19.0814C26.0227 19.6873 26.47 20.1845 26.9693 20.5471C27.4686 20.9096 28.0199 21.1375 28.5712 21.3653Z" fill="#4DC6FF" stroke="#4DC6FF" stroke-width="0.319998" stroke-linejoin="round"/>
</svg>
