<svg width="16" height="16" viewBox="0 0 16 16" fill="none" xmlns="http://www.w3.org/2000/svg">
<path fill-rule="evenodd" clip-rule="evenodd" d="M16 8C16 12.4183 12.4183 16 8 16C3.58172 16 0 12.4183 0 8C0 3.58172 3.58172 0 8 0C12.4183 0 16 3.58172 16 8ZM14.4969 8.20412C14.389 11.6995 11.5216 14.5 8 14.5C4.41015 14.5 1.5 11.5899 1.5 8C1.5 5.12656 3.36451 2.68861 5.94969 1.82998L4.92671 3.62019C4.60171 4.18894 4.69759 4.90485 5.16078 5.36805C5.6029 5.81017 6.27833 5.91977 6.83757 5.64015L7.0123 5.55279C7.08173 5.51807 7.15829 5.5 7.23591 5.5H7.38181C7.5712 5.5 7.74433 5.607 7.82902 5.77639C7.8994 5.91716 7.8994 6.08284 7.82902 6.22361L7.80123 6.27919C7.73357 6.41452 7.59525 6.5 7.44395 6.5H6.9418C6.18614 6.5 5.48048 6.87766 5.06131 7.50641L5.01751 7.57212C4.65828 8.11096 4.56795 8.78547 4.77274 9.39984C4.98201 10.0276 5.47787 10.5197 6.10338 10.7282C6.33997 10.8071 6.49984 11.0292 6.49984 11.2749V12.3246C6.49984 12.9738 7.02608 13.5 7.67523 13.5C8.0323 13.5 8.37 13.3377 8.59306 13.0589L10.2044 11.0446C10.3957 10.8056 10.4998 10.5086 10.4998 10.2025C10.4998 9.8866 10.6279 9.57908 10.8531 9.35387C11.3088 8.8982 11.3864 8.17843 11.0257 7.63738L10.5617 6.94145C10.5214 6.88091 10.4998 6.80979 10.4998 6.73703C10.4998 6.43336 10.8465 6.26002 11.0895 6.44222L11.4322 6.69925C11.748 6.93609 12.1704 6.97373 12.523 6.79746C12.7488 6.68456 13.0216 6.72887 13.1996 6.90689L14.4969 8.20412Z" fill="#0F172A"/>
</svg>
