<svg width="27" height="20" viewBox="0 0 27 20" fill="none" xmlns="http://www.w3.org/2000/svg">
<path d="M2.35438 5.51887C4.09325 2.93443 8.34132 0.5 8.34132 0.5H12L8.67378 4.4434C8.67378 4.4434 6.67799 6.23585 6.34553 7.66981L6.01307 9.10377V10.8962H11.6674V19.5H0.0261329V13.0472C0.0261329 13.0472 -0.0326661 11.9518 0.0261329 11.2547C0.231509 8.81978 1.02266 7.49818 2.35438 5.51887Z" fill="#D6ED45"/>
<path d="M17.3544 5.51887C19.0932 2.93443 23.3413 0.5 23.3413 0.5H27L23.6738 4.4434C23.6738 4.4434 21.678 6.23585 21.3455 7.66981L21.0131 9.10377V10.8962H26.6674V19.5H15.0261V13.0472C15.0261 13.0472 14.9673 11.9518 15.0261 11.2547C15.2315 8.81978 16.0227 7.49818 17.3544 5.51887Z" fill="#D6ED45"/>
</svg>
