<svg width="56" height="56" viewBox="0 0 56 56" fill="none" xmlns="http://www.w3.org/2000/svg">
<rect x="0.5" y="0.5" width="55" height="55" rx="27.5" stroke="#018CB7"/>
<path d="M24 28C24.7956 28 25.5587 27.6839 26.1213 27.1213C26.6839 26.5587 27 25.7956 27 25C27 24.2044 26.6839 23.4413 26.1213 22.8787C25.5587 22.3161 24.7956 22 24 22H18C17.2044 22 16.4413 22.3161 15.8787 22.8787C15.3161 23.4413 15 24.2044 15 25C15 25.7956 15.3161 26.5587 15.8787 27.1213C16.4413 27.6839 17.2044 28 18 28H24ZM17 25C17 24.7348 17.1054 24.4804 17.2929 24.2929C17.4804 24.1054 17.7348 24 18 24H24C24.2652 24 24.5196 24.1054 24.7071 24.2929C24.8946 24.4804 25 24.7348 25 25C25 25.2652 24.8946 25.5196 24.7071 25.7071C24.5196 25.8946 24.2652 26 24 26H18C17.7348 26 17.4804 25.8946 17.2929 25.7071C17.1054 25.5196 17 25.2652 17 25Z" fill="#018CB7"/>
<path d="M38 28C37.7348 28 37.4804 28.1054 37.2929 28.2929C37.1054 28.4804 37 28.7348 37 29C37 29.2652 37.1054 29.5196 37.2929 29.7071C37.4804 29.8946 37.7348 30 38 30C38.2652 30 38.5196 30.1054 38.7071 30.2929C38.8946 30.4804 39 30.7348 39 31C39 31.2652 38.8946 31.5196 38.7071 31.7071C38.5196 31.8946 38.2652 32 38 32H32C31.7348 32 31.4804 31.8946 31.2929 31.7071C31.1054 31.5196 31 31.2652 31 31C31 30.7348 31.1054 30.4804 31.2929 30.2929C31.4804 30.1054 31.7348 30 32 30H34C34.2652 30 34.5196 29.8946 34.7071 29.7071C34.8946 29.5196 35 29.2652 35 29C35 28.7348 34.8946 28.4804 34.7071 28.2929C34.5196 28.1054 34.2652 28 34 28H32C31.2044 28 30.4413 28.3161 29.8787 28.8787C29.3161 29.4413 29 30.2044 29 31C29 31.7956 29.3161 32.5587 29.8787 33.1213C30.4413 33.6839 31.2044 34 32 34H38C38.7956 34 39.5587 33.6839 40.1213 33.1213C40.6839 32.5587 41 31.7956 41 31C41 30.2044 40.6839 29.4413 40.1213 28.8787C39.5587 28.3161 38.7956 28 38 28Z" fill="#018CB7"/>
<path d="M25 29C24.2044 29 23.4413 29.3161 22.8787 29.8787C22.3161 30.4413 22 31.2044 22 32V38C22 38.7956 22.3161 39.5587 22.8787 40.1213C23.4413 40.6839 24.2044 41 25 41C25.7956 41 26.5587 40.6839 27.1213 40.1213C27.6839 39.5587 28 38.7956 28 38V32C28 31.2044 27.6839 30.4413 27.1213 29.8787C26.5587 29.3161 25.7956 29 25 29ZM26 38C26 38.2652 25.8946 38.5196 25.7071 38.7071C25.5196 38.8946 25.2652 39 25 39C24.7348 39 24.4804 38.8946 24.2929 38.7071C24.1054 38.5196 24 38.2652 24 38V32C24 31.7348 24.1054 31.4804 24.2929 31.2929C24.4804 31.1054 24.7348 31 25 31C25.2652 31 25.5196 31.1054 25.7071 31.2929C25.8946 31.4804 26 31.7348 26 32V38Z" fill="#018CB7"/>
<path d="M34 24V18C34 17.2044 33.6839 16.4413 33.1213 15.8787C32.5587 15.3161 31.7956 15 31 15C30.2044 15 29.4413 15.3161 28.8787 15.8787C28.3161 16.4413 28 17.2044 28 18V24C28 24.7956 28.3161 25.5587 28.8787 26.1213C29.4413 26.6839 30.2044 27 31 27C31.7956 27 32.5587 26.6839 33.1213 26.1213C33.6839 25.5587 34 24.7956 34 24ZM30 24V18C30 17.7348 30.1054 17.4804 30.2929 17.2929C30.4804 17.1054 30.7348 17 31 17C31.2652 17 31.5196 17.1054 31.7071 17.2929C31.8946 17.4804 32 17.7348 32 18V24C32 24.2652 31.8946 24.5196 31.7071 24.7071C31.5196 24.8946 31.2652 25 31 25C30.7348 25 30.4804 24.8946 30.2929 24.7071C30.1054 24.5196 30 24.2652 30 24Z" fill="#018CB7"/>
<path d="M40 24.5C40 23.837 39.7366 23.2011 39.2678 22.7322C38.7989 22.2634 38.163 22 37.5 22C36.837 22 36.2011 22.2634 35.7322 22.7322C35.2634 23.2011 35 23.837 35 24.5V27H37.5C38.163 27 38.7989 26.7366 39.2678 26.2678C39.7366 25.7989 40 25.163 40 24.5ZM37 24.5C37 24.4011 37.0293 24.3044 37.0843 24.2222C37.1392 24.14 37.2173 24.0759 37.3087 24.0381C37.4 24.0002 37.5006 23.9903 37.5975 24.0096C37.6945 24.0289 37.7836 24.0765 37.8536 24.1464C37.9235 24.2164 37.9711 24.3055 37.9904 24.4025C38.0097 24.4994 37.9998 24.6 37.9619 24.6913C37.9241 24.7827 37.86 24.8608 37.7778 24.9157C37.6956 24.9707 37.5989 25 37.5 25H37V24.5Z" fill="#018CB7"/>
<path d="M31.5 35H29V37.5C29 37.9945 29.1466 38.4778 29.4213 38.8889C29.696 39.3 30.0865 39.6205 30.5433 39.8097C31.0001 39.9989 31.5028 40.0484 31.9877 39.952C32.4727 39.8555 32.9181 39.6174 33.2678 39.2678C33.6174 38.9181 33.8555 38.4727 33.952 37.9877C34.0484 37.5028 33.9989 37.0001 33.8097 36.5433C33.6205 36.0865 33.3 35.696 32.8889 35.4213C32.4778 35.1466 31.9945 35 31.5 35ZM31.5 38C31.3674 38 31.2402 37.9473 31.1464 37.8536C31.0527 37.7598 31 37.6326 31 37.5V37H31.5C31.6326 37 31.7598 37.0527 31.8536 37.1464C31.9473 37.2402 32 37.3674 32 37.5C32 37.6326 31.9473 37.7598 31.8536 37.8536C31.7598 37.9473 31.6326 38 31.5 38Z" fill="#018CB7"/>
<path d="M16 31.5C16 32.163 16.2634 32.7989 16.7322 33.2678C17.2011 33.7366 17.837 34 18.5 34C19.163 34 19.7989 33.7366 20.2678 33.2678C20.7366 32.7989 21 32.163 21 31.5V29H18.5C17.837 29 17.2011 29.2634 16.7322 29.7322C16.2634 30.2011 16 30.837 16 31.5ZM19 31.5C19 31.5989 18.9707 31.6956 18.9157 31.7778C18.8608 31.86 18.7827 31.9241 18.6913 31.9619C18.6 31.9998 18.4994 32.0097 18.4025 31.9904C18.3055 31.9711 18.2164 31.9235 18.1464 31.8536C18.0765 31.7836 18.0289 31.6945 18.0096 31.5975C17.9903 31.5006 18.0002 31.4 18.0381 31.3087C18.0759 31.2173 18.14 31.1392 18.2222 31.0843C18.3044 31.0293 18.4011 31 18.5 31H19V31.5Z" fill="#018CB7"/>
<path d="M24.5 21H27V18.5C27 18.0055 26.8534 17.5222 26.5787 17.1111C26.304 16.7 25.9135 16.3795 25.4567 16.1903C24.9999 16.0011 24.4972 15.9516 24.0123 16.048C23.5273 16.1445 23.0819 16.3826 22.7322 16.7322C22.3826 17.0819 22.1445 17.5273 22.048 18.0123C21.9516 18.4972 22.0011 18.9999 22.1903 19.4567C22.3795 19.9135 22.7 20.304 23.1111 20.5787C23.5222 20.8534 24.0055 21 24.5 21ZM24.5 18C24.6326 18 24.7598 18.0527 24.8536 18.1464C24.9473 18.2402 25 18.3674 25 18.5V19H24.5C24.3674 19 24.2402 18.9473 24.1464 18.8536C24.0527 18.7598 24 18.6326 24 18.5C24 18.3674 24.0527 18.2402 24.1464 18.1464C24.2402 18.0527 24.3674 18 24.5 18Z" fill="#018CB7"/>
</svg>
