<svg width="58" height="58" viewBox="0 0 58 58" fill="none" xmlns="http://www.w3.org/2000/svg">
<circle cx="29" cy="29" r="29" fill="#DDE8FF"/>
<path d="M27.5699 43.373C25.6848 43.3716 22.7428 41.0837 21.8866 40.3825C21.7483 40.2692 21.6336 40.1299 21.5491 39.9723C21.4646 39.8148 21.412 39.6422 21.3942 39.4643C21.3764 39.2864 21.3938 39.1067 21.4455 38.9356C21.4971 38.7644 21.582 38.6051 21.6952 38.4668C21.8084 38.3284 21.9478 38.2137 22.1053 38.1292C22.2629 38.0447 22.4355 37.9921 22.6134 37.9743C22.7913 37.9565 22.9709 37.974 23.1421 38.0256C23.3132 38.0773 23.4725 38.1621 23.6109 38.2753C24.7454 39.344 26.0978 40.1542 27.5752 40.6503C29.2616 40.5706 38.8534 33.6297 38.8534 25.7715C38.8544 24.9451 38.7398 24.1226 38.5131 23.328C38.2091 22.2878 37.5761 21.3742 36.709 20.7242C35.842 20.0742 34.7875 19.7228 33.7039 19.7227C32.6042 19.7608 31.5438 20.1414 30.6709 20.8112C29.7979 21.481 29.1558 22.4067 28.8342 23.459C28.7331 23.7115 28.5587 23.928 28.3334 24.0805C28.1081 24.233 27.8423 24.3145 27.5703 24.3145C27.2982 24.3145 27.0324 24.233 26.8071 24.0805C26.5818 23.928 26.4074 23.7115 26.3063 23.459C25.9846 22.4067 25.3425 21.4811 24.4696 20.8113C23.5966 20.1415 22.5363 19.7609 21.4366 19.7227C20.353 19.7228 19.2986 20.0742 18.4314 20.7241C17.5643 21.374 16.9311 22.2874 16.6268 23.3274C16.4006 24.1224 16.2863 24.945 16.2871 25.7715C16.507 29.0449 17.8029 32.1537 19.9729 34.6142C20.1995 34.8952 20.3051 35.2547 20.2666 35.6136C20.2281 35.9725 20.0485 36.3014 19.7675 36.5279C19.4865 36.7545 19.127 36.8601 18.7681 36.8216C18.4093 36.783 18.0804 36.6035 17.8538 36.3225C15.2883 33.3817 13.7787 29.6682 13.5645 25.7715C13.5636 24.692 13.7132 23.6177 14.0091 22.5796C14.4777 20.9716 15.4547 19.5588 16.7937 18.5529C18.1328 17.547 19.7618 17.0021 21.4366 17C22.6373 17.002 23.8201 17.2904 24.8868 17.8414C25.9536 18.3924 26.8734 19.1901 27.5699 20.168C28.2665 19.19 29.1865 18.3923 30.2533 17.8413C31.3202 17.2903 32.5031 17.0019 33.7039 17C35.3785 17.002 37.0075 17.5467 38.3465 18.5525C39.6854 19.5583 40.6623 20.9711 41.1307 22.5789C41.4273 23.6171 41.5772 24.6918 41.576 25.7715C41.576 35.0522 30.8011 43.373 27.5699 43.373Z" fill="#4DC6FF"/>
<path d="M27.1229 35.5725C26.7619 35.5723 26.4158 35.4288 26.1605 35.1736L23.2052 32.2183C22.9525 31.9625 22.8114 31.6172 22.8125 31.2576C22.8136 30.8981 22.9569 30.5536 23.2112 30.2994C23.4654 30.0452 23.8098 29.9019 24.1694 29.9007C24.5289 29.8996 24.8743 30.0407 25.1301 30.2933L26.9933 32.1559L31.2594 26.6487C31.3686 26.5067 31.5048 26.3876 31.6601 26.2983C31.8154 26.209 31.9868 26.1512 32.1645 26.1284C32.3422 26.1055 32.5227 26.1179 32.6956 26.1649C32.8685 26.2119 33.0304 26.2925 33.1721 26.4022C33.3137 26.512 33.4323 26.6486 33.5211 26.8042C33.6098 26.9599 33.6669 27.1315 33.6892 27.3093C33.7115 27.4871 33.6984 27.6675 33.6508 27.8402C33.6032 28.0129 33.5219 28.1746 33.4117 28.3158L28.199 35.0447C28.0807 35.1975 27.9312 35.3234 27.7604 35.4139C27.5896 35.5045 27.4015 35.5576 27.2086 35.5698C27.1801 35.5718 27.1515 35.5725 27.1229 35.5725Z" fill="#4DC6FF"/>
</svg>
