<svg width="35" height="31" viewBox="0 0 35 31" fill="none" xmlns="http://www.w3.org/2000/svg">
<path d="M3.82555 20.2172C2.81095 17.4642 3.24401 14.3057 5.02945 11.4366C6.81488 8.56752 9.80646 6.22283 13.346 4.91834L15.5893 11.0052C14.1253 11.5447 12.8879 12.5145 12.1494 13.7012C11.4109 14.8879 11.2318 16.1943 11.6515 17.333L3.82555 20.2172Z" fill="white"/>
<path d="M3.82555 20.2172C4.84015 22.9702 7.2193 25.0922 10.4396 26.1165C13.6599 27.1408 17.4576 26.9833 20.9972 25.6789L18.7539 19.592C17.2899 20.1316 15.7191 20.1967 14.3871 19.7731C13.0552 19.3494 12.0711 18.4717 11.6515 17.333L3.82555 20.2172Z" fill="#018CB7"/>
<path d="M30.5176 10.38C29.503 7.62702 27.1239 5.50496 23.9036 4.4807C20.6833 3.45643 16.8856 3.61386 13.346 4.91834L15.5893 11.0052C17.0533 10.4656 18.6241 10.4005 19.9561 10.8241C21.288 11.2478 22.2721 12.1255 22.6917 13.2642L30.5176 10.38Z" fill="#018CB7"/>
<path d="M30.5176 10.38C31.5322 13.133 31.0992 16.2915 29.3138 19.1606C27.5283 22.0297 24.5367 24.3744 20.9972 25.6789L18.7539 19.592C20.2179 19.0525 21.4553 18.0827 22.1938 16.896C22.9323 15.7093 23.1114 14.4029 22.6917 13.2642L30.5176 10.38Z" fill="white"/>
<path d="M5.70867 11.8593C7.26477 9.35873 9.8153 7.25362 12.8784 5.96279L14.5753 10.5672C13.2816 11.1908 12.1818 12.135 11.4702 13.2785C10.7766 14.3931 10.4892 15.6439 10.6932 16.8336L4.33816 19.1757C3.74883 16.8722 4.20069 14.2825 5.70867 11.8593ZM16.0766 10.0139L14.3797 5.4095C17.5478 4.40386 20.8545 4.35036 23.6611 5.24306C26.381 6.10815 28.4053 7.78527 29.4518 9.92026L23.0967 12.2624C22.4799 11.2248 21.4495 10.4597 20.1985 10.0618C18.915 9.65353 17.4656 9.64888 16.0766 10.0139ZM23.65 13.7636L30.005 11.4215C30.5944 13.725 30.1425 16.3147 28.6345 18.7379C27.0784 21.2385 24.5279 23.3436 21.4648 24.6344L19.7679 20.03C21.0616 19.4064 22.1614 18.4622 22.873 17.3187C23.5666 16.2041 23.854 14.9533 23.65 13.7636ZM19.9635 25.1877C16.7954 26.1933 13.4887 26.2468 10.6821 25.3541C7.96222 24.4891 5.93786 22.8119 4.89145 20.6769L11.2465 18.3349C11.8633 19.3724 12.8937 20.1375 14.1447 20.5354C15.4282 20.9437 16.8776 20.9483 18.2666 20.5833L19.9635 25.1877Z" stroke="#018CB7" stroke-width="1.6"/>
<path d="M31.9236 25.6028C31.9236 25.6028 30.7379 25.0117 30.0272 23.7063C29.0237 21.8634 30.3335 18.6295 29.395 16.7526C28.7629 15.4883 27.8146 14.959 27.1825 14.8562C24.4337 14.4092 22.1252 16.0134 21.177 16.4357C19.4557 17.2022 17.0679 20.8616 17.0679 20.8616C17.0679 20.8616 15.6573 24.2285 13.9072 25.6028C11.3368 27.6212 8.95088 26.9791 5.6891 27.1832C4.08756 27.2834 1.58008 27.1832 1.58008 27.1832" stroke="#018CB7" stroke-width="2"/>
</svg>
