<svg width="1530" height="570" viewBox="0 0 1530 570" fill="none" xmlns="http://www.w3.org/2000/svg">
<path d="M1163.95 0.469293C1165.29 0.161586 1166.68 0.201438 1167.99 0.585037L1276.7 32.3137C1277.98 32.6872 1278.86 33.8603 1278.86 35.1934L1278.86 46.2902C1278.86 47.6828 1277.91 48.8923 1276.55 49.2108L1158.73 76.891C1156.01 77.5308 1153.17 77.4454 1150.49 76.6434L1044.41 44.8984C1043.14 44.5184 1042.27 43.35 1042.27 42.0244L1042.27 30.9217C1042.27 29.5246 1043.23 28.3123 1044.59 27.9983L1163.95 0.469293Z" fill="#B83C84"/>
<path d="M1150.56 60.7874C1151.88 61.1848 1153.28 61.2345 1154.63 60.9316L1276.43 33.4956C1277.68 33.2139 1278.86 34.1648 1278.86 35.4467V46.2838C1278.86 47.6803 1277.9 48.8921 1276.54 49.2067L1156.76 76.9024C1154.02 77.5352 1151.16 77.4363 1148.48 76.6157L1044.39 44.8219C1043.13 44.4365 1042.27 43.2721 1042.27 41.9528V30.8687C1042.27 29.5281 1043.56 28.5671 1044.84 28.9536L1150.56 60.7874Z" fill="#831245"/>
<path d="M1033.18 30.4333C1034.54 30.1161 1035.95 30.1571 1037.28 30.5524L1144.19 62.2565C1145.47 62.6341 1146.34 63.8043 1146.34 65.1326L1146.34 76.2427C1146.34 77.6338 1145.38 78.8424 1144.03 79.1624L1027.03 106.817C1024.26 107.472 1021.37 107.376 1018.65 106.54L915.604 74.8585C914.345 74.4714 913.486 73.3083 913.486 71.9911L913.485 60.8623C913.485 59.4691 914.444 58.2592 915.801 57.9413L1033.18 30.4333Z" fill="#EEF2FF"/>
<path d="M1020.01 90.7178C1021.35 91.1274 1022.77 91.1785 1024.13 90.8662L1143.89 63.4552C1145.15 63.1686 1146.34 64.1201 1146.34 65.4048V76.2416C1146.34 77.6342 1145.38 78.8437 1144.03 79.1621L1026.29 106.821C1023.51 107.474 1020.61 107.372 1017.89 106.526L915.596 74.7776C914.341 74.388 913.485 73.2267 913.485 71.9124V60.8304C913.485 59.4861 914.785 58.5246 916.07 58.9179L1020.01 90.7178Z" fill="#C1D0FC"/>
<path d="M1282.25 34.9107C1283.58 34.603 1284.97 34.6428 1286.29 35.0264L1395 66.7551C1396.28 67.1286 1397.16 68.3018 1397.16 69.6348L1397.16 80.7316C1397.16 82.1242 1396.2 83.3337 1394.85 83.6522L1277.03 111.332C1274.31 111.972 1271.46 111.887 1268.78 111.085L1162.7 79.3398C1161.43 78.9598 1160.56 77.7914 1160.56 76.4658L1160.56 65.3631C1160.56 63.966 1161.53 62.7537 1162.89 62.4397L1282.25 34.9107Z" fill="#B83C84"/>
<path d="M1268.86 95.2288C1270.18 95.6262 1271.58 95.6759 1272.93 95.373L1394.72 67.937C1395.97 67.6553 1397.16 68.6062 1397.16 69.8881V80.7252C1397.16 82.1217 1396.2 83.3335 1394.84 83.6481L1275.05 111.344C1272.32 111.977 1269.46 111.878 1266.77 111.057L1162.69 79.2633C1161.43 78.8779 1160.56 77.7135 1160.56 76.3942V65.3101C1160.56 63.9695 1161.86 63.0085 1163.14 63.395L1268.86 95.2288Z" fill="#831245"/>
<path d="M1149.98 64.8747C1151.34 64.5575 1152.75 64.5985 1154.08 64.9938L1260.99 96.6979C1262.27 97.0755 1263.14 98.2457 1263.14 99.574L1263.14 110.684C1263.14 112.075 1262.18 113.284 1260.83 113.604L1143.83 141.259C1141.06 141.913 1138.17 141.817 1135.45 140.981L1032.4 109.3C1031.15 108.913 1030.29 107.75 1030.29 106.433L1030.29 95.3037C1030.29 93.9105 1031.25 92.7006 1032.6 92.3827L1149.98 64.8747Z" fill="#EEF2FF"/>
<path d="M1136.81 125.159C1138.15 125.569 1139.57 125.62 1140.93 125.308L1260.69 97.8966C1261.95 97.61 1263.14 98.5615 1263.14 99.8462V110.683C1263.14 112.076 1262.18 113.285 1260.83 113.604L1143.09 141.263C1140.32 141.915 1137.41 141.813 1134.69 140.968L1032.4 109.219C1031.14 108.829 1030.29 107.668 1030.29 106.354V95.2718C1030.29 93.9275 1031.59 92.966 1032.87 93.3593L1136.81 125.159Z" fill="#C1D0FC"/>
<path d="M404.253 51.3982C405.606 51.0809 407.019 51.122 408.353 51.5173L515.262 83.2213C516.536 83.599 517.409 84.7691 517.409 86.0974L517.41 97.2076C517.41 98.5986 516.454 99.8073 515.1 100.127L398.099 127.782C395.329 128.437 392.436 128.341 389.716 127.505L286.674 95.8234C285.415 95.4363 284.556 94.2732 284.556 92.9559L284.556 81.8272C284.556 80.434 285.515 79.2241 286.871 78.9062L404.253 51.3982Z" fill="#FF4FBC"/>
<path d="M391.078 111.683C392.416 112.092 393.839 112.143 395.203 111.831L514.963 84.42C516.216 84.1334 517.41 85.0849 517.41 86.3696V97.2065C517.41 98.599 516.451 99.8085 515.096 100.127L397.362 127.786C394.585 128.438 391.684 128.337 388.96 127.491L286.666 95.7424C285.411 95.3528 284.556 94.1915 284.556 92.8772V81.7952C284.556 80.4509 285.855 79.4894 287.141 79.8827L391.078 111.683Z" fill="#D5016A"/>
<path d="M276.969 81.3474C278.322 81.0301 279.735 81.0712 281.068 81.4665L387.978 113.171C389.252 113.548 390.125 114.718 390.125 116.047L390.126 127.157C390.126 128.548 389.17 129.756 387.816 130.076L270.814 157.731C268.045 158.386 265.152 158.29 262.432 157.454L159.39 125.773C158.131 125.385 157.272 124.222 157.272 122.905L157.272 111.776C157.272 110.383 158.231 109.173 159.587 108.855L276.969 81.3474Z" fill="#EEF2FF"/>
<path d="M263.794 141.632C265.132 142.041 266.555 142.093 267.919 141.78L387.679 114.369C388.932 114.083 390.125 115.034 390.125 116.319V127.156C390.125 128.548 389.167 129.758 387.812 130.076L270.078 157.735C267.301 158.388 264.4 158.286 261.676 157.44L159.382 125.692C158.127 125.302 157.271 124.141 157.271 122.826V111.744C157.271 110.4 158.571 109.439 159.857 109.832L263.794 141.632Z" fill="#C1D0FC"/>
<path d="M521.054 85.8396C522.408 85.5223 523.821 85.5634 525.154 85.9587L632.064 117.663C633.338 118.04 634.211 119.211 634.211 120.539L634.212 131.649C634.212 133.04 633.255 134.249 631.902 134.569L514.9 162.223C512.131 162.878 509.238 162.782 506.518 161.946L403.476 130.265C402.217 129.878 401.358 128.715 401.358 127.397L401.358 116.269C401.357 114.875 402.317 113.665 403.673 113.348L521.054 85.8396Z" fill="#FF4FBC"/>
<path d="M507.88 146.124C509.218 146.534 510.641 146.585 512.005 146.272L631.765 118.861C633.018 118.575 634.211 119.526 634.211 120.811V131.648C634.211 133.04 633.253 134.25 631.898 134.568L514.164 162.227C511.387 162.88 508.486 162.778 505.762 161.932L403.468 130.184C402.213 129.794 401.357 128.633 401.357 127.319V116.237C401.357 114.892 402.657 113.931 403.943 114.324L507.88 146.124Z" fill="#D5016A"/>
<path d="M393.769 117.283C395.123 116.966 396.536 117.007 397.869 117.402L504.779 149.106C506.053 149.484 506.926 150.654 506.926 151.982L506.926 163.092C506.927 164.483 505.97 165.692 504.617 166.012L387.615 193.667C384.846 194.321 381.952 194.225 379.233 193.389L276.191 161.708C274.932 161.321 274.073 160.158 274.073 158.841L274.072 147.712C274.072 146.319 275.031 145.109 276.388 144.791L393.769 117.283Z" fill="#EEF2FF"/>
<path d="M380.595 177.567C381.933 177.977 383.356 178.028 384.72 177.716L504.48 150.305C505.732 150.018 506.926 150.97 506.926 152.254V163.091C506.926 164.484 505.968 165.693 504.612 166.012L386.879 193.671C384.102 194.323 381.201 194.221 378.477 193.376L276.183 161.627C274.928 161.238 274.072 160.076 274.072 158.762V147.68C274.072 146.336 275.372 145.374 276.657 145.767L380.595 177.567Z" fill="#C1D0FC"/>
<path d="M14.9168 142.746C16.2705 142.429 17.6835 142.47 19.0166 142.865L125.926 174.569C127.2 174.947 128.073 176.117 128.074 177.445L128.074 188.555C128.074 189.946 127.118 191.155 125.764 191.475L8.76264 219.13C5.99351 219.784 3.09991 219.688 0.380119 218.852L-102.661 187.171C-103.92 186.784 -104.78 185.621 -104.78 184.304L-104.78 173.175C-104.78 171.782 -103.821 170.572 -102.465 170.254L14.9168 142.746Z" fill="#EEF2FF"/>
<path d="M1.74207 203.03C3.08055 203.44 4.50306 203.491 5.86751 203.179L125.628 175.768C126.88 175.481 128.074 176.433 128.074 177.717V188.554C128.074 189.947 127.115 191.156 125.76 191.475L8.02609 219.134C5.24922 219.786 2.34845 219.684 -0.375824 218.839L-102.67 187.09C-103.925 186.7 -104.78 185.539 -104.78 184.225V173.143C-104.78 171.799 -103.481 170.837 -102.195 171.23L1.74207 203.03Z" fill="#C1D0FC"/>
<path d="M259.001 147.234C260.354 146.917 261.768 146.958 263.101 147.353L370.01 179.057C371.284 179.435 372.157 180.605 372.158 181.933L372.158 193.044C372.158 194.435 371.202 195.643 369.848 195.963L252.847 223.618C250.077 224.272 247.184 224.177 244.464 223.34L141.423 191.659C140.163 191.272 139.304 190.109 139.304 188.792L139.304 177.663C139.304 176.27 140.263 175.06 141.619 174.742L259.001 147.234Z" fill="#EEF2FF"/>
<path d="M245.826 207.519C247.165 207.928 248.587 207.979 249.951 207.667L369.711 180.256C370.964 179.969 372.158 180.921 372.158 182.206V193.042C372.158 194.435 371.199 195.644 369.844 195.963L252.11 223.622C249.333 224.274 246.432 224.172 243.708 223.327L141.414 191.578C140.159 191.189 139.304 190.027 139.304 188.713V177.631C139.304 176.287 140.603 175.325 141.889 175.719L245.826 207.519Z" fill="#C1D0FC"/>
<path d="M131.718 177.183C133.071 176.866 134.484 176.907 135.817 177.302L242.727 209.006C244.001 209.384 244.874 210.554 244.874 211.883L244.875 222.993C244.875 224.384 243.919 225.592 242.565 225.912L125.563 253.567C122.794 254.222 119.901 254.126 117.181 253.29L14.1393 221.609C12.8803 221.221 12.021 220.058 12.021 218.741L12.0206 207.612C12.0205 206.219 12.9796 205.009 14.3361 204.691L131.718 177.183Z" fill="#EEF2FF"/>
<path d="M118.543 237.468C119.881 237.877 121.304 237.929 122.668 237.616L242.428 210.205C243.681 209.919 244.875 210.87 244.875 212.155V222.992C244.875 224.384 243.916 225.594 242.561 225.912L124.827 253.571C122.05 254.224 119.149 254.122 116.425 253.276L14.1312 221.528C12.876 221.138 12.0205 219.977 12.0205 218.662V207.58C12.0205 206.236 13.3202 205.275 14.6056 205.668L118.543 237.468Z" fill="#C1D0FC"/>
<path d="M2.93532 208.629C4.28905 208.311 5.7021 208.352 7.03513 208.748L113.945 240.452C115.219 240.829 116.092 242 116.092 243.328L116.092 254.438C116.093 255.829 115.136 257.038 113.783 257.358L-3.2188 285.012C-5.98794 285.667 -8.88154 285.571 -11.6013 284.735L-114.643 253.054C-115.902 252.667 -116.761 251.504 -116.761 250.186L-116.762 239.058C-116.762 237.664 -115.803 236.455 -114.446 236.137L2.93532 208.629Z" fill="#FF4FBE"/>
<path d="M-10.2394 268.913C-8.90089 269.323 -7.47839 269.374 -6.11394 269.062L113.646 241.651C114.898 241.364 116.092 242.315 116.092 243.6V254.437C116.092 255.829 115.134 257.039 113.778 257.357L-3.95535 285.016C-6.73222 285.669 -9.633 285.567 -12.3573 284.721L-114.651 252.973C-115.906 252.583 -116.762 251.422 -116.762 250.108V239.026C-116.762 237.681 -115.462 236.72 -114.177 237.113L-10.2394 268.913Z" fill="#D50069"/>
<path d="M637.855 120.281C639.209 119.964 640.622 120.005 641.955 120.4L748.865 152.104C750.138 152.482 751.012 153.652 751.012 154.98L751.012 166.09C751.012 167.481 750.056 168.69 748.702 169.01L631.701 196.665C628.932 197.319 626.038 197.224 623.319 196.387L520.277 164.706C519.018 164.319 518.159 163.156 518.159 161.839L518.158 150.71C518.158 149.317 519.117 148.107 520.474 147.789L637.855 120.281Z" fill="#FF4FBC"/>
<path d="M624.681 180.566C626.019 180.975 627.442 181.026 628.806 180.714L748.566 153.303C749.818 153.016 751.012 153.968 751.012 155.252V166.089C751.012 167.482 750.054 168.691 748.698 169.01L630.965 196.669C628.188 197.321 625.287 197.219 622.563 196.374L520.269 164.625C519.014 164.236 518.158 163.074 518.158 161.76V150.678C518.158 149.334 519.458 148.372 520.743 148.766L624.681 180.566Z" fill="#D5016A"/>
<path d="M510.573 153.226C511.927 152.909 513.34 152.95 514.673 153.345L621.583 185.049C622.856 185.427 623.73 186.597 623.73 187.926L623.73 199.036C623.73 200.427 622.774 201.635 621.42 201.955L504.419 229.61C501.65 230.265 498.756 230.169 496.036 229.333L392.995 197.651C391.736 197.264 390.876 196.101 390.876 194.784L390.876 183.655C390.876 182.262 391.835 181.052 393.192 180.734L510.573 153.226Z" fill="#EEF2FF"/>
<path d="M497.398 213.511C498.737 213.92 500.159 213.971 501.524 213.659L621.284 186.248C622.536 185.962 623.73 186.913 623.73 188.198V199.035C623.73 200.427 622.772 201.637 621.416 201.955L503.682 229.614C500.905 230.266 498.005 230.165 495.28 229.319L392.987 197.571C391.731 197.181 390.876 196.02 390.876 194.705V183.623C390.876 182.279 392.176 181.318 393.461 181.711L497.398 213.511Z" fill="#C1D0FC"/>
<path d="M377.3 181.674C378.653 181.356 380.066 181.397 381.399 181.793L488.309 213.497C489.583 213.874 490.456 215.044 490.456 216.373L490.457 227.483C490.457 228.874 489.501 230.083 488.147 230.403L371.145 258.057C368.376 258.712 365.483 258.616 362.763 257.78L259.721 226.099C258.462 225.712 257.603 224.549 257.603 223.231L257.603 212.103C257.603 210.709 258.562 209.499 259.918 209.182L377.3 181.674Z" fill="#FF4FBD"/>
<path d="M364.125 241.958C365.463 242.368 366.886 242.419 368.25 242.106L488.01 214.695C489.263 214.409 490.457 215.36 490.457 216.645V227.482C490.457 228.874 489.498 230.084 488.143 230.402L370.409 258.061C367.632 258.714 364.731 258.612 362.007 257.766L259.713 226.018C258.458 225.628 257.603 224.467 257.603 223.153V212.071C257.603 210.726 258.902 209.765 260.188 210.158L364.125 241.958Z" fill="#D5006A"/>
<path d="M245.523 213.123C246.877 212.806 248.29 212.847 249.623 213.242L356.533 244.946C357.806 245.324 358.68 246.494 358.68 247.822L358.68 258.932C358.68 260.323 357.724 261.532 356.37 261.852L239.369 289.507C236.6 290.161 233.706 290.065 230.987 289.229L127.945 257.548C126.686 257.161 125.827 255.998 125.827 254.681L125.826 243.552C125.826 242.159 126.785 240.949 128.142 240.631L245.523 213.123Z" fill="#303251"/>
<path d="M232.349 273.407C233.687 273.817 235.11 273.868 236.474 273.556L356.234 246.145C357.486 245.858 358.68 246.81 358.68 248.094V258.931C358.68 260.324 357.722 261.533 356.366 261.852L238.633 289.511C235.856 290.163 232.955 290.061 230.231 289.216L127.937 257.467C126.682 257.077 125.826 255.916 125.826 254.602V243.52C125.826 242.176 127.126 241.214 128.411 241.607L232.349 273.407Z" fill="#151423"/>
<path d="M1022.7 96.322C1024.06 96.0047 1025.47 96.0458 1026.8 96.4411L1133.71 128.145C1134.99 128.523 1135.86 129.693 1135.86 131.021L1135.86 142.131C1135.86 143.522 1134.9 144.731 1133.55 145.051L1016.55 172.706C1013.78 173.36 1010.89 173.265 1008.17 172.428L905.124 140.747C903.865 140.36 903.005 139.197 903.005 137.88L903.005 126.751C903.005 125.358 903.964 124.148 905.32 123.83L1022.7 96.322Z" fill="#EEF2FF"/>
<path d="M1009.53 156.607C1010.87 157.016 1012.29 157.067 1013.65 156.755L1133.41 129.344C1134.66 129.057 1135.86 130.009 1135.86 131.293V142.13C1135.86 143.523 1134.9 144.732 1133.54 145.051L1015.81 172.71C1013.03 173.362 1010.13 173.26 1007.41 172.415L905.116 140.666C903.86 140.277 903.005 139.115 903.005 137.801V126.719C903.005 125.375 904.305 124.413 905.59 124.807L1009.53 156.607Z" fill="#C1D0FC"/>
<path d="M888.421 126.254C889.755 125.947 891.146 125.987 892.46 126.37L1001.17 158.099C1002.45 158.472 1003.33 159.646 1003.33 160.979L1003.33 172.075C1003.33 173.468 1002.37 174.677 1001.02 174.996L883.201 202.676C880.477 203.316 877.634 203.231 874.954 202.429L768.876 170.684C767.606 170.304 766.736 169.135 766.736 167.81L766.735 156.707C766.735 155.31 767.7 154.097 769.061 153.783L888.421 126.254Z" fill="#303251"/>
<path d="M875.032 186.575C876.352 186.972 877.752 187.022 879.097 186.719L1000.89 159.283C1002.14 159.001 1003.33 159.952 1003.33 161.234V172.071C1003.33 173.467 1002.37 174.679 1001.01 174.994L881.223 202.689C878.487 203.322 875.631 203.223 872.945 202.403L768.859 170.609C767.597 170.224 766.735 169.059 766.735 167.74V156.656C766.735 155.315 768.028 154.354 769.312 154.741L875.032 186.575Z" fill="#151423"/>
<path d="M753.159 156.222C754.513 155.905 755.926 155.946 757.259 156.341L864.169 188.046C865.442 188.423 866.316 189.593 866.316 190.922L866.316 202.008C866.316 203.41 865.345 204.625 863.978 204.934L744.683 231.918C741.962 232.533 739.126 232.426 736.459 231.608L635.582 200.647C634.322 200.26 633.462 199.097 633.462 197.779L633.462 186.651C633.462 185.258 634.421 184.048 635.777 183.73L753.159 156.222Z" fill="#EEF2FF"/>
<path d="M739.984 216.507C741.323 216.916 742.745 216.968 744.11 216.655L863.87 189.244C865.122 188.958 866.316 189.909 866.316 191.194V202.031C866.316 203.423 865.358 204.633 864.002 204.951L746.268 232.61C743.491 233.263 740.591 233.161 737.866 232.315L635.573 200.567C634.317 200.177 633.462 199.016 633.462 197.701V186.619C633.462 185.275 634.762 184.314 636.047 184.707L739.984 216.507Z" fill="#C1D0FC"/>
<path d="M622.883 187.668C624.236 187.35 625.649 187.391 626.982 187.787L733.892 219.491C735.166 219.868 736.039 221.039 736.039 222.367L736.04 233.477C736.04 234.868 735.084 236.077 733.73 236.397L616.728 264.052C613.959 264.706 611.066 264.61 608.346 263.774L505.304 232.093C504.045 231.706 503.186 230.543 503.186 229.225L503.186 218.097C503.186 216.703 504.145 215.494 505.501 215.176L622.883 187.668Z" fill="#EEF2FF"/>
<path d="M609.708 247.954C611.046 248.364 612.469 248.415 613.833 248.103L733.593 220.692C734.846 220.405 736.04 221.356 736.04 222.641V233.478C736.04 234.871 735.081 236.08 733.726 236.398L615.992 264.057C613.215 264.71 610.314 264.608 607.59 263.762L505.296 232.014C504.041 231.624 503.186 230.463 503.186 229.149V218.067C503.186 216.722 504.485 215.761 505.771 216.154L609.708 247.954Z" fill="#C1D0FC"/>
<path d="M1400.55 69.3541C1401.88 69.0464 1403.27 69.0862 1404.59 69.4698L1513.3 101.198C1514.58 101.572 1515.46 102.745 1515.46 104.078L1515.46 115.175C1515.46 116.568 1514.5 117.777 1513.15 118.096L1395.33 145.776C1392.61 146.416 1389.76 146.33 1387.08 145.528L1281 113.783C1279.73 113.403 1278.86 112.235 1278.86 110.909L1278.86 99.8065C1278.86 98.4093 1279.83 97.1971 1281.19 96.8831L1400.55 69.3541Z" fill="#EEF2FF"/>
<path d="M1387.16 129.672C1388.48 130.07 1389.88 130.119 1391.22 129.816L1513.02 102.38C1514.27 102.099 1515.46 103.05 1515.46 104.331V115.169C1515.46 116.565 1514.5 117.777 1513.14 118.091L1393.35 145.787C1390.61 146.42 1387.76 146.321 1385.07 145.5L1280.99 113.707C1279.73 113.321 1278.86 112.157 1278.86 110.838V99.7534C1278.86 98.4128 1280.16 97.4518 1281.44 97.8384L1387.16 129.672Z" fill="#C1D0FC"/>
<path d="M1266.78 99.3142C1268.14 98.9969 1269.55 99.038 1270.88 99.4333L1377.79 131.137C1379.07 131.515 1379.94 132.685 1379.94 134.013L1379.94 145.1C1379.94 146.502 1378.97 147.717 1377.6 148.026L1258.31 175.009C1255.59 175.625 1252.75 175.518 1250.08 174.699L1149.21 143.739C1147.95 143.352 1147.09 142.189 1147.09 140.871L1147.09 129.743C1147.09 128.35 1148.05 127.14 1149.4 126.822L1266.78 99.3142Z" fill="#EEF2FF"/>
<path d="M1253.61 159.599C1254.95 160.008 1256.37 160.059 1257.74 159.747L1377.5 132.336C1378.75 132.049 1379.94 133.001 1379.94 134.286V326.31C1379.94 327.703 1378.98 328.912 1377.63 329.231L1259.89 356.89C1257.12 357.542 1254.22 357.44 1251.49 356.595L1149.2 324.846C1147.94 324.456 1147.09 323.295 1147.09 321.981V129.711C1147.09 128.367 1148.39 127.405 1149.67 127.799L1253.61 159.599Z" fill="url(#paint0_linear_19189_12644)"/>
<path d="M1141 130.763C1142.35 130.446 1143.76 130.487 1145.1 130.883L1252.01 162.587C1253.28 162.964 1254.15 164.134 1254.15 165.463L1254.15 176.573C1254.16 177.964 1253.2 179.173 1251.85 179.492L1134.84 207.147C1132.07 207.802 1129.18 207.706 1126.46 206.87L1023.42 175.189C1022.16 174.801 1021.3 173.638 1021.3 172.321L1021.3 161.192C1021.3 159.799 1022.26 158.589 1023.62 158.271L1141 130.763Z" fill="#EEF2FF"/>
<path d="M1127.82 191.048C1129.16 191.457 1130.58 191.509 1131.95 191.196L1251.71 163.785C1252.96 163.499 1254.15 164.45 1254.15 165.735V176.572C1254.15 177.964 1253.2 179.174 1251.84 179.492L1134.11 207.151C1131.33 207.804 1128.43 207.702 1125.71 206.856L1023.41 175.108C1022.16 174.718 1021.3 173.557 1021.3 172.242V161.16C1021.3 159.816 1022.6 158.855 1023.89 159.248L1127.82 191.048Z" fill="#C1D0FC"/>
<path d="M1006.72 160.698C1008.05 160.39 1009.45 160.43 1010.76 160.814L1119.47 192.542C1120.75 192.916 1121.63 194.089 1121.63 195.422L1121.63 206.519C1121.63 207.911 1120.67 209.121 1119.32 209.439L1001.5 237.12C998.777 237.759 995.934 237.674 993.254 236.872L887.176 205.127C885.906 204.747 885.036 203.578 885.036 202.253L885.035 191.15C885.035 189.753 886 188.541 887.361 188.227L1006.72 160.698Z" fill="#EEF2FF"/>
<path d="M993.332 221.016C994.652 221.413 996.052 221.463 997.397 221.16L1119.19 193.724C1120.44 193.442 1121.63 194.393 1121.63 195.675V206.512C1121.63 207.909 1120.67 209.121 1119.31 209.435L999.523 237.131C996.786 237.764 993.931 237.665 991.245 236.844L887.159 205.05C885.897 204.665 885.035 203.501 885.035 202.181V191.097C885.035 189.757 886.328 188.796 887.612 189.182L993.332 221.016Z" fill="url(#paint1_linear_19189_12644)"/>
<path d="M871.459 190.658C872.812 190.341 874.226 190.382 875.559 190.777L982.468 222.481C983.742 222.859 984.615 224.029 984.616 225.357L984.616 236.444C984.616 237.846 983.645 239.061 982.278 239.37L862.983 266.353C860.261 266.969 857.426 266.862 854.759 266.043L753.882 235.082C752.622 234.696 751.762 233.532 751.762 232.215L751.762 221.087C751.762 219.694 752.721 218.484 754.077 218.166L871.459 190.658Z" fill="#EEF2FF"/>
<path d="M858.284 250.944C859.623 251.354 861.045 251.405 862.41 251.093L982.169 223.682C983.422 223.395 984.616 224.347 984.616 225.631V236.468C984.616 237.861 983.657 239.07 982.302 239.389L864.568 267.048C861.791 267.7 858.89 267.598 856.166 266.753L753.872 235.004C752.617 234.615 751.762 233.453 751.762 232.139V221.057C751.762 219.713 753.061 218.751 754.347 219.144L858.284 250.944Z" fill="#C1D0FC"/>
<path d="M741.18 222.105C742.534 221.788 743.947 221.829 745.28 222.224L852.19 253.928C853.464 254.306 854.337 255.476 854.337 256.804L854.338 267.915C854.338 269.306 853.381 270.514 852.028 270.834L735.026 298.489C732.257 299.144 729.364 299.048 726.644 298.212L623.602 266.53C622.343 266.143 621.484 264.98 621.484 263.663L621.483 252.534C621.483 251.141 622.443 249.931 623.799 249.613L741.18 222.105Z" fill="#EEF2FF"/>
<path d="M728.006 282.392C729.344 282.801 730.767 282.852 732.131 282.54L851.891 255.129C853.143 254.842 854.337 255.794 854.337 257.079V267.915C854.337 269.308 853.379 270.517 852.024 270.836L734.29 298.495C731.513 299.147 728.612 299.045 725.888 298.2L623.594 266.451C622.339 266.062 621.483 264.901 621.483 263.586V252.504C621.483 251.16 622.783 250.198 624.069 250.592L728.006 282.392Z" fill="#C1D0FC"/>
<path d="M611.393 252.044C612.727 251.736 614.118 251.776 615.433 252.159L724.145 283.888C725.425 284.261 726.305 285.435 726.305 286.768L726.305 297.864C726.305 299.257 725.347 300.467 723.991 300.785L606.173 328.465C603.45 329.105 600.607 329.02 597.927 328.218L491.848 296.473C490.578 296.093 489.709 294.924 489.708 293.599L489.708 282.496C489.708 281.099 490.672 279.887 492.034 279.573L611.393 252.044Z" fill="#FF4FBD"/>
<path d="M598.005 312.362C599.325 312.759 600.725 312.809 602.07 312.506L723.866 285.07C725.116 284.788 726.305 285.739 726.305 287.021V297.858C726.305 299.255 725.342 300.466 723.981 300.781L604.196 328.477C601.459 329.109 598.604 329.01 595.918 328.19L491.832 296.396C490.57 296.011 489.708 294.846 489.708 293.527V282.443C489.708 281.102 491.001 280.141 492.285 280.528L598.005 312.362Z" fill="#D5006A"/>
<path d="M477.63 282.004C478.983 281.686 480.396 281.727 481.729 282.123L588.639 313.827C589.913 314.204 590.786 315.375 590.786 316.703L590.787 327.789C590.787 329.191 589.816 330.406 588.449 330.716L469.154 357.699C466.432 358.314 463.597 358.208 460.929 357.389L360.053 326.428C358.793 326.041 357.933 324.878 357.933 323.56L357.933 312.433C357.933 311.039 358.892 309.83 360.248 309.512L477.63 282.004Z" fill="#FF4FBD"/>
<path d="M464.455 342.288C465.793 342.698 467.216 342.749 468.58 342.437L588.34 315.026C589.593 314.739 590.787 315.69 590.787 316.975V327.812C590.787 329.204 589.828 330.414 588.473 330.732L470.739 358.391C467.962 359.044 465.061 358.942 462.337 358.096L360.043 326.348C358.788 325.958 357.933 324.797 357.933 323.483V312.401C357.933 311.056 359.232 310.095 360.518 310.488L464.455 342.288Z" fill="#D5006A"/>
<path d="M347.351 313.453C348.705 313.136 350.118 313.177 351.451 313.572L458.361 345.276C459.635 345.654 460.508 346.824 460.508 348.152L460.508 359.262C460.509 360.653 459.552 361.862 458.199 362.182L341.197 389.837C338.428 390.491 335.534 390.395 332.815 389.559L229.773 357.878C228.514 357.491 227.655 356.328 227.655 355.011L227.654 343.882C227.654 342.489 228.613 341.279 229.97 340.961L347.351 313.453Z" fill="#EEF2FF"/>
<path d="M334.177 373.737C335.515 374.147 336.938 374.198 338.302 373.886L458.062 346.475C459.314 346.188 460.508 347.14 460.508 348.424V359.261C460.508 360.654 459.55 361.863 458.194 362.182L340.461 389.841C337.684 390.493 334.783 390.391 332.059 389.546L229.765 357.797C228.51 357.408 227.654 356.246 227.654 354.932V343.85C227.654 342.506 228.954 341.544 230.239 341.937L334.177 373.737Z" fill="#C1D0FC"/>
<path d="M217.562 343.387C218.896 343.08 220.287 343.119 221.602 343.503L330.314 375.232C331.594 375.605 332.474 376.778 332.474 378.111L332.474 389.208C332.474 390.601 331.516 391.81 330.16 392.129L212.342 419.809C209.619 420.449 206.776 420.363 204.096 419.561L98.0173 387.816C96.7474 387.436 95.8775 386.268 95.8774 384.942L95.877 373.84C95.877 372.443 96.8414 371.23 98.2028 370.916L217.562 343.387Z" fill="#EEF2FF"/>
<path d="M204.174 403.705C205.494 404.103 206.894 404.152 208.239 403.85L330.035 376.414C331.285 376.132 332.474 377.083 332.474 378.365V520.229C332.474 521.625 331.51 522.837 330.15 523.151L210.365 550.847C207.628 551.48 204.773 551.381 202.087 550.56L98.0006 518.767C96.7388 518.381 95.877 517.217 95.877 515.898V373.787C95.877 372.446 97.17 371.485 98.4536 371.872L204.174 403.705Z" fill="url(#paint2_linear_19189_12644)"/>
<path d="M857.981 256.55C859.335 256.233 860.748 256.274 862.081 256.67L968.991 288.374C970.264 288.751 971.138 289.921 971.138 291.25L971.138 302.336C971.138 303.738 970.168 304.953 968.8 305.262L849.505 332.246C846.784 332.861 843.949 332.754 841.281 331.936L740.404 300.975C739.145 300.588 738.285 299.425 738.285 298.107L738.284 286.98C738.284 285.586 739.243 284.376 740.6 284.059L857.981 256.55Z" fill="#EEF2FF"/>
<path d="M841.811 315.339C843.15 315.748 844.572 315.8 845.937 315.487L965.697 288.076C966.949 287.79 968.143 288.741 968.143 290.026V300.863C968.143 302.255 967.185 303.465 965.829 303.783L848.095 331.442C845.319 332.095 842.418 331.993 839.694 331.147L737.4 299.399C736.145 299.009 735.289 297.848 735.289 296.533V285.451C735.289 284.107 736.589 283.146 737.874 283.539L841.811 315.339Z" fill="#C1D0FC"/>
<path d="M729.202 286.496C730.556 286.179 731.969 286.22 733.302 286.615L840.212 318.319C841.485 318.697 842.359 319.867 842.359 321.195L842.359 332.305C842.359 333.696 841.403 334.905 840.049 335.225L723.048 362.88C720.279 363.534 717.385 363.438 714.665 362.602L611.624 330.921C610.365 330.534 609.505 329.371 609.505 328.054L609.505 316.925C609.505 315.532 610.464 314.322 611.82 314.004L729.202 286.496Z" fill="#EEF2FF"/>
<path d="M716.027 346.78C717.366 347.19 718.788 347.241 720.153 346.929L839.913 319.518C841.165 319.231 842.359 320.183 842.359 321.467V332.304C842.359 333.697 841.401 334.906 840.045 335.225L722.311 362.884C719.534 363.536 716.634 363.434 713.909 362.589L611.616 330.84C610.36 330.45 609.505 329.289 609.505 327.975V316.893C609.505 315.549 610.805 314.587 612.09 314.98L716.027 346.78Z" fill="#C1D0FC"/>
<path d="M970.289 289.494C971.643 289.177 973.056 289.218 974.389 289.613L1081.3 321.317C1082.57 321.695 1083.45 322.865 1083.45 324.193L1083.45 335.297C1083.45 336.691 1082.49 337.901 1081.13 338.218L962.65 365.887C959.873 366.535 956.973 366.43 954.25 365.581L852.699 333.925C851.446 333.534 850.592 332.374 850.592 331.061L850.592 319.923C850.592 318.53 851.551 317.32 852.907 317.002L970.289 289.494Z" fill="#EEF2FF"/>
<path d="M957.114 349.778C958.453 350.188 959.875 350.239 961.24 349.927L1081 322.516C1082.25 322.229 1083.45 323.181 1083.45 324.465V335.302C1083.45 336.695 1082.49 337.904 1081.13 338.223L963.398 365.882C960.621 366.534 957.721 366.432 954.996 365.587L852.703 333.838C851.447 333.449 850.592 332.287 850.592 330.973V319.891C850.592 318.547 851.891 317.585 853.177 317.978L957.114 349.778Z" fill="#C1D0FC"/>
<path d="M1518.85 105.29C1520.18 104.982 1521.57 105.022 1522.89 105.405L1631.6 137.134C1632.88 137.508 1633.76 138.681 1633.76 140.014L1633.76 151.111C1633.76 152.503 1632.8 153.713 1631.45 154.031L1513.63 181.711C1510.91 182.351 1508.06 182.266 1505.38 181.464L1399.3 149.719C1398.03 149.339 1397.16 148.17 1397.16 146.845L1397.16 135.742C1397.16 134.345 1398.13 133.133 1399.49 132.819L1518.85 105.29Z" fill="#EEF2FF"/>
<path d="M1505.46 165.608C1506.78 166.005 1508.18 166.055 1509.53 165.752L1631.32 138.316C1632.57 138.034 1633.76 138.985 1633.76 140.267V151.104C1633.76 152.501 1632.8 153.712 1631.44 154.027L1511.65 181.723C1508.92 182.355 1506.06 182.257 1503.37 181.436L1399.29 149.642C1398.03 149.257 1397.16 148.092 1397.16 146.773V135.689C1397.16 134.348 1398.46 133.387 1399.74 133.774L1505.46 165.608Z" fill="#C1D0FC"/>
<path d="M1502.38 171.176C1503.71 170.869 1505.1 170.908 1506.42 171.292L1615.13 203.021C1616.41 203.394 1617.29 204.567 1617.29 205.9L1617.29 216.997C1617.29 218.39 1616.33 219.599 1614.98 219.918L1497.16 247.598C1494.43 248.238 1491.59 248.152 1488.91 247.35L1382.83 215.605C1381.56 215.225 1380.69 214.057 1380.69 212.731L1380.69 201.629C1380.69 200.232 1381.66 199.019 1383.02 198.705L1502.38 171.176Z" fill="#2F304F"/>
<path d="M1488.99 231.494C1490.31 231.892 1491.71 231.942 1493.05 231.639L1614.85 204.203C1616.1 203.921 1617.29 204.872 1617.29 206.154V216.991C1617.29 218.387 1616.33 219.599 1614.97 219.914L1495.18 247.609C1492.44 248.242 1489.59 248.143 1486.9 247.323L1382.82 215.529C1381.55 215.144 1380.69 213.979 1380.69 212.66V201.576C1380.69 200.235 1381.99 199.274 1383.27 199.661L1488.99 231.494Z" fill="#27273F"/>
<path d="M597.916 316.432C599.25 316.124 600.641 316.164 601.955 316.548L710.668 348.277C711.948 348.65 712.827 349.823 712.827 351.156L712.828 362.253C712.828 363.646 711.87 364.855 710.514 365.174L592.696 392.854C589.972 393.494 587.129 393.408 584.449 392.606L478.371 360.861C477.101 360.481 476.231 359.313 476.231 357.987L476.231 346.885C476.231 345.487 477.195 344.275 478.556 343.961L597.916 316.432Z" fill="#EEF2FF"/>
<path d="M584.528 376.75C585.847 377.148 587.247 377.197 588.592 376.894L710.388 349.458C711.639 349.177 712.828 350.128 712.828 351.41V362.247C712.828 363.643 711.864 364.855 710.503 365.17L590.719 392.865C587.982 393.498 585.127 393.399 582.44 392.579L478.354 360.785C477.092 360.399 476.23 359.235 476.23 357.916V346.832C476.23 345.491 477.523 344.53 478.807 344.916L584.528 376.75Z" fill="#C1D0FC"/>
<path d="M468.644 347.894C469.998 347.577 471.411 347.618 472.744 348.013L579.654 379.717C580.928 380.095 581.801 381.265 581.801 382.593L581.801 393.704C581.802 395.095 580.845 396.303 579.492 396.623L462.49 424.278C459.721 424.933 456.827 424.837 454.108 424.001L351.066 392.319C349.807 391.932 348.948 390.769 348.948 389.452L348.947 378.323C348.947 376.93 349.906 375.72 351.263 375.402L468.644 347.894Z" fill="#EEF2FF"/>
<path d="M455.47 408.179C456.808 408.588 458.231 408.639 459.595 408.327L579.355 380.916C580.607 380.629 581.801 381.581 581.801 382.866V393.703C581.801 395.095 580.843 396.305 579.487 396.623L461.754 424.282C458.977 424.934 456.076 424.833 453.352 423.987L351.058 392.238C349.803 391.849 348.947 390.688 348.947 389.373V378.291C348.947 376.947 350.247 375.986 351.532 376.379L455.47 408.179Z" fill="#C1D0FC"/>
<path d="M338.855 377.827C340.189 377.519 341.58 377.559 342.894 377.942L451.607 409.671C452.887 410.045 453.767 411.218 453.767 412.551L453.767 423.648C453.767 425.04 452.809 426.25 451.453 426.568L333.635 454.248C330.912 454.888 328.068 454.803 325.389 454.001L219.31 422.256C218.04 421.876 217.17 420.707 217.17 419.382L217.17 408.279C217.17 406.882 218.134 405.67 219.496 405.356L338.855 377.827Z" fill="#EEF2FF"/>
<path d="M325.467 438.145C326.787 438.542 328.187 438.592 329.532 438.289L451.327 410.853C452.578 410.571 453.767 411.522 453.767 412.804V527.71C453.767 529.107 452.803 530.318 451.443 530.633L331.658 558.329C328.921 558.961 326.066 558.863 323.38 558.042L219.294 526.248C218.032 525.863 217.17 524.698 217.17 523.379L217.17 408.226C217.17 406.886 218.463 405.924 219.747 406.311L325.467 438.145Z" fill="url(#paint3_linear_19189_12644)"/>
<path d="M582.45 380.84C583.804 380.522 585.217 380.563 586.55 380.959L693.46 412.663C694.733 413.04 695.607 414.211 695.607 415.539L695.607 426.649C695.607 428.04 694.651 429.249 693.297 429.569L576.296 457.223C573.527 457.878 570.633 457.782 567.913 456.946L464.872 425.265C463.613 424.878 462.753 423.715 462.753 422.397L462.753 411.269C462.753 409.875 463.712 408.665 465.069 408.348L582.45 380.84Z" fill="#40347C"/>
<path d="M569.275 441.124C570.614 441.534 572.036 441.585 573.401 441.272L693.161 413.861C694.413 413.575 695.607 414.526 695.607 415.811V426.648C695.607 428.04 694.649 429.25 693.293 429.568L575.559 457.227C572.782 457.88 569.882 457.778 567.157 456.932L464.864 425.184C463.608 424.794 462.753 423.633 462.753 422.319V411.237C462.753 409.892 464.053 408.931 465.338 409.324L569.275 441.124Z" fill="#241F68"/>
<path d="M696.258 415.277C697.611 414.96 699.024 415.001 700.357 415.396L807.267 447.1C808.541 447.478 809.414 448.648 809.414 449.976L809.415 461.086C809.415 462.478 808.459 463.686 807.105 464.006L690.103 491.661C687.334 492.315 684.441 492.22 681.721 491.383L578.679 459.702C577.42 459.315 576.561 458.152 576.561 456.835L576.561 445.706C576.561 444.313 577.52 443.103 578.876 442.785L696.258 415.277Z" fill="#40347C"/>
<path d="M683.083 475.562C684.421 475.971 685.844 476.022 687.208 475.71L806.968 448.299C808.221 448.012 809.415 448.964 809.415 450.249V461.085C809.415 462.478 808.456 463.687 807.101 464.006L689.367 491.665C686.59 492.317 683.689 492.215 680.965 491.37L578.671 459.621C577.416 459.232 576.561 458.07 576.561 456.756V445.674C576.561 444.33 577.86 443.368 579.146 443.762L683.083 475.562Z" fill="#241F68"/>
<path d="M813.057 449.722C814.411 449.405 815.824 449.446 817.157 449.841L924.067 481.546C925.341 481.923 926.214 483.093 926.214 484.422L926.215 495.532C926.215 496.923 925.258 498.131 923.905 498.451L806.903 526.106C804.134 526.761 801.241 526.665 798.521 525.829L695.479 494.148C694.22 493.76 693.361 492.597 693.361 491.28L693.36 480.151C693.36 478.758 694.319 477.548 695.676 477.23L813.057 449.722Z" fill="#40347C"/>
<path d="M799.883 510.007C801.221 510.416 802.644 510.468 804.008 510.155L923.768 482.744C925.02 482.458 926.214 483.409 926.214 484.694V495.531C926.214 496.923 925.256 498.133 923.9 498.451L806.167 526.11C803.39 526.763 800.489 526.661 797.765 525.815L695.471 494.067C694.216 493.677 693.36 492.516 693.36 491.201V480.119C693.36 478.775 694.66 477.814 695.945 478.207L799.883 510.007Z" fill="#241F68"/>
<path d="M454.16 410.77C455.494 410.462 456.885 410.502 458.199 410.886L566.912 442.614C568.192 442.988 569.071 444.161 569.072 445.494L569.072 456.591C569.072 457.984 568.114 459.193 566.758 459.512L448.94 487.192C446.217 487.832 443.373 487.746 440.693 486.944L334.615 455.199C333.345 454.819 332.475 453.651 332.475 452.325L332.475 441.222C332.475 439.825 333.439 438.613 334.8 438.299L454.16 410.77Z" fill="#1E1D2B"/>
<path d="M440.772 471.088C442.091 471.486 443.492 471.535 444.836 471.232L566.632 443.796C567.883 443.515 569.072 444.466 569.072 445.747V498.509C569.072 499.906 568.108 501.118 566.747 501.432L446.963 529.128C444.226 529.761 441.371 529.662 438.684 528.841L334.598 497.047C333.336 496.662 332.475 495.497 332.475 494.178L332.475 441.169C332.475 439.829 333.768 438.868 335.051 439.254L440.772 471.088Z" fill="#151525"/>
<path d="M569.464 445.211C570.798 444.904 572.189 444.944 573.503 445.327L682.216 477.056C683.495 477.429 684.375 478.603 684.375 479.936L684.376 491.032C684.376 492.425 683.417 493.635 682.062 493.953L564.244 521.633C561.52 522.273 558.677 522.188 555.997 521.386L449.919 489.641C448.649 489.261 447.779 488.092 447.779 486.767L447.778 475.664C447.778 474.267 448.743 473.055 450.104 472.741L569.464 445.211Z" fill="#1E1D2B"/>
<path d="M556.075 505.53C557.395 505.927 558.795 505.977 560.14 505.674L681.936 478.238C683.186 477.956 684.375 478.907 684.375 480.189V537.443C684.375 538.84 683.412 540.051 682.051 540.366L562.266 568.062C559.53 568.694 556.674 568.595 553.988 567.775L449.902 535.981C448.64 535.596 447.778 534.431 447.778 533.112L447.778 475.611C447.778 474.27 449.071 473.309 450.355 473.696L556.075 505.53Z" fill="#16161E"/>
<path d="M687.272 479.668C688.626 479.35 690.039 479.391 691.372 479.787L798.282 511.491C799.555 511.868 800.429 513.039 800.429 514.367L800.429 525.477C800.429 526.868 799.473 528.077 798.119 528.397L681.118 556.052C678.349 556.706 675.455 556.61 672.736 555.774L569.694 524.093C568.435 523.706 567.576 522.543 567.576 521.225L567.575 510.097C567.575 508.703 568.534 507.494 569.891 507.176L687.272 479.668Z" fill="#40347C"/>
<path d="M674.098 539.952C675.436 540.362 676.859 540.413 678.223 540.101L797.983 512.69C799.235 512.403 800.429 513.354 800.429 514.639V525.476C800.429 526.869 799.471 528.078 798.115 528.397L680.382 556.056C677.605 556.708 674.704 556.606 671.98 555.761L569.686 524.012C568.431 523.622 567.575 522.461 567.575 521.147V510.065C567.575 508.72 568.875 507.759 570.16 508.152L674.098 539.952Z" fill="#241F68"/>
<path d="M1480.92 231.09C1482.28 230.772 1483.69 230.813 1485.02 231.209L1591.93 262.913C1593.21 263.29 1594.08 264.461 1594.08 265.789L1594.08 276.875C1594.08 278.277 1593.11 279.492 1591.74 279.802L1472.45 306.785C1469.73 307.4 1466.89 307.294 1464.22 306.475L1363.35 275.514C1362.09 275.127 1361.23 273.964 1361.23 272.646L1361.23 261.519C1361.23 260.125 1362.18 258.915 1363.54 258.598L1480.92 231.09Z" fill="#EEF2FF"/>
<path d="M1467.75 291.376C1469.09 291.786 1470.51 291.837 1471.87 291.524L1591.63 264.113C1592.89 263.827 1594.08 264.778 1594.08 266.063V276.9C1594.08 278.292 1593.12 279.502 1591.77 279.82L1474.03 307.479C1471.26 308.132 1468.35 308.03 1465.63 307.184L1363.34 275.436C1362.08 275.046 1361.23 273.885 1361.23 272.571V261.489C1361.23 260.144 1362.53 259.183 1363.81 259.576L1467.75 291.376Z" fill="#C1D0FC"/>
<path d="M1350.64 262.543C1352 262.225 1353.41 262.266 1354.74 262.662L1461.65 294.366C1462.93 294.743 1463.8 295.914 1463.8 297.242L1463.8 308.352C1463.8 309.743 1462.84 310.952 1461.49 311.272L1344.49 338.927C1341.72 339.581 1338.83 339.485 1336.11 338.649L1233.06 306.968C1231.81 306.581 1230.95 305.418 1230.95 304.1L1230.95 292.972C1230.95 291.578 1231.9 290.369 1233.26 290.051L1350.64 262.543Z" fill="#EEF2FF"/>
<path d="M1337.47 322.827C1338.81 323.237 1340.23 323.288 1341.59 322.976L1461.35 295.565C1462.61 295.278 1463.8 296.229 1463.8 297.514V308.351C1463.8 309.744 1462.84 310.953 1461.49 311.272L1343.75 338.931C1340.97 339.583 1338.07 339.481 1335.35 338.636L1233.06 306.887C1231.8 306.497 1230.95 305.336 1230.95 304.022V292.94C1230.95 291.595 1232.24 290.634 1233.53 291.027L1337.47 322.827Z" fill="#C1D0FC"/>
<path d="M1220.86 292.473C1222.19 292.165 1223.58 292.205 1224.89 292.589L1333.61 324.318C1334.89 324.691 1335.77 325.864 1335.77 327.197L1335.77 338.294C1335.77 339.687 1334.81 340.896 1333.45 341.215L1215.64 368.895C1212.91 369.535 1210.07 369.449 1207.39 368.647L1101.31 336.902C1100.04 336.522 1099.17 335.354 1099.17 334.028L1099.17 322.926C1099.17 321.528 1100.13 320.316 1101.5 320.002L1220.86 292.473Z" fill="#EEF2FF"/>
<path d="M1207.47 352.791C1208.79 353.189 1210.19 353.238 1211.53 352.935L1333.33 325.5C1334.58 325.218 1335.77 326.169 1335.77 327.451V338.288C1335.77 339.684 1334.8 340.896 1333.44 341.211L1213.66 368.906C1210.92 369.539 1208.07 369.44 1205.38 368.62L1101.29 336.826C1100.03 336.44 1099.17 335.276 1099.17 333.957V322.873C1099.17 321.532 1100.46 320.571 1101.75 320.958L1207.47 352.791Z" fill="#C1D0FC"/>
<path d="M1088.59 323.933C1089.94 323.616 1091.36 323.657 1092.69 324.052L1199.6 355.756C1200.87 356.134 1201.75 357.304 1201.75 358.633L1201.75 369.736C1201.75 371.13 1200.79 372.341 1199.43 372.658L1080.95 400.326C1078.17 400.975 1075.27 400.869 1072.55 400.02L970.999 368.364C969.746 367.973 968.892 366.813 968.892 365.5L968.892 354.362C968.892 352.969 969.851 351.759 971.207 351.441L1088.59 323.933Z" fill="#EEF2FF"/>
<path d="M1075.41 384.218C1076.75 384.627 1078.17 384.679 1079.54 384.366L1199.3 356.955C1200.55 356.669 1201.75 357.62 1201.75 358.905V369.742C1201.75 371.134 1200.79 372.344 1199.43 372.662L1081.7 400.321C1078.92 400.974 1076.02 400.872 1073.3 400.026L971.002 368.278C969.747 367.888 968.892 366.727 968.892 365.412V354.33C968.892 352.986 970.191 352.025 971.477 352.418L1075.41 384.218Z" fill="#C1D0FC"/>
<path d="M1466.44 298.465C1467.77 298.158 1469.16 298.198 1470.48 298.581L1579.19 330.31C1580.47 330.683 1581.35 331.856 1581.35 333.19L1581.35 344.286C1581.35 345.679 1580.39 346.888 1579.04 347.207L1461.22 374.887C1458.5 375.527 1455.65 375.442 1452.97 374.64L1346.89 342.894C1345.62 342.514 1344.75 341.346 1344.75 340.021L1344.75 328.918C1344.75 327.521 1345.72 326.308 1347.08 325.994L1466.44 298.465Z" fill="#B83C84"/>
<path d="M1453.05 358.784C1454.37 359.181 1455.77 359.231 1457.12 358.928L1578.91 331.492C1580.16 331.21 1581.35 332.161 1581.35 333.443V344.28C1581.35 345.676 1580.39 346.888 1579.03 347.203L1459.24 374.898C1456.51 375.531 1453.65 375.432 1450.96 374.612L1346.88 342.818C1345.62 342.433 1344.75 341.268 1344.75 339.949V328.865C1344.75 327.524 1346.05 326.563 1347.33 326.95L1453.05 358.784Z" fill="#831245"/>
<path d="M1336.16 328.411C1337.49 328.103 1338.88 328.143 1340.2 328.526L1448.91 360.255C1450.19 360.629 1451.07 361.802 1451.07 363.135L1451.07 374.232C1451.07 375.624 1450.11 376.834 1448.76 377.152L1330.94 404.832C1328.22 405.472 1325.37 405.387 1322.69 404.585L1216.61 372.84C1215.35 372.46 1214.48 371.291 1214.48 369.966L1214.47 358.863C1214.47 357.466 1215.44 356.254 1216.8 355.94L1336.16 328.411Z" fill="#B83C84"/>
<path d="M1322.77 388.729C1324.09 389.126 1325.49 389.176 1326.84 388.873L1448.63 361.437C1449.88 361.155 1451.07 362.106 1451.07 363.388V374.225C1451.07 375.622 1450.11 376.834 1448.75 377.148L1328.96 404.844C1326.23 405.477 1323.37 405.378 1320.68 404.557L1216.6 372.763C1215.34 372.378 1214.47 371.213 1214.47 369.894V358.81C1214.47 357.469 1215.77 356.508 1217.05 356.895L1322.77 388.729Z" fill="#831245"/>
<path d="M1205.88 358.36C1207.22 358.052 1208.61 358.092 1209.92 358.476L1318.63 390.204C1319.91 390.578 1320.79 391.751 1320.79 393.084L1320.79 404.181C1320.79 405.573 1319.84 406.783 1318.48 407.101L1200.66 434.782C1197.94 435.421 1195.09 435.336 1192.41 434.534L1086.34 402.789C1085.07 402.409 1084.2 401.241 1084.2 399.915L1084.2 388.812C1084.2 387.415 1085.16 386.203 1086.52 385.889L1205.88 358.36Z" fill="#23253A"/>
<path d="M1192.49 418.678C1193.81 419.075 1195.21 419.125 1196.56 418.822L1318.35 391.386C1319.6 391.105 1320.79 392.055 1320.79 393.337V514.233C1320.79 515.63 1319.83 516.841 1318.47 517.156L1198.68 544.852C1195.95 545.485 1193.09 545.386 1190.41 544.565L1086.32 512.771C1085.06 512.386 1084.2 511.221 1084.2 509.902V388.759C1084.2 387.419 1085.49 386.458 1086.77 386.844L1192.49 418.678Z" fill="#15141C"/>
<defs>
<linearGradient id="paint0_linear_19189_12644" x1="1147" y1="181.5" x2="1442.5" y2="196.5" gradientUnits="userSpaceOnUse">
<stop stop-color="#FAFAFA"/>
<stop offset="0.104399" stop-color="#F5F8FF"/>
<stop offset="0.314914" stop-color="#E9EEFE"/>
<stop offset="0.38581" stop-color="#CAD7FC"/>
<stop offset="1" stop-color="#C1D0FC"/>
</linearGradient>
<linearGradient id="paint1_linear_19189_12644" x1="884.946" y1="200.134" x2="1169.62" y2="268.355" gradientUnits="userSpaceOnUse">
<stop stop-color="#FAFAFA"/>
<stop offset="0.104399" stop-color="#F5F8FF"/>
<stop offset="0.314914" stop-color="#E9EEFE"/>
<stop offset="0.38581" stop-color="#CAD7FC"/>
<stop offset="1" stop-color="#C1D0FC"/>
</linearGradient>
<linearGradient id="paint2_linear_19189_12644" x1="95.7876" y1="413.749" x2="395.51" y2="433.499" gradientUnits="userSpaceOnUse">
<stop stop-color="#FAFAFA"/>
<stop offset="0.104399" stop-color="#F5F8FF"/>
<stop offset="0.314914" stop-color="#E9EEFE"/>
<stop offset="0.38581" stop-color="#CAD7FC"/>
<stop offset="1" stop-color="#C1D0FC"/>
</linearGradient>
<linearGradient id="paint3_linear_19189_12644" x1="335.468" y1="405.535" x2="335.468" y2="559.295" gradientUnits="userSpaceOnUse">
<stop stop-color="#3E33D7"/>
<stop offset="1" stop-color="#211B71"/>
</linearGradient>
</defs>
</svg>
