<svg width="56" height="56" viewBox="0 0 56 56" fill="none" xmlns="http://www.w3.org/2000/svg">
<rect x="0.5" y="0.5" width="55" height="55" rx="27.5" stroke="#BAD415"/>
<path fill-rule="evenodd" clip-rule="evenodd" d="M25.5 44H29.5C30.052 44 30.5 43.552 30.5 43C30.5 42.448 30.052 42 29.5 42H25.5C24.948 42 24.5 42.448 24.5 43C24.5 43.552 24.948 44 25.5 44Z" fill="#BAD415"/>
<path fill-rule="evenodd" clip-rule="evenodd" d="M24.5 41H30.5C31.052 41 31.5 40.552 31.5 40C31.5 39.448 31.052 39 30.5 39H24.5C23.948 39 23.5 39.448 23.5 40C23.5 40.552 23.948 41 24.5 41Z" fill="#BAD415"/>
<path fill-rule="evenodd" clip-rule="evenodd" d="M24.4577 37.996L24.5007 38H30.5007H30.5447C31.0967 37.998 31.5427 37.551 31.5427 37C31.5427 35.391 32.2517 33.865 33.4807 32.828C35.4857 31.196 36.3627 28.693 36.3627 25.862C36.3627 20.971 32.3917 17 27.5007 17C22.6097 17 18.6387 20.971 18.6387 25.862C18.6387 28.702 19.5227 31.211 21.5577 32.804C22.7857 33.841 23.5007 35.378 23.5007 36.999C23.5007 37.821 24.2667 37.971 24.4577 37.996ZM29.6107 36H25.4337C25.1867 34.16 24.2627 32.464 22.8227 31.255C22.8137 31.248 22.8047 31.24 22.7957 31.233C21.2287 30.01 20.6387 28.045 20.6387 25.862C20.6387 22.075 23.7137 19 27.5007 19C31.2877 19 34.3627 22.075 34.3627 25.862C34.3627 28.051 33.7667 30.021 32.2187 31.276C32.2147 31.279 32.2097 31.283 32.2057 31.287C30.7757 32.488 29.8567 34.173 29.6107 36Z" fill="#BAD415"/>
<path fill-rule="evenodd" clip-rule="evenodd" d="M26.501 31L26.5 33C26.5 33.552 26.948 34 27.5 34C28.052 34 28.5 33.552 28.5 33V31.049C28.501 31.033 28.501 31.016 28.501 31C28.501 30.598 28.74 30.234 29.108 30.073C30.416 29.512 31.481 28.594 31.5 26.886C31.524 24.675 29.711 22.875 27.5 22.875C25.292 22.875 23.5 24.667 23.5 26.875C23.5 27.427 23.948 27.875 24.5 27.875C25.052 27.875 25.5 27.427 25.5 26.875C25.5 25.771 26.396 24.875 27.5 24.875C28.601 24.875 29.512 25.763 29.5 26.864C29.492 27.642 28.911 27.982 28.315 28.237C28.313 28.238 28.311 28.239 28.309 28.24C27.211 28.718 26.501 29.802 26.501 31Z" fill="#BAD415"/>
<path fill-rule="evenodd" clip-rule="evenodd" d="M28.5 15V13C28.5 12.448 28.052 12 27.5 12C26.948 12 26.5 12.448 26.5 13V15C26.5 15.552 26.948 16 27.5 16C28.052 16 28.5 15.552 28.5 15Z" fill="#BAD415"/>
<path fill-rule="evenodd" clip-rule="evenodd" d="M37.0454 19.3681L38.4594 17.9541C38.8494 17.5631 38.8494 16.9301 38.4594 16.5391C38.0694 16.1491 37.4354 16.1491 37.0454 16.5391L35.6304 17.9541C35.2404 18.3441 35.2404 18.9781 35.6304 19.3681C36.0214 19.7581 36.6544 19.7581 37.0454 19.3681Z" fill="#BAD415"/>
<path fill-rule="evenodd" clip-rule="evenodd" d="M40 28.499H42C42.552 28.499 43 28.051 43 27.499C43 26.947 42.552 26.499 42 26.499H40C39.448 26.499 39 26.947 39 27.499C39 28.051 39.448 28.499 40 28.499Z" fill="#BAD415"/>
<path fill-rule="evenodd" clip-rule="evenodd" d="M35.6323 37.0449L37.0463 38.4589C37.4373 38.8489 38.0703 38.8489 38.4603 38.4589C38.8513 38.0689 38.8513 37.4349 38.4603 37.0449L37.0463 35.6309C36.6563 35.2399 36.0223 35.2399 35.6323 35.6309C35.2423 36.0209 35.2423 36.6549 35.6323 37.0449Z" fill="#BAD415"/>
<path fill-rule="evenodd" clip-rule="evenodd" d="M17.9565 35.6341L16.5425 37.0481C16.1525 37.4391 16.1525 38.0721 16.5425 38.4621C16.9325 38.8531 17.5665 38.8531 17.9565 38.4621L19.3705 37.0481C19.7615 36.6571 19.7605 36.0241 19.3705 35.6341C18.9805 35.2431 18.3465 35.2431 17.9565 35.6341Z" fill="#BAD415"/>
<path fill-rule="evenodd" clip-rule="evenodd" d="M15 26.5029L13 26.5039C12.448 26.5039 12 26.9519 12 27.5039C12 28.0559 12.448 28.5039 13 28.5039L15 28.5029C15.552 28.5029 16 28.0549 16 27.5029C16 26.9509 15.552 26.5029 15 26.5029Z" fill="#BAD415"/>
<path fill-rule="evenodd" clip-rule="evenodd" d="M19.365 17.957L17.951 16.543C17.56 16.153 16.927 16.153 16.537 16.543C16.146 16.933 16.147 17.567 16.537 17.957L17.952 19.371C18.342 19.761 18.976 19.761 19.366 19.371C19.756 18.98 19.756 18.347 19.365 17.957Z" fill="#BAD415"/>
</svg>
