<svg width="56" height="56" viewBox="0 0 56 56" fill="none" xmlns="http://www.w3.org/2000/svg">
<circle cx="28" cy="28" r="28" fill="#F8E9E9"/>
<path d="M36.6595 36.6595C35.1841 38.1349 33.3676 39.2237 31.3709 39.8293C29.3742 40.435 27.259 40.5389 25.2126 40.1319C23.1661 39.7248 21.2517 38.8193 19.6388 37.4957C18.0259 36.172 16.7643 34.471 15.9658 32.5433C15.1673 30.6156 14.8566 28.5207 15.0611 26.4442C15.2656 24.3677 15.9791 22.3737 17.1383 20.6389C18.2975 18.904 19.8667 17.4817 21.7068 16.4982C23.547 15.5146 25.6013 15 27.6878 15V27.6878L36.6595 36.6595Z" fill="#018CB7"/>
<path d="M39.4126 36.7876C41.1468 35.0534 42.3205 32.8387 42.7819 30.43L30.7503 28.1253L39.4126 36.7876Z" fill="#018CB7"/>
<path d="M40.1986 27.8972C40.4859 26.3195 40.4228 24.6979 40.0136 23.1473C39.6045 21.5966 38.8594 20.155 37.8311 18.9244C36.8028 17.6938 35.5165 16.7043 34.0632 16.0262C32.61 15.348 31.0254 14.9977 29.4217 15L29.4378 25.9378L40.1986 27.8972Z" fill="#018CB7"/>
</svg>
