<svg width="36" height="36" viewBox="0 0 36 36" fill="none" xmlns="http://www.w3.org/2000/svg">
<path d="M17.9996 33.4802C25.9525 33.4802 32.3996 27.0331 32.3996 19.0802C32.3996 11.1273 25.9525 4.68018 17.9996 4.68018C10.0467 4.68018 3.59961 11.1273 3.59961 19.0802C3.59961 27.0331 10.0467 33.4802 17.9996 33.4802Z" fill="#D9EEF4"/>
<path d="M14.0243 15.6851H11.2559V24.455H14.0243V15.6851Z" fill="#018CB7"/>
<path d="M21.5875 15.6001C20.0014 15.6001 19.0081 16.4594 18.8238 17.061V15.6847H15.7148C15.7541 16.4155 15.7148 24.4547 15.7148 24.4547H18.8238V19.7091C18.8238 19.4453 18.8116 19.1817 18.8922 18.9924C19.106 18.4653 19.565 17.9178 20.3905 17.9178C21.4698 17.9178 21.9605 18.7289 21.9605 19.9165V24.4547H25.1V19.5781C25.1004 16.8619 23.5546 15.6001 21.5875 15.6001Z" fill="#018CB7"/>
<path d="M12.589 11.5449C11.567 11.5449 10.8984 12.2012 10.8984 13.0674C10.8984 13.9173 11.5479 14.588 12.5505 14.588H12.5699C13.6107 14.588 14.2583 13.9152 14.2583 13.0656C14.2385 12.1998 13.6103 11.5449 12.589 11.5449Z" fill="#018CB7"/>
</svg>
