<svg width="33" height="32" viewBox="0 0 33 32" fill="none" xmlns="http://www.w3.org/2000/svg">
<circle cx="16.334" cy="16" r="16" fill="#545AB2"/>
<path d="M24.6026 21.0243C23.6928 20.112 22.2299 20.112 21.3201 21.0243C20.4103 21.9366 20.4103 23.4035 21.3201 24.3158C22.2299 25.2281 23.6928 25.2281 24.6026 24.3158C25.5124 23.4035 25.5124 21.9366 24.6026 21.0243ZM22.1942 23.4571C21.7661 23.0278 21.7661 22.3302 22.1942 21.883C22.6224 21.4537 23.3181 21.4537 23.7641 21.883C24.1923 22.3123 24.1923 23.0099 23.7641 23.4571C23.3181 23.8865 22.6224 23.8865 22.1942 23.4571Z" fill="#FDFDFD"/>
<path d="M19.9465 17.8224H12.775C9.79583 17.8224 7.3875 15.4075 7.3875 12.4201C7.3875 9.43279 9.79583 7.01789 12.775 7.01789H19.9465C22.9257 7.01789 25.334 9.45068 25.334 12.4201C25.334 15.3896 22.9078 17.8224 19.9465 17.8224ZM12.4361 8.43106C10.2775 8.43106 8.58275 8.10907 8.81466 12.3486C8.81466 12.3665 8.81466 12.3843 8.81466 12.4201C8.81466 14.6025 10.5986 16.3734 12.775 16.3734H19.9465C22.1229 16.3734 23.889 14.6025 23.889 12.4201C23.889 10.2378 22.1229 8.46683 19.9465 8.46683H12.4896L12.4361 8.43106Z" fill="#FDFDFD"/>
<path d="M14.3092 24.9955H12.9356C10.884 24.9955 9.06441 23.6002 8.52923 21.6147C7.72645 18.681 7.33398 15.64 7.33398 12.5811V11.5794C7.33398 9.05714 9.38552 7 11.9009 7C13.9524 7 15.772 8.39528 16.3072 10.3809L18.7156 19.2176C19.0902 20.6129 18.8047 22.0619 17.9485 23.2067C17.0565 24.3337 15.7364 24.9955 14.3092 24.9955ZM9.9207 21.239C10.2953 22.5985 11.5263 23.5466 12.9356 23.5466H14.3092C15.2904 23.5466 16.2002 23.0994 16.7889 22.3123C17.3776 21.5252 17.5738 20.5414 17.3241 19.5933L14.9157 10.7565C14.5411 9.39702 13.3102 8.44894 11.9009 8.44894C10.1883 8.44894 8.77898 9.84422 8.77898 11.5794V12.5811C8.77898 15.5148 9.15361 18.4127 9.9207 21.239Z" fill="#FDFDFD"/>
<path d="M8.11892 12.4022C8.49355 12.4022 8.81466 12.0981 8.79682 11.7046C8.79682 11.5078 8.79682 11.3289 8.79682 11.2037C8.93953 8.18062 10.4916 8.44894 12.4182 8.44894L12.4896 8.46683H19.9465C21.9088 8.46683 23.55 9.91578 23.8355 11.794C23.889 12.1339 24.1744 12.3843 24.5134 12.3843H24.5847C25.0129 12.3843 25.334 12.0087 25.2626 11.5794C24.8702 9.00348 22.6402 7.01789 19.9465 7.01789H12.775C10.0813 7.01789 7.85133 9.00348 7.45886 11.5973C7.3875 12.0266 7.70861 12.4022 8.11892 12.4022Z" fill="#FDFDFD"/>
<path d="M13.0961 24.2263C13.0961 23.8507 12.8107 23.5466 12.4539 23.5108C12.3647 23.4929 12.2755 23.4929 12.222 23.475C11.1338 23.2067 10.2418 22.366 9.93854 21.2569C9.17145 18.4306 8.77898 15.5327 8.79682 12.599V11.6688C8.79682 10.2199 9.74231 8.93193 11.1516 8.57416C11.5441 8.46683 11.9187 8.44894 12.2933 8.50261C12.7572 8.55627 13.114 8.25217 13.114 7.78708C13.114 7.41143 12.8464 7.10733 12.4717 7.07155C12.2933 7.05366 12.0971 7.03578 11.9187 7.03578C9.38552 7 7.33398 9.05714 7.33398 11.5615V12.5632C7.33398 15.6221 7.72645 18.6631 8.52923 21.6147C8.99305 23.2961 10.3489 24.5483 12.0079 24.8882C12.0793 24.9061 12.1685 24.924 12.2755 24.924C12.7215 24.9776 13.0961 24.6557 13.0961 24.2263Z" fill="#FDFDFD"/>
<path d="M23.7463 23.4571C23.4073 23.797 22.9078 23.8686 22.4975 23.6897C22.2834 23.5824 22.0158 23.6181 21.8553 23.797L21.8196 23.8149C21.5342 24.1011 21.6234 24.602 21.998 24.7809C22.8543 25.1744 23.9068 25.0134 24.6026 24.3158C25.3161 23.6002 25.4589 22.5627 25.0664 21.7041C24.888 21.3284 24.4063 21.239 24.1031 21.5252L24.0674 21.561C23.889 21.7399 23.8711 21.9903 23.9603 22.205C24.1566 22.6164 24.0852 23.1173 23.7463 23.4571Z" fill="#FDFDFD"/>
</svg>
