<svg width="58" height="58" viewBox="0 0 58 58" fill="none" xmlns="http://www.w3.org/2000/svg">
<circle cx="29" cy="29" r="29" fill="#C8D9FF"/>
<path d="M28.0001 21.9947C27.8166 21.9926 27.6378 21.9324 27.4862 21.8216C27.3345 21.7108 27.2169 21.5544 27.148 21.3721C27.0792 21.1898 27.0622 20.9898 27.0992 20.7971C27.1362 20.6045 27.2255 20.4279 27.356 20.2896C27.4864 20.1513 27.6522 20.0574 27.8323 20.0198C28.0124 19.9823 28.1989 20.0026 28.3682 20.0783C28.5376 20.1541 28.6823 20.2818 28.784 20.4455C28.8858 20.6091 28.9401 20.8014 28.9401 20.9981C28.9401 21.1299 28.9157 21.2603 28.8683 21.382C28.821 21.5036 28.7516 21.6139 28.6642 21.7066C28.5767 21.7993 28.473 21.8725 28.359 21.922C28.2451 21.9714 28.123 21.9961 28.0001 21.9947Z" fill="#4DC6FF"/>
<path d="M29.85 41.0055H16.79C16.5433 41.0055 16.3068 40.9005 16.1324 40.7136C15.958 40.5267 15.86 40.2732 15.86 40.0088V20.0007C15.86 19.7364 15.958 19.4829 16.1324 19.2959C16.3068 19.109 16.5433 19.004 16.79 19.004H39.19C39.4367 19.004 39.6732 19.109 39.8476 19.2959C40.022 19.4829 40.12 19.7364 40.12 20.0007V23.0014H18.66C18.412 23.0014 18.1742 23.1069 17.9989 23.2949C17.8235 23.4828 17.725 23.7376 17.725 24.0034C17.725 24.2691 17.8235 24.524 17.9989 24.7119C18.1742 24.8998 18.412 25.0054 18.66 25.0054H40.13V29.9994C40.13 30.2652 40.2285 30.52 40.4039 30.7079C40.5792 30.8958 40.817 31.0014 41.065 31.0014C41.313 31.0014 41.5508 30.8958 41.7261 30.7079C41.9015 30.52 42 30.2652 42 29.9994V20.0007C42 19.6066 41.9276 19.2164 41.7869 18.8524C41.6462 18.4883 41.4399 18.1575 41.1799 17.8789C40.9199 17.6002 40.6112 17.3792 40.2715 17.2284C39.9318 17.0776 39.5677 17 39.2 17H16.79C16.0491 17.0028 15.3395 17.3202 14.8166 17.8827C14.2936 18.4451 14 19.2067 14 20.0007V39.9981C14 40.7939 14.295 41.5572 14.8201 42.1199C15.3452 42.6827 16.0574 42.9988 16.8 42.9988H29.85C30.098 42.9988 30.3358 42.8932 30.5111 42.7053C30.6865 42.5174 30.785 42.2625 30.785 41.9968C30.785 41.731 30.6865 41.4762 30.5111 41.2883C30.3358 41.1003 30.098 40.9948 29.85 40.9948V41.0055Z" fill="#4DC6FF"/>
<path d="M41.0697 34.9945H39.5897L39.8597 34.7051C40.0347 34.5176 40.1331 34.2631 40.1331 33.9978C40.1331 33.7325 40.0347 33.4781 39.8597 33.2905C39.6846 33.1029 39.4472 32.9976 39.1997 32.9976C38.9521 32.9976 38.7147 33.1029 38.5397 33.2905L37.3297 34.5873L36.1297 33.3013C36.043 33.2077 35.94 33.1333 35.8265 33.0824C35.713 33.0314 35.5913 33.005 35.4682 33.0045C35.3452 33.004 35.2233 33.0295 35.1094 33.0795C34.9956 33.1295 34.892 33.203 34.8047 33.2959C34.7174 33.3888 34.648 33.4992 34.6004 33.6208C34.5529 33.7424 34.5282 33.8729 34.5278 34.0048C34.5273 34.1366 34.5511 34.2673 34.5977 34.3893C34.6444 34.5113 34.713 34.6223 34.7997 34.7159L35.0697 35.0052H33.6097C33.363 35.0052 33.1265 35.1102 32.9521 35.2971C32.7777 35.484 32.6797 35.7375 32.6797 36.0019V42.0032C32.6797 42.2676 32.7777 42.5211 32.9521 42.708C33.1265 42.8949 33.363 42.9999 33.6097 42.9999H41.0797C41.3246 42.9971 41.5586 42.8908 41.7308 42.7042C41.9031 42.5176 41.9997 42.2657 41.9997 42.0032V36.0019C42.001 35.8701 41.9779 35.7393 41.9318 35.6172C41.8856 35.495 41.8173 35.3839 41.7309 35.2902C41.6444 35.1965 41.5414 35.1221 41.4279 35.0714C41.3144 35.0206 41.1927 34.9945 41.0697 34.9945ZM34.5397 36.9985H36.3897V40.9959H34.5397V36.9985ZM40.1397 40.9959H38.2597V36.9985H40.1397V40.9959Z" fill="#4DC6FF"/>
<path d="M23.3305 26.9888C23.3305 26.7245 23.2325 26.471 23.0581 26.2841C22.8837 26.0972 22.6471 25.9922 22.4005 25.9922H18.6605C18.4138 25.9922 18.1773 26.0972 18.0029 26.2841C17.8285 26.471 17.7305 26.7245 17.7305 26.9888V30.9862C17.7305 31.2505 17.8285 31.504 18.0029 31.6909C18.1773 31.8778 18.4138 31.9828 18.6605 31.9828H22.4005C22.6471 31.9828 22.8837 31.8778 23.0581 31.6909C23.2325 31.504 23.3305 31.2505 23.3305 30.9862V26.9888ZM21.4605 30.0002H19.6005V27.9962H21.4605V30.0002Z" fill="#4DC6FF"/>
<path d="M22.4005 33.002H18.6605C18.4138 33.002 18.1773 33.107 18.0029 33.2939C17.8285 33.4808 17.7305 33.7343 17.7305 33.9986V37.996C17.7305 38.2603 17.8285 38.5138 18.0029 38.7007C18.1773 38.8876 18.4138 38.9926 18.6605 38.9926H22.4005C22.6471 38.9926 22.8837 38.8876 23.0581 38.7007C23.2325 38.5138 23.3305 38.2603 23.3305 37.996V33.9986C23.3305 33.7343 23.2325 33.4808 23.0581 33.2939C22.8837 33.107 22.6471 33.002 22.4005 33.002ZM21.4705 36.9993H19.6005V34.9953H21.4605L21.4705 36.9993Z" fill="#4DC6FF"/>
<path d="M29.8692 25.9922H26.1292C25.8826 25.9922 25.646 26.0972 25.4716 26.2841C25.2972 26.471 25.1992 26.7245 25.1992 26.9888V30.9862C25.1992 31.2505 25.2972 31.504 25.4716 31.6909C25.646 31.8778 25.8826 31.9828 26.1292 31.9828H29.8592C30.1059 31.9828 30.3424 31.8778 30.5168 31.6909C30.6912 31.504 30.7892 31.2505 30.7892 30.9862V26.9888C30.7892 26.7264 30.6926 26.4745 30.5204 26.2879C30.3481 26.1013 30.1141 25.995 29.8692 25.9922ZM28.9292 30.0002H27.0692V27.9962H28.9392L28.9292 30.0002Z" fill="#4DC6FF"/>
<path d="M33.5999 30.9964C33.8466 30.9964 34.0831 30.8914 34.2575 30.7045C34.4319 30.5176 34.5299 30.2641 34.5299 29.9998V27.9958H36.3999V29.9998C36.3999 30.2655 36.4984 30.5204 36.6738 30.7083C36.8491 30.8962 37.0869 31.0018 37.3349 31.0018C37.5829 31.0018 37.8207 30.8962 37.9961 30.7083C38.1714 30.5204 38.2699 30.2655 38.2699 29.9998V26.9991C38.2699 26.7348 38.1719 26.4813 37.9975 26.2944C37.8231 26.1074 37.5866 26.0024 37.3399 26.0024H33.5999C33.3533 26.0024 33.1167 26.1074 32.9423 26.2944C32.7679 26.4813 32.6699 26.7348 32.6699 26.9991V29.9998C32.6699 30.2641 32.7679 30.5176 32.9423 30.7045C33.1167 30.8914 33.3533 30.9964 33.5999 30.9964Z" fill="#4DC6FF"/>
<path d="M29.8692 33.002H26.1292C25.8826 33.002 25.646 33.107 25.4716 33.2939C25.2972 33.4808 25.1992 33.7343 25.1992 33.9986V37.996C25.1992 38.2603 25.2972 38.5138 25.4716 38.7007C25.646 38.8876 25.8826 38.9926 26.1292 38.9926H29.8592C30.1059 38.9926 30.3424 38.8876 30.5168 38.7007C30.6912 38.5138 30.7892 38.2603 30.7892 37.996V33.9986C30.7892 33.7361 30.6926 33.4842 30.5204 33.2976C30.3481 33.111 30.1141 33.0048 29.8692 33.002ZM28.9392 36.9993H27.0692V34.9953H28.9392V36.9993Z" fill="#4DC6FF"/>
</svg>
