<svg width="56" height="56" viewBox="0 0 56 56" fill="none" xmlns="http://www.w3.org/2000/svg">
<rect x="0.5" y="0.5" width="55" height="55" rx="27.5" stroke="#BAD415"/>
<path d="M20.6641 30.5312V36.864H27.5163V29.4978H20.6641V30.5312Z" fill="#BAD415"/>
<path d="M19.9473 30.8904H13.7832V36.8641H19.9473V30.8904Z" fill="#BAD415"/>
<path d="M28.2344 29.1387V36.8641H35.0861V27.3923H28.2344V29.1387Z" fill="#BAD415"/>
<path d="M35.8047 27.0334V36.8641H41.9692V23.8828H35.8047V27.0334Z" fill="#BAD415"/>
<path d="M44.3929 36.8643H11.3591C11.1609 36.8643 11 37.025 11 37.2234C11 37.4217 11.1609 37.5825 11.3591 37.5825H44.393C44.5913 37.5825 44.7521 37.4217 44.7521 37.2234C44.7521 37.025 44.5912 36.8643 44.3929 36.8643Z" fill="#BAD415"/>
<path d="M12.7343 29.0205C12.8126 29.0205 12.8916 28.9949 12.9577 28.9422L16.2766 26.2996L23.0041 27.3039C23.1164 27.3207 23.23 27.2833 23.3104 27.2032L27.2701 23.2621L31.1783 24.8833C31.3153 24.9403 31.4729 24.9071 31.5754 24.7999L38.4575 17.6074C38.5946 17.4641 38.5897 17.2369 38.4463 17.0997C38.303 16.9624 38.0757 16.9676 37.9386 17.1109L31.2265 24.1259L27.3241 22.5071C27.1902 22.4515 27.0361 22.4819 26.9332 22.5842L22.9318 26.567L16.2281 25.5662C16.1295 25.5514 16.0294 25.5784 15.9515 25.6405L12.5104 28.3804C12.3553 28.5039 12.3296 28.7298 12.4532 28.8849C12.5241 28.9742 12.6287 29.0205 12.7343 29.0205Z" fill="#BAD415"/>
</svg>
