<svg width="32" height="32" viewBox="0 0 32 32" fill="none" xmlns="http://www.w3.org/2000/svg">
<path fill-rule="evenodd" clip-rule="evenodd" d="M3 0C1.34315 0 0 1.34315 0 3V29C0 30.6569 1.34315 32 3 32H13.5V20.5H9.5V16H13.5V12C13.5 12 13.4013 10.2492 14 8.99998C15.1322 6.63757 17.3813 6.07215 20 5.99998C21.1873 5.96726 23 6.49998 23 6.49998V10.5H20.5C20.5 10.5 19.7499 10.4167 19 11C18.4443 11.4322 18.5 12.5 18.5 12.5V16H23L22 20.5L18.5 20.5V32H29C30.6569 32 32 30.6569 32 29V3C32 1.34315 30.6569 0 29 0H3Z" fill="white"/>
</svg>
