<svg width="24" height="25" viewBox="0 0 24 25" fill="none" xmlns="http://www.w3.org/2000/svg">
<path fill-rule="evenodd" clip-rule="evenodd" d="M5.14328 0.773438C3.77954 0.773437 2.47163 1.31505 1.50713 2.27917C0.542634 3.2433 0.00052371 4.551 0 5.91474V19.6302C0 20.9942 0.54188 22.3025 1.50643 23.267C2.47098 24.2316 3.7792 24.7734 5.14328 24.7734H18.8587C20.2224 24.7729 21.5301 24.2308 22.4943 23.2663C23.4584 22.3018 24 20.9939 24 19.6302V5.91474C23.9995 4.55134 23.4576 3.24394 22.4936 2.27987C21.5295 1.3158 20.2221 0.773961 18.8587 0.773438H5.14328ZM20.3381 5.92264C20.3381 6.31552 20.182 6.69231 19.9042 6.97012C19.6264 7.24793 19.2496 7.404 18.8567 7.404C18.4638 7.404 18.087 7.24793 17.8092 6.97012C17.5314 6.69231 17.3754 6.31552 17.3754 5.92264C17.3754 5.52976 17.5314 5.15297 17.8092 4.87516C18.087 4.59736 18.4638 4.44128 18.8567 4.44128C19.2496 4.44128 19.6264 4.59736 19.9042 4.87516C20.182 5.15297 20.3381 5.52976 20.3381 5.92264ZM12.003 8.66415C10.9134 8.66415 9.86841 9.09698 9.09795 9.86744C8.3275 10.6379 7.89466 11.6829 7.89466 12.7724C7.89466 13.862 8.3275 14.907 9.09795 15.6775C9.86841 16.4479 10.9134 16.8808 12.003 16.8808C13.0926 16.8808 14.1375 16.4479 14.908 15.6775C15.6784 14.907 16.1113 13.862 16.1113 12.7724C16.1113 11.6829 15.6784 10.6379 14.908 9.86744C14.1375 9.09698 13.0926 8.66415 12.003 8.66415ZM5.91754 12.7724C5.91754 11.159 6.55847 9.61167 7.69934 8.4708C8.84021 7.32993 10.3876 6.689 12.001 6.689C13.6144 6.689 15.1618 7.32993 16.3026 8.4708C17.4435 9.61167 18.0844 11.159 18.0844 12.7724C18.0844 14.3859 17.4435 15.9332 16.3026 17.0741C15.1618 18.215 13.6144 18.8559 12.001 18.8559C10.3876 18.8559 8.84021 18.215 7.69934 17.0741C6.55847 15.9332 5.91754 14.3859 5.91754 12.7724Z" fill="white"/>
</svg>
