<svg width="32" height="33" viewBox="0 0 32 33" fill="none" xmlns="http://www.w3.org/2000/svg">
<path d="M29.6313 0.280762H2.3625C1.05625 0.280762 0 1.31201 0 2.58701V29.9683C0 31.2433 1.05625 32.2808 2.3625 32.2808H29.6313C30.9375 32.2808 32 31.2433 32 29.9745V2.58701C32 1.31201 30.9375 0.280762 29.6313 0.280762ZM9.49375 27.5495H4.74375V12.2745H9.49375V27.5495ZM7.11875 10.1933C5.59375 10.1933 4.3625 8.96201 4.3625 7.44326C4.3625 5.92451 5.59375 4.69326 7.11875 4.69326C8.6375 4.69326 9.86875 5.92451 9.86875 7.44326C9.86875 8.95576 8.6375 10.1933 7.11875 10.1933ZM27.2687 27.5495H22.525V20.1245C22.525 18.3558 22.4937 16.0745 20.0562 16.0745C17.5875 16.0745 17.2125 18.0058 17.2125 19.9995V27.5495H12.475V12.2745H17.025V14.362H17.0875C17.7188 13.162 19.2688 11.8933 21.575 11.8933C26.3813 11.8933 27.2687 15.0558 27.2687 19.1683V27.5495Z" fill="white"/>
</svg>
