<svg width="27" height="27" viewBox="0 0 27 27" fill="none" xmlns="http://www.w3.org/2000/svg">
<path fill-rule="evenodd" clip-rule="evenodd" d="M13.5 27C20.9558 27 27 20.9558 27 13.5C27 6.04416 20.9558 0 13.5 0C6.04416 0 0 6.04416 0 13.5C0 20.9558 6.04416 27 13.5 27Z" fill="white"/>
<path fill-rule="evenodd" clip-rule="evenodd" d="M6.75 9.81087V17.4554C6.75 17.8712 7.0544 18.2083 7.47377 18.2083H19.4043C19.8232 18.2083 20.1281 17.8673 20.1281 17.4554V9.81087C20.1281 9.35448 19.8555 9 19.4043 9H7.47377C7.00519 9 6.75 9.36319 6.75 9.81087ZM7.85003 10.4767C7.85003 10.2925 7.96152 10.1871 8.13963 10.1871C8.24981 10.1871 12.585 12.9342 12.8476 13.0953L13.5261 13.5173C13.7413 13.3731 13.9573 13.2499 14.1802 13.1005C14.6353 12.8096 18.6844 10.1871 18.7959 10.1871C18.9745 10.1871 19.0855 10.2925 19.0855 10.4767C19.0855 10.6718 18.7097 10.8656 18.465 11.015C16.9273 11.9521 15.39 12.9738 13.8675 13.9458C13.7787 14.0059 13.6067 14.1344 13.4778 14.1148C13.3341 14.0925 8.92263 11.2584 8.12003 10.7864C7.9994 10.7154 7.85003 10.6505 7.85003 10.4767Z" fill="black"/>
</svg>
