<svg width="27" height="27" viewBox="0 0 27 27" fill="none" xmlns="http://www.w3.org/2000/svg">
<circle cx="13.5" cy="13.5" r="13.5" fill="white"/>
<path fill-rule="evenodd" clip-rule="evenodd" d="M13.0705 7C10.0349 7 7.57031 9.46457 7.57031 12.5001C7.57031 13.8892 8.39733 15.5407 9.41986 17.0098C10.8894 19.1218 12.7265 20.8634 12.7265 20.8634C12.9195 21.0459 13.2215 21.0459 13.4145 20.8634C13.4145 20.8634 15.2515 19.1218 16.7211 17.0098C17.7436 15.5407 18.5706 13.8892 18.5706 12.5001C18.5706 9.46457 16.106 7 13.0705 7ZM13.0705 9.75007C11.5524 9.75007 10.3204 10.9821 10.3204 12.5001C10.3204 14.0182 11.5524 15.2502 13.0705 15.2502C14.5885 15.2502 15.8205 14.0182 15.8205 12.5001C15.8205 10.9821 14.5885 9.75007 13.0705 9.75007ZM13.0705 10.7501C14.0365 10.7501 14.8205 11.5341 14.8205 12.5001C14.8205 13.4662 14.0365 14.2502 13.0705 14.2502C12.1044 14.2502 11.3204 13.4662 11.3204 12.5001C11.3204 11.5341 12.1044 10.7501 13.0705 10.7501Z" fill="black"/>
<circle cx="13" cy="12.5" r="2.5" fill="white"/>
</svg>
