<svg width="91" height="50" viewBox="0 0 91 50" fill="none" xmlns="http://www.w3.org/2000/svg">
<path d="M2.388 49.4219H0.396V44.5019C0.396 43.6139 0.64 42.9339 1.128 42.4619C1.624 41.9819 2.3 41.7419 3.156 41.7419H7.308V43.6619H3.54C3.396 43.6619 3.256 43.6859 3.12 43.7339C2.984 43.7819 2.86 43.8499 2.748 43.9379C2.644 44.0259 2.556 44.1299 2.484 44.2499C2.42 44.3619 2.388 44.4859 2.388 44.6219H7.308V46.5419H2.388V49.4219ZM11.2278 47.5019H13.1478C13.2838 47.5019 13.4198 47.4779 13.5558 47.4299C13.6998 47.3819 13.8238 47.3139 13.9278 47.2259C14.0398 47.1379 14.1278 47.0379 14.1918 46.9259C14.2638 46.8059 14.2998 46.6779 14.2998 46.5419V41.7419H16.3038V46.6619C16.3038 47.5499 16.0558 48.2339 15.5598 48.7139C15.0718 49.1859 14.3958 49.4219 13.5318 49.4219H10.8438C9.97978 49.4219 9.29978 49.1859 8.80378 48.7139C8.31578 48.2339 8.07178 47.5499 8.07178 46.6619V41.7419H10.0758V46.5419C10.0758 46.6779 10.1078 46.8059 10.1718 46.9259C10.2438 47.0379 10.3318 47.1379 10.4358 47.2259C10.5478 47.3139 10.6718 47.3819 10.8078 47.4299C10.9518 47.4779 11.0918 47.5019 11.2278 47.5019ZM24.5355 49.4219H19.8555C18.9915 49.4219 18.3115 49.1859 17.8155 48.7139C17.3275 48.2339 17.0835 47.5499 17.0835 46.6619V44.5019C17.0835 43.6139 17.3275 42.9339 17.8155 42.4619C18.3115 41.9819 18.9915 41.7419 19.8555 41.7419H24.5355V43.6619H20.2275C20.0915 43.6619 19.9555 43.6859 19.8195 43.7339C19.6835 43.7819 19.5595 43.8499 19.4475 43.9379C19.3435 44.0259 19.2555 44.1299 19.1835 44.2499C19.1195 44.3619 19.0875 44.4859 19.0875 44.6219H24.5355V46.5419H19.0875C19.0875 46.6779 19.1195 46.8059 19.1835 46.9259C19.2555 47.0379 19.3435 47.1379 19.4475 47.2259C19.5595 47.3139 19.6835 47.3819 19.8195 47.4299C19.9555 47.4779 20.0915 47.5019 20.2275 47.5019H24.5355V49.4219ZM25.3101 41.7419H27.2901V47.5019H31.5741V49.4219H25.3101V41.7419ZM38.6413 43.6619V49.4219H36.6253V43.6619H34.3573V49.4219H32.3413V41.7419H40.1413C41.0053 41.7419 41.6853 41.9819 42.1813 42.4619C42.6773 42.9339 42.9253 43.6139 42.9253 44.5019V49.4219H40.9093V44.6219C40.9093 44.4859 40.8733 44.3619 40.8013 44.2499C40.7373 44.1299 40.6493 44.0259 40.5373 43.9379C40.4253 43.8499 40.3013 43.7819 40.1653 43.7339C40.0293 43.6859 39.8893 43.6619 39.7453 43.6619H38.6413ZM51.1605 49.4219H46.4805C45.6165 49.4219 44.9365 49.1859 44.4405 48.7139C43.9525 48.2339 43.7085 47.5499 43.7085 46.6619V44.5019C43.7085 43.6139 43.9525 42.9339 44.4405 42.4619C44.9365 41.9819 45.6165 41.7419 46.4805 41.7419H51.1605V43.6619H46.8525C46.7165 43.6619 46.5805 43.6859 46.4445 43.7339C46.3085 43.7819 46.1845 43.8499 46.0725 43.9379C45.9685 44.0259 45.8805 44.1299 45.8085 44.2499C45.7445 44.3619 45.7125 44.4859 45.7125 44.6219H51.1605V46.5419H45.7125C45.7125 46.6779 45.7445 46.8059 45.8085 46.9259C45.8805 47.0379 45.9685 47.1379 46.0725 47.2259C46.1845 47.3139 46.3085 47.3819 46.4445 47.4299C46.5805 47.4779 46.7165 47.5019 46.8525 47.5019H51.1605V49.4219ZM51.9351 43.6619V41.7419H59.4231V43.6619H56.6751V49.4219H54.6831V43.6619H51.9351ZM60.2085 49.4219V41.7419H65.5245C65.9405 41.7419 66.3005 41.8019 66.6045 41.9219C66.9165 42.0339 67.1725 42.1979 67.3725 42.4139C67.5725 42.6299 67.7205 42.8899 67.8165 43.1939C67.9205 43.4979 67.9725 43.8339 67.9725 44.2019C67.9725 44.3939 67.9565 44.5659 67.9245 44.7179C67.9005 44.8619 67.8645 44.9939 67.8165 45.1139C67.7685 45.2259 67.7085 45.3299 67.6365 45.4259C67.5645 45.5219 67.4805 45.6219 67.3845 45.7259L67.4085 45.7379C67.4965 45.8259 67.5765 45.9099 67.6485 45.9899C67.7205 46.0619 67.7805 46.1459 67.8285 46.2419C67.8765 46.3379 67.9125 46.4539 67.9365 46.5899C67.9605 46.7259 67.9725 46.8979 67.9725 47.1059V49.4219H65.9565V47.1419C65.9565 47.0619 65.9325 46.9739 65.8845 46.8779C65.8365 46.7739 65.7285 46.7019 65.5605 46.6619H62.2125V49.4219H60.2085ZM65.4765 43.6619H62.2125V44.7419H65.5965C65.7565 44.7179 65.8605 44.6459 65.9085 44.5259C65.9565 44.3979 65.9805 44.2979 65.9805 44.2259C65.9805 44.1859 65.9765 44.1339 65.9685 44.0699C65.9605 44.0059 65.9365 43.9459 65.8965 43.8899C65.8645 43.8259 65.8125 43.7739 65.7405 43.7339C65.6765 43.6859 65.5885 43.6619 65.4765 43.6619ZM68.7515 49.4219V41.7419H70.7555V49.4219H68.7515ZM78.9808 49.4219H74.3008C73.4368 49.4219 72.7568 49.1859 72.2608 48.7139C71.7728 48.2339 71.5288 47.5499 71.5288 46.6619V44.5019C71.5288 43.6139 71.7728 42.9339 72.2608 42.4619C72.7568 41.9819 73.4368 41.7419 74.3008 41.7419H78.9808V43.6619H74.6728C74.5368 43.6619 74.4008 43.6859 74.2648 43.7339C74.1288 43.7819 74.0048 43.8499 73.8928 43.9379C73.7888 44.0259 73.7008 44.1299 73.6288 44.2499C73.5648 44.3619 73.5328 44.4859 73.5328 44.6219V46.5419C73.5328 46.6779 73.5648 46.8059 73.6288 46.9259C73.7008 47.0379 73.7888 47.1379 73.8928 47.2259C74.0048 47.3139 74.1288 47.3819 74.2648 47.4299C74.4008 47.4779 74.5368 47.5019 74.6728 47.5019H78.9808V49.4219ZM82.2154 44.6219H84.9874C85.4754 44.6219 85.8794 44.6979 86.1994 44.8499C86.5194 45.0019 86.7714 45.1939 86.9554 45.4259C87.1394 45.6579 87.2674 45.9099 87.3394 46.1819C87.4194 46.4539 87.4594 46.7139 87.4594 46.9619C87.4594 47.3299 87.4034 47.6659 87.2914 47.9699C87.1874 48.2739 87.0314 48.5339 86.8234 48.7499C86.6154 48.9659 86.3554 49.1339 86.0434 49.2539C85.7394 49.3659 85.3874 49.4219 84.9874 49.4219H79.7554V47.5019H84.9514C85.0634 47.5019 85.1514 47.4859 85.2154 47.4539C85.2794 47.4139 85.3274 47.3699 85.3594 47.3219C85.3994 47.2659 85.4234 47.2099 85.4314 47.1539C85.4394 47.0979 85.4434 47.0499 85.4434 47.0099C85.4434 46.9299 85.4114 46.8339 85.3474 46.7219C85.2914 46.6019 85.1594 46.5419 84.9514 46.5419H82.1794C81.6834 46.5419 81.2754 46.4659 80.9554 46.3139C80.6354 46.1619 80.3834 45.9699 80.1994 45.7379C80.0154 45.5059 79.8834 45.2539 79.8034 44.9819C79.7314 44.7019 79.6954 44.4379 79.6954 44.1899C79.6954 43.8219 79.7474 43.4899 79.8514 43.1939C79.9634 42.8899 80.1234 42.6299 80.3314 42.4139C80.5394 42.1979 80.7954 42.0339 81.0994 41.9219C81.4114 41.8019 81.7714 41.7419 82.1794 41.7419H87.3994V43.6619H82.2154C82.1034 43.6619 82.0114 43.6819 81.9394 43.7219C81.8754 43.7539 81.8234 43.7939 81.7834 43.8419C81.7514 43.8899 81.7314 43.9419 81.7234 43.9979C81.7154 44.0539 81.7114 44.1019 81.7114 44.1419C81.7114 44.1819 81.7154 44.2299 81.7234 44.2859C81.7394 44.3419 81.7634 44.3939 81.7954 44.4419C81.8354 44.4899 81.8874 44.5339 81.9514 44.5739C82.0154 44.6059 82.1034 44.6219 82.2154 44.6219Z" fill="white"/>
<path d="M11.2069 12.1537C3.50591 20.8447 2.13477 32.89 2.13477 32.89H9.91087C9.91087 32.89 12.1148 23.0594 15.4761 17.5665C23.7334 4.07269 39.5668 0.260838 39.5668 0.260838C39.5668 0.260838 35.32 -0.326048 32.7055 0.260838C25.2344 1.93796 17.5701 4.97252 11.2069 12.1537Z" fill="white"/>
<path d="M47.0003 30.5001C47.8069 31.2393 49.4997 30.9996 49.4997 30.9996L50.5478 30.8067C50.5478 30.8067 48.0967 30.5769 47.5003 30.0001C46.0235 28.5719 46.0334 27.3585 46.0334 27.3585C46.0334 27.3585 45.8959 28.6708 46 29C46.2974 29.9406 46.1936 29.7609 47.0003 30.5001Z" fill="white"/>
<path fill-rule="evenodd" clip-rule="evenodd" d="M49.0211 1.55664C80.278 1.55678 85.5383 32.2036 85.5383 32.2036H51.5918C52.2689 31.2175 53.171 29.6605 53.2134 28.3145C53.2878 25.9524 52.5952 25.0042 51.155 23.1304C49.5183 21.001 45.7422 19.0137 45.7422 19.0137C45.7422 19.0137 47.1753 20.4689 47.267 21.9869C47.3485 23.3363 46.4331 24.2736 45.507 25.2219C44.6278 26.1222 43.7388 27.0324 43.6838 28.3145C43.6259 29.6655 44.7272 31.2194 45.5708 32.2036H12.5039C12.5039 32.2036 13.7247 25.0914 18.4844 17.7194H38.2713V14.6699H20.6637C26.085 7.81158 34.9001 1.55658 49.0211 1.55664Z" fill="white"/>
</svg>
