<svg width="38" height="27" viewBox="0 0 38 27" fill="none" xmlns="http://www.w3.org/2000/svg">
<path fill-rule="evenodd" clip-rule="evenodd" d="M20.7075 0.264775C20.505 0.263714 20.3026 0.262653 20.1005 0.261526C13.103 0.222509 4.66049 0.259102 3.01415 2.2583C1.36823 4.25699 0.573242 8.51347 0.573242 13.2661C0.573242 18.0187 1.08681 22.6834 3.00462 24.2623C5.43599 26.264 13.5994 26.3527 20.9141 26.2706C21.298 26.2663 21.6856 26.2625 22.0753 26.2587C27.8233 26.2029 34.0357 26.1425 35.5596 24.2688C37.1869 22.2681 38.0005 18.0187 38.0005 13.2661C38.0005 8.51347 37.4751 3.82297 35.5596 2.25941C33.1962 0.33023 26.8818 0.297135 20.7075 0.264775ZM25.7376 14.0273L15.9739 8.39027V19.6643L25.7376 14.0273Z" fill="white"/>
</svg>
