<svg width="27" height="27" viewBox="0 0 27 27" fill="none" xmlns="http://www.w3.org/2000/svg">
<circle cx="13.5" cy="13.5" r="13.5" fill="white"/>
<path d="M18.9839 16.3142L18.4843 18.4797C18.4141 18.7858 18.145 19 17.8298 19C12.409 18.9996 8 14.5912 8 9.17097C8 8.85602 8.2142 8.58662 8.5204 8.5168L10.6862 8.01731C11.0017 7.94423 11.3239 8.10793 11.455 8.40659L12.4546 10.7375C12.5714 11.0121 12.4926 11.332 12.2616 11.5206L11.1048 12.4493C11.8349 13.9364 13.0441 15.1455 14.5319 15.8759L15.479 14.7201C15.6657 14.4885 15.988 14.4084 16.2626 14.5273L18.5939 15.5265C18.8743 15.674 19.0569 16.0005 18.9839 16.3142Z" fill="black"/>
</svg>
